{"glyphs":{"0":{"ha":686,"x_min":56,"x_max":665,"o":"m 290 -17 q 119 66 182 -17 q 56 292 56 149 q 88 540 56 428 q 172 732 119 651 q 293 856 225 813 q 433 900 361 900 q 529 878 486 900 q 602 817 572 857 q 649 719 632 776 q 665 589 665 661 q 634 342 665 453 q 551 151 603 231 q 431 27 499 71 q 290 -17 363 -17 m 424 785 q 337 742 378 785 q 264 628 296 699 q 213 467 232 558 q 194 281 194 376 q 220 147 194 193 q 299 100 246 100 q 385 142 344 100 q 458 254 426 185 q 509 414 490 324 q 528 600 528 504 q 502 736 528 688 q 424 785 476 785 z "},"1":{"ha":686,"x_min":31,"x_max":563,"o":"m 56 121 l 243 121 l 364 718 l 204 718 l 224 813 q 340 840 290 824 q 433 883 389 857 l 546 883 l 392 121 l 563 121 l 539 0 l 31 0 l 56 121 z "},"2":{"ha":686,"x_min":-17,"x_max":647,"o":"m 0 86 q 213 265 119 186 q 371 410 307 344 q 468 535 435 476 q 501 656 501 594 q 470 745 501 710 q 376 781 439 781 q 296 760 336 781 q 214 701 256 739 l 140 790 q 265 872 203 843 q 394 900 328 900 q 581 837 514 900 q 647 672 647 774 q 620 541 647 603 q 541 416 593 479 q 413 283 489 353 q 239 126 336 213 l 578 126 l 554 0 l -17 0 l 0 86 z "},"3":{"ha":686,"x_min":-17,"x_max":654,"o":"m 78 217 q 162 136 113 168 q 269 104 211 104 q 403 147 353 104 q 454 258 454 189 q 442 316 454 290 q 403 360 431 342 q 330 390 375 379 q 217 400 285 400 l 239 508 q 366 522 315 508 q 447 558 417 536 q 490 610 478 581 q 503 668 503 639 q 472 749 503 718 q 379 781 442 781 q 222 718 304 781 l 149 815 q 275 880 211 860 q 406 900 339 900 q 588 844 521 900 q 654 693 654 788 q 608 547 654 608 q 457 454 561 486 l 457 449 q 566 373 529 422 q 603 260 603 324 q 578 143 603 194 q 508 56 553 92 q 403 2 464 21 q 269 -17 342 -17 q 108 25 183 -17 q -17 139 33 67 l 78 217 z "},"4":{"ha":686,"x_min":11,"x_max":650,"o":"m 336 0 l 382 229 l 11 229 l 31 332 l 476 883 l 650 883 l 542 346 l 650 346 l 628 229 l 519 229 l 474 0 l 336 0 m 404 346 l 447 556 q 467 647 456 600 q 490 742 479 694 l 485 742 q 433 663 458 701 q 381 589 407 624 l 183 346 l 404 346 z "},"5":{"ha":686,"x_min":-8,"x_max":681,"o":"m 88 215 q 163 136 119 168 q 272 104 206 104 q 344 118 310 104 q 405 158 379 132 q 447 222 431 185 q 463 306 463 260 q 425 415 463 379 q 322 451 388 451 q 287 449 303 451 q 256 442 271 447 q 223 428 240 436 q 183 408 206 421 l 125 456 l 235 883 l 681 883 l 656 758 l 339 758 l 279 542 q 326 558 301 553 q 379 564 350 564 q 472 549 429 564 q 545 506 514 535 q 594 433 576 476 q 613 331 613 389 q 583 186 613 250 q 506 77 554 122 q 397 8 458 32 q 268 -17 335 -17 q 111 24 181 -17 q -8 138 42 64 l 88 215 z "},"6":{"ha":686,"x_min":71,"x_max":704,"o":"m 339 96 q 401 114 374 96 q 449 160 429 132 q 481 224 469 189 q 492 296 492 260 q 463 400 492 363 q 375 438 433 438 q 301 417 344 438 q 211 340 257 397 q 210 310 210 325 q 210 279 210 294 q 245 145 210 194 q 339 96 281 96 m 608 704 q 558 759 586 739 q 489 779 529 779 q 401 757 443 779 q 325 693 360 735 q 264 590 290 651 q 224 451 238 529 q 319 520 267 497 q 413 543 372 543 q 569 485 508 543 q 629 313 629 426 q 607 188 629 247 q 544 83 585 129 q 449 10 504 38 q 331 -17 394 -17 q 223 6 271 -17 q 141 69 175 28 q 89 166 107 110 q 71 290 71 222 q 103 538 71 425 q 192 731 135 650 q 327 856 249 811 q 499 900 406 900 q 569 890 538 900 q 626 863 601 879 q 671 825 651 846 q 704 783 690 804 l 608 704 z "},"7":{"ha":686,"x_min":143,"x_max":735,"o":"m 153 0 q 219 224 183 119 q 300 422 254 329 q 405 598 346 515 q 542 758 464 681 l 143 758 l 168 883 l 735 883 l 717 789 q 547 599 615 694 q 433 406 479 504 q 358 207 388 308 q 307 0 329 106 l 153 0 l 153 0 z "},"8":{"ha":686,"x_min":50,"x_max":674,"o":"m 313 425 q 221 344 257 390 q 185 231 185 297 q 224 128 185 167 q 326 89 264 89 q 386 99 357 89 q 438 128 415 108 q 473 175 460 147 q 486 240 486 203 q 473 298 486 272 q 436 345 460 324 q 381 385 413 367 q 313 425 349 404 m 438 493 q 512 567 479 524 q 544 674 544 611 q 515 760 544 728 q 433 793 485 793 q 342 758 381 793 q 303 660 303 724 q 338 563 303 599 q 438 493 374 526 m 50 214 q 66 301 50 261 q 109 374 82 342 q 172 430 136 406 q 249 471 208 454 l 249 476 q 190 558 210 515 q 171 653 171 600 q 193 757 171 711 q 253 835 215 803 q 340 883 290 867 q 444 900 389 900 q 528 888 488 900 q 601 850 569 875 q 653 786 633 825 q 674 694 674 747 q 628 549 674 608 q 510 450 583 490 l 510 444 q 588 365 553 415 q 624 244 624 314 q 599 135 624 183 q 531 53 574 88 q 433 1 489 19 q 317 -17 378 -17 q 222 -3 269 -17 q 135 39 174 11 q 74 110 97 67 q 50 214 50 154 z "},"9":{"ha":686,"x_min":19,"x_max":654,"o":"m 350 446 q 424 467 381 446 q 514 546 468 488 q 515 575 515 561 q 515 604 515 589 q 480 738 515 689 q 386 788 444 788 q 323 769 351 788 q 274 723 294 751 q 243 658 254 694 q 232 588 232 622 q 262 483 232 521 q 350 446 292 446 m 117 179 q 166 124 138 144 q 235 104 194 104 q 322 126 281 104 q 399 191 364 149 q 460 294 433 233 q 501 433 486 356 q 406 364 460 388 q 313 340 353 340 q 156 399 217 340 q 94 571 94 458 q 117 694 94 635 q 179 800 139 754 q 274 873 219 846 q 393 900 328 900 q 501 877 453 900 q 584 814 550 854 q 636 717 618 774 q 654 593 654 661 q 622 345 654 457 q 532 153 589 233 q 397 28 475 72 q 225 -17 318 -17 q 155 -6 186 -17 q 99 21 124 4 q 53 58 74 38 q 19 100 33 79 l 117 179 z "},"\u0000":{"ha":0,"x_min":0,"x_max":0,"o":""},"\r":{"ha":271,"x_min":0,"x_max":0,"o":""}," ":{"ha":271,"x_min":0,"x_max":0,"o":""},"A":{"ha":735,"x_min":-81,"x_max":681,"o":"m 499 369 l 489 507 q 480 646 485 578 q 472 789 475 714 l 467 789 q 402 646 433 714 q 335 507 371 578 l 267 369 l 499 369 m 507 256 l 211 256 l 85 0 l -81 0 l 406 908 l 583 908 l 681 0 l 525 0 l 507 256 z "},"B":{"ha":825,"x_min":44,"x_max":779,"o":"m 225 908 l 486 908 q 699 858 619 908 q 779 704 779 807 q 763 624 779 661 q 720 558 747 588 q 657 508 693 529 q 579 478 621 488 l 578 472 q 695 411 651 454 q 739 294 739 368 q 709 160 739 217 q 627 69 679 104 q 505 17 575 33 q 354 0 435 0 l 44 0 l 225 908 m 410 528 q 574 569 522 528 q 626 681 626 611 q 585 763 626 733 q 456 792 543 792 l 353 792 l 299 528 l 410 528 m 354 117 q 531 158 467 117 q 594 288 594 200 q 550 386 594 350 q 418 422 506 422 l 278 422 l 217 117 l 354 117 z "},"C":{"ha":776,"x_min":79,"x_max":788,"o":"m 79 357 q 115 572 79 469 q 213 753 150 675 q 364 878 276 832 q 556 925 451 925 q 693 887 635 925 q 788 786 751 849 l 685 707 q 625 772 658 749 q 547 796 592 796 q 420 758 478 796 q 321 660 363 721 q 256 524 279 600 q 232 368 232 447 q 244 264 232 311 q 281 183 256 217 q 347 131 307 150 q 442 113 386 113 q 533 133 490 113 q 615 188 575 154 l 681 92 q 567 17 635 51 q 413 -17 500 -17 q 273 10 335 -17 q 168 85 211 36 q 102 202 125 133 q 79 357 79 271 z "},"D":{"ha":839,"x_min":44,"x_max":803,"o":"m 225 908 l 410 908 q 701 817 600 908 q 803 553 803 726 q 767 321 803 424 q 667 147 732 218 q 512 38 603 76 q 308 0 421 0 l 44 0 l 225 908 m 306 121 q 445 149 382 121 q 554 232 508 178 q 625 365 600 286 q 650 543 650 443 q 586 726 650 665 q 406 788 522 788 l 350 788 l 218 121 l 306 121 z "},"E":{"ha":715,"x_min":44,"x_max":746,"o":"m 225 908 l 746 908 l 721 782 l 349 782 l 300 538 l 615 538 l 590 411 l 276 411 l 218 126 l 601 126 l 576 0 l 44 0 l 225 908 z "},"F":{"ha":679,"x_min":44,"x_max":746,"o":"m 225 908 l 746 908 l 721 782 l 349 782 l 296 514 l 611 514 l 586 388 l 272 388 l 194 0 l 44 0 l 225 908 z "},"G":{"ha":833,"x_min":79,"x_max":810,"o":"m 79 357 q 115 573 79 469 q 215 754 150 676 q 369 878 279 832 q 569 925 460 925 q 714 887 654 925 q 810 786 774 849 l 707 707 q 646 772 681 749 q 561 796 611 796 q 426 758 488 796 q 322 660 365 721 q 256 524 279 600 q 232 368 232 447 q 244 265 232 311 q 282 183 256 218 q 350 130 308 149 q 451 111 392 111 q 522 123 490 111 q 578 154 554 135 l 622 368 l 454 368 l 478 490 l 779 490 l 697 76 q 578 10 647 36 q 426 -17 510 -17 q 169 83 260 -17 q 79 357 79 183 z "},"H":{"ha":886,"x_min":44,"x_max":883,"o":"m 225 908 l 375 908 l 300 540 l 660 540 l 733 908 l 883 908 l 701 0 l 551 0 l 635 410 l 275 410 l 194 0 l 44 0 l 225 908 z "},"I":{"ha":379,"x_min":44,"x_max":375,"o":"m 225 908 l 375 908 l 194 0 l 44 0 l 225 908 z "},"J":{"ha":658,"x_min":-7,"x_max":663,"o":"m 535 269 q 499 156 524 208 q 438 66 475 104 q 350 6 401 28 q 233 -17 299 -17 q 90 20 153 -17 q -7 122 28 57 l 88 210 q 144 140 107 167 q 233 113 181 113 q 334 159 296 113 q 390 293 372 206 l 513 908 l 663 908 l 535 269 l 535 269 z "},"K":{"ha":808,"x_min":44,"x_max":861,"o":"m 225 908 l 375 908 l 293 497 l 299 497 l 696 908 l 861 908 l 526 547 l 731 0 l 575 0 l 415 453 l 251 286 l 194 0 l 44 0 l 225 908 z "},"L":{"ha":668,"x_min":44,"x_max":582,"o":"m 225 908 l 375 908 l 219 126 l 582 126 l 557 0 l 44 0 l 225 908 z "},"M":{"ha":1004,"x_min":44,"x_max":1001,"o":"m 225 908 l 392 908 l 464 454 l 490 279 l 496 279 l 586 454 l 836 908 l 1001 908 l 819 0 l 678 0 l 768 436 q 784 505 775 468 q 803 579 793 542 q 822 653 813 617 q 842 721 832 689 l 838 721 l 726 515 l 486 89 l 417 89 l 342 515 l 313 721 l 307 721 q 291 578 300 657 q 269 436 282 500 l 182 0 l 44 0 l 225 908 z "},"N":{"ha":876,"x_min":44,"x_max":875,"o":"m 225 908 l 372 908 l 550 382 l 603 186 l 608 186 q 625 339 617 257 q 649 496 633 421 l 731 908 l 875 908 l 693 0 l 547 0 l 371 525 l 318 724 l 313 724 q 294 571 304 650 q 269 417 285 492 l 188 0 l 44 0 l 225 908 z "},"O":{"ha":899,"x_min":81,"x_max":861,"o":"m 408 -17 q 271 10 332 -17 q 167 86 210 36 q 103 207 125 136 q 81 365 81 278 q 116 579 81 478 q 213 758 151 681 q 356 880 274 835 q 533 925 439 925 q 671 899 610 925 q 774 822 732 872 q 839 701 817 772 q 861 543 861 631 q 826 329 861 431 q 731 151 792 228 q 587 28 669 74 q 408 -17 504 -17 m 525 796 q 411 760 464 796 q 319 665 358 724 q 258 531 281 607 q 235 376 235 456 q 280 183 235 254 q 417 113 325 113 q 530 149 476 113 q 623 243 583 185 q 685 377 663 301 q 708 532 708 453 q 663 725 708 654 q 525 796 617 796 z "},"P":{"ha":788,"x_min":44,"x_max":796,"o":"m 225 908 l 497 908 q 617 896 563 908 q 712 855 672 883 q 774 783 751 826 q 796 676 796 739 q 765 524 796 588 q 678 419 733 460 q 549 360 624 379 q 388 340 474 340 l 261 340 l 194 0 l 44 0 l 225 908 m 400 460 q 584 509 521 460 q 647 656 647 558 q 601 758 647 726 q 469 789 556 789 l 350 789 l 286 460 l 400 460 z "},"Q":{"ha":899,"x_min":81,"x_max":861,"o":"m 525 796 q 411 760 464 796 q 319 665 358 724 q 258 531 281 607 q 235 376 235 456 q 280 183 235 254 q 417 113 325 113 q 530 149 476 113 q 623 243 583 185 q 685 377 663 301 q 708 532 708 453 q 663 725 708 654 q 525 796 617 796 m 756 -217 q 705 -230 732 -225 q 654 -235 678 -235 q 437 -178 526 -235 q 306 -3 347 -121 q 140 124 199 29 q 81 365 81 219 q 116 579 81 478 q 213 758 151 681 q 356 880 274 835 q 533 925 439 925 q 671 899 610 925 q 774 822 732 872 q 839 701 817 772 q 861 543 861 631 q 831 344 861 439 q 747 174 800 249 q 620 49 693 99 q 461 -12 547 0 q 543 -89 489 -65 q 664 -112 597 -112 q 708 -110 688 -112 q 747 -101 728 -107 l 756 -217 z "},"R":{"ha":800,"x_min":44,"x_max":790,"o":"m 406 478 q 582 528 522 478 q 642 665 642 579 q 597 760 642 732 q 464 789 551 789 l 350 789 l 290 478 l 406 478 m 493 908 q 613 897 558 908 q 706 858 667 885 q 768 788 746 831 q 790 686 790 746 q 772 572 790 622 q 719 482 753 521 q 641 417 686 443 q 542 376 596 390 l 692 0 l 532 0 l 400 358 l 265 358 l 194 0 l 44 0 l 225 908 l 493 908 z "},"S":{"ha":719,"x_min":11,"x_max":725,"o":"m 119 232 q 215 144 160 176 q 338 111 271 111 q 454 148 408 111 q 500 249 500 185 q 470 320 500 292 q 390 379 440 349 l 294 438 q 196 526 235 474 q 157 658 157 578 q 180 761 157 713 q 244 847 203 810 q 340 904 285 883 q 458 925 394 925 q 608 888 540 925 q 725 792 676 851 l 629 704 q 551 769 594 743 q 450 796 507 796 q 347 758 383 796 q 311 674 311 721 q 342 602 311 629 q 426 543 374 575 l 524 485 q 623 397 590 446 q 656 269 656 349 q 632 156 656 208 q 565 65 608 104 q 460 5 521 26 q 325 -17 399 -17 q 153 22 233 -17 q 11 149 74 61 l 119 232 z "},"T":{"ha":724,"x_min":122,"x_max":800,"o":"m 374 781 l 122 781 l 147 908 l 800 908 l 775 781 l 524 781 l 368 0 l 218 0 l 374 781 z "},"U":{"ha":875,"x_min":107,"x_max":878,"o":"m 221 908 l 371 908 l 269 400 q 257 293 257 342 q 294 159 257 206 q 418 113 332 113 q 542 171 490 113 q 622 367 594 229 l 731 908 l 878 908 l 768 367 q 638 74 728 164 q 413 -17 547 -17 q 184 58 261 -17 q 107 285 107 133 q 112 351 107 315 q 124 422 117 388 l 221 908 z "},"V":{"ha":731,"x_min":111,"x_max":843,"o":"m 111 908 l 267 908 l 297 433 q 306 286 301 360 q 313 138 310 213 l 318 138 q 385 285 351 211 q 453 433 419 360 l 681 908 l 843 908 l 372 0 l 192 0 l 111 908 z "},"W":{"ha":1076,"x_min":119,"x_max":1156,"o":"m 142 908 l 294 908 l 274 442 q 264 295 268 368 q 253 147 260 222 l 258 147 q 321 296 289 222 q 382 442 353 369 l 589 908 l 718 908 l 726 442 q 722 147 726 294 l 728 147 q 782 296 754 222 q 836 442 810 369 l 1011 908 l 1156 908 l 792 0 l 603 0 l 600 494 q 603 598 600 542 q 608 707 606 654 l 603 707 q 562 601 583 654 q 518 494 540 547 l 306 0 l 119 0 l 142 908 z "},"X":{"ha":728,"x_min":-50,"x_max":800,"o":"m 293 469 l 147 908 l 313 908 l 374 697 q 390 633 382 665 q 408 561 397 600 l 414 561 q 460 633 438 599 q 503 700 483 668 l 640 908 l 800 908 l 475 461 l 633 0 l 468 0 l 401 226 q 381 296 390 261 q 361 369 372 331 l 357 369 q 307 294 331 331 q 261 222 283 258 l 110 0 l -50 0 l 293 469 z "},"Y":{"ha":675,"x_min":114,"x_max":792,"o":"m 260 342 l 114 908 l 268 908 l 319 669 q 339 569 331 617 q 358 469 347 522 l 364 469 q 422 571 394 522 q 482 671 450 619 l 631 908 l 792 908 l 410 342 l 342 0 l 192 0 l 260 342 z "},"Z":{"ha":721,"x_min":-4,"x_max":761,"o":"m 15 90 l 557 782 l 171 782 l 196 908 l 761 908 l 743 818 l 206 126 l 631 126 l 604 0 l -4 0 l 15 90 z "},"a":{"ha":756,"x_min":49,"x_max":724,"o":"m 49 232 q 79 415 49 329 q 161 563 110 500 q 278 663 213 626 q 415 699 344 699 q 507 673 465 699 q 572 603 549 647 l 575 603 l 604 682 l 724 682 l 588 0 l 465 0 l 472 94 l 468 94 q 360 14 419 44 q 243 -17 301 -17 q 101 47 153 -17 q 49 232 49 111 m 304 106 q 395 132 349 106 q 483 221 442 158 l 539 493 q 485 557 515 538 q 424 576 456 576 q 340 551 381 576 q 269 481 300 525 q 221 377 239 436 q 203 253 203 318 q 230 142 203 178 q 304 106 257 106 z "},"b":{"ha":757,"x_min":31,"x_max":706,"o":"m 31 0 l 228 981 l 376 981 l 328 739 l 294 608 l 297 608 q 400 673 346 647 q 511 699 454 699 q 654 635 603 699 q 706 450 706 572 q 675 267 706 351 q 593 119 644 182 q 476 19 542 56 q 340 -17 411 -17 q 249 9 289 -17 q 186 79 210 35 l 183 79 l 154 0 l 31 0 m 450 576 q 363 552 410 576 q 276 478 315 528 l 218 189 q 269 125 240 144 q 331 106 299 106 q 414 131 374 106 q 485 201 454 157 q 534 305 515 246 q 553 431 553 364 q 525 541 553 506 q 450 576 497 576 z "},"c":{"ha":610,"x_min":46,"x_max":617,"o":"m 46 261 q 77 433 46 353 q 162 572 108 513 q 287 665 215 631 q 438 699 358 699 q 544 674 500 699 q 617 615 589 649 l 533 525 q 486 565 510 553 q 428 578 463 578 q 340 553 382 578 q 267 485 299 528 q 217 387 236 443 q 199 267 199 331 q 233 147 199 189 q 336 104 267 104 q 408 120 376 104 q 465 157 439 136 l 529 63 q 437 9 490 35 q 306 -17 383 -17 q 201 2 249 -17 q 119 56 154 21 q 65 143 85 92 q 46 261 46 194 z "},"d":{"ha":750,"x_min":49,"x_max":785,"o":"m 589 739 l 636 981 l 785 981 l 588 0 l 465 0 l 472 94 l 468 94 q 360 14 419 44 q 243 -17 301 -17 q 101 47 153 -17 q 49 232 49 111 q 79 415 49 329 q 161 563 110 500 q 278 663 213 626 q 415 699 344 699 q 504 674 465 699 q 565 608 543 649 l 569 608 l 589 739 m 304 106 q 394 132 349 106 q 483 221 440 158 l 539 493 q 485 557 515 538 q 424 576 456 576 q 340 551 381 576 q 269 481 300 525 q 221 377 239 436 q 203 253 203 318 q 230 142 203 178 q 304 106 257 106 z "},"e":{"ha":678,"x_min":46,"x_max":635,"o":"m 46 272 q 78 447 46 368 q 165 581 111 525 q 285 668 218 638 q 418 699 351 699 q 519 679 478 699 q 585 626 560 660 q 623 546 611 592 q 635 447 635 500 q 624 361 635 403 q 606 303 613 319 l 190 303 q 196 210 185 249 q 230 146 207 171 q 286 109 253 121 q 358 97 319 97 q 432 114 394 97 q 497 151 469 131 l 553 56 q 452 5 511 26 q 319 -17 393 -17 q 208 3 258 -17 q 122 59 158 22 q 66 149 86 96 q 46 272 46 203 m 504 397 q 509 426 507 411 q 511 457 511 440 q 487 545 511 507 q 400 583 463 583 q 283 534 338 583 q 203 397 228 485 l 504 397 z "},"f":{"ha":424,"x_min":56,"x_max":583,"o":"m 103 675 l 193 682 l 208 761 q 288 931 229 865 q 449 997 346 997 q 521 988 488 997 q 583 963 554 978 l 533 857 q 502 871 521 864 q 463 878 483 878 q 394 851 421 878 q 357 765 368 824 l 340 682 l 469 682 l 446 564 l 315 564 l 204 0 l 56 0 l 168 564 l 81 564 l 103 675 z "},"g":{"ha":747,"x_min":-10,"x_max":715,"o":"m 715 682 l 576 -10 q 460 -228 547 -154 q 236 -303 372 -303 q 108 -278 171 -303 q -10 -208 44 -253 l 57 -108 q 142 -162 96 -140 q 240 -183 188 -183 q 365 -138 318 -183 q 435 -11 413 -93 l 468 115 l 464 115 q 362 42 415 69 q 247 14 308 14 q 105 74 161 14 q 49 254 49 135 q 78 428 49 347 q 158 569 108 508 q 273 664 208 629 q 407 699 338 699 q 498 673 457 699 q 561 603 539 647 l 565 603 l 594 682 l 715 682 m 301 138 q 390 162 342 138 q 478 240 438 186 l 529 493 q 476 557 506 538 q 415 576 447 576 q 335 552 374 576 q 267 486 297 528 q 220 390 238 444 q 203 274 203 335 q 230 171 203 204 q 301 138 257 138 z "},"h":{"ha":740,"x_min":31,"x_max":682,"o":"m 228 981 l 376 981 l 317 692 l 290 593 l 296 593 q 403 668 349 638 q 521 699 458 699 q 644 654 607 699 q 682 526 682 610 q 680 481 682 503 q 671 431 678 458 l 585 0 l 436 0 l 519 411 q 527 451 524 435 q 531 483 531 468 q 444 571 531 571 q 367 546 408 571 q 272 465 326 521 l 181 0 l 31 0 l 228 981 z "},"i":{"ha":349,"x_min":31,"x_max":378,"o":"m 168 682 l 317 682 l 181 0 l 31 0 l 168 682 m 278 803 q 219 823 246 803 q 193 881 193 843 q 222 949 193 921 q 293 978 251 978 q 351 958 325 978 q 378 900 378 938 q 349 831 378 858 q 278 803 319 803 z "},"j":{"ha":350,"x_min":-178,"x_max":381,"o":"m 171 -53 q 142 -146 160 -103 q 97 -220 124 -189 q 31 -269 69 -251 q -58 -286 -7 -286 q -121 -280 -93 -286 q -178 -258 -149 -274 l -131 -150 q -69 -167 -104 -167 q -12 -137 -32 -167 q 22 -50 8 -108 l 169 682 l 318 682 l 171 -53 m 281 803 q 221 823 247 803 q 194 881 194 843 q 224 949 194 921 q 294 978 253 978 q 354 958 328 978 q 381 900 381 938 q 351 831 381 858 q 281 803 321 803 z "},"k":{"ha":696,"x_min":31,"x_max":726,"o":"m 228 981 l 376 981 l 253 364 l 258 364 l 560 682 l 726 682 l 451 390 l 614 0 l 464 0 l 347 303 l 214 168 l 181 0 l 31 0 l 228 981 z "},"l":{"ha":364,"x_min":56,"x_max":376,"o":"m 228 981 l 376 981 l 213 160 q 210 143 210 149 q 210 133 210 138 q 233 104 210 104 q 244 105 240 104 q 258 108 249 106 l 256 -3 q 219 -13 240 -10 q 171 -17 199 -17 q 83 13 111 -17 q 56 94 56 42 q 65 167 56 126 l 228 981 z "},"m":{"ha":1129,"x_min":31,"x_max":1064,"o":"m 167 682 l 288 682 l 281 586 l 286 586 q 396 665 339 632 q 508 699 453 699 q 575 689 547 699 q 622 663 603 679 q 651 623 640 646 q 667 572 661 600 q 788 665 728 631 q 903 699 847 699 q 1026 654 988 699 q 1064 526 1064 610 q 1061 481 1064 503 q 1053 431 1058 458 l 967 0 l 817 0 l 900 411 q 908 451 906 435 q 911 483 911 468 q 828 571 911 571 q 760 546 801 571 q 665 465 718 521 l 572 0 l 424 0 l 506 411 q 514 451 511 435 q 517 483 517 468 q 435 571 517 571 q 365 546 407 571 q 272 465 324 521 l 181 0 l 31 0 l 167 682 z "},"n":{"ha":749,"x_min":31,"x_max":682,"o":"m 167 682 l 288 682 l 281 586 l 286 586 q 398 665 340 632 q 521 699 456 699 q 644 654 607 699 q 682 526 682 610 q 680 481 682 503 q 671 431 678 458 l 585 0 l 436 0 l 519 411 q 527 451 524 435 q 531 483 531 468 q 444 571 531 571 q 367 546 408 571 q 272 465 326 521 l 181 0 l 31 0 l 167 682 z "},"o":{"ha":728,"x_min":47,"x_max":678,"o":"m 301 -17 q 197 3 244 -17 q 117 58 150 22 q 65 146 83 94 q 47 261 47 197 q 80 440 47 358 q 165 578 113 521 q 285 667 218 635 q 422 699 353 699 q 608 624 539 699 q 678 421 678 550 q 645 243 678 324 q 560 105 613 163 q 440 15 507 47 q 301 -17 372 -17 m 407 578 q 328 553 367 578 q 261 488 290 529 q 215 389 232 446 q 197 267 197 332 q 228 147 197 189 q 318 104 258 104 q 396 128 358 104 q 463 195 433 153 q 509 294 492 238 q 526 417 526 351 q 496 536 526 494 q 407 578 465 578 z "},"p":{"ha":756,"x_min":-24,"x_max":706,"o":"m 164 -67 l 125 -269 l -24 -269 l 168 682 l 289 682 l 286 599 l 290 599 q 396 670 339 642 q 511 699 453 699 q 654 635 603 699 q 706 450 706 571 q 675 267 706 351 q 593 119 644 182 q 476 19 542 56 q 340 -17 411 -17 q 253 8 292 -17 q 189 72 214 32 l 186 72 l 164 -67 m 450 576 q 363 552 410 576 q 276 478 315 528 l 218 186 q 269 124 240 143 q 331 106 299 106 q 414 131 374 106 q 485 201 454 157 q 534 305 515 246 q 553 431 553 364 q 525 541 553 506 q 450 576 497 576 z "},"q":{"ha":756,"x_min":49,"x_max":724,"o":"m 472 96 l 469 96 q 361 15 421 46 q 243 -17 301 -17 q 101 47 153 -17 q 49 232 49 111 q 79 415 49 329 q 161 563 110 500 q 278 663 213 626 q 415 699 344 699 q 507 673 465 699 q 572 603 549 647 l 575 603 l 604 682 l 724 682 l 533 -269 l 383 -269 l 425 -67 l 472 96 m 304 106 q 392 132 344 106 q 483 221 440 158 l 539 493 q 485 557 515 538 q 424 576 456 576 q 340 551 381 576 q 269 481 300 525 q 221 377 239 436 q 203 253 203 318 q 230 142 203 178 q 304 106 257 106 z "},"r":{"ha":504,"x_min":31,"x_max":560,"o":"m 167 682 l 288 682 l 275 550 l 281 550 q 375 656 321 614 q 492 699 429 699 q 560 686 532 699 l 510 556 q 481 565 497 563 q 446 567 464 567 q 350 529 397 567 q 261 413 303 492 l 181 0 l 31 0 l 167 682 z "},"s":{"ha":574,"x_min":-8,"x_max":556,"o":"m 81 186 q 155 118 114 142 q 242 94 196 94 q 326 120 290 94 q 361 183 361 146 q 332 238 361 215 q 239 297 303 261 q 132 379 171 335 q 93 486 93 424 q 113 572 93 532 q 166 639 132 611 q 245 683 200 667 q 342 699 290 699 q 462 671 408 699 q 556 601 515 643 l 472 522 q 414 567 446 549 q 342 586 382 586 q 264 561 294 586 q 233 500 233 536 q 243 467 233 481 q 269 440 253 453 q 307 417 286 428 q 350 393 328 406 q 464 308 426 353 q 501 201 501 264 q 481 111 501 151 q 425 42 461 71 q 339 -1 389 14 q 231 -17 289 -17 q 165 -7 199 -17 q 99 19 131 3 q 39 60 67 36 q -8 114 11 85 l 81 186 z "},"t":{"ha":481,"x_min":74,"x_max":507,"o":"m 169 564 l 74 564 l 96 675 l 200 682 l 254 865 l 379 865 l 343 682 l 507 682 l 483 564 l 317 564 l 247 225 q 243 176 243 200 q 261 120 243 139 q 322 101 279 101 q 356 107 340 101 q 386 119 371 113 l 414 14 q 353 -7 389 3 q 269 -17 317 -17 q 133 31 174 -17 q 92 150 92 79 q 94 190 92 171 q 100 231 97 210 l 169 564 z "},"u":{"ha":746,"x_min":65,"x_max":711,"o":"m 576 0 l 456 0 l 461 97 l 456 97 q 347 17 404 51 q 228 -17 290 -17 q 103 28 142 -17 q 65 156 65 74 q 68 202 65 179 q 76 251 71 225 l 163 682 l 311 682 l 229 271 q 221 231 224 247 q 218 199 218 214 q 303 111 218 111 q 471 217 371 111 l 563 682 l 711 682 l 576 0 z "},"v":{"ha":658,"x_min":82,"x_max":706,"o":"m 82 682 l 231 682 l 267 319 q 275 217 272 268 q 281 113 278 165 l 286 113 q 334 216 310 165 q 382 319 358 267 l 558 682 l 706 682 l 350 0 l 175 0 l 82 682 z "},"w":{"ha":1011,"x_min":99,"x_max":1026,"o":"m 99 682 l 246 682 l 257 317 q 257 219 258 268 q 256 121 256 171 l 261 121 q 299 219 281 171 q 340 317 318 268 l 499 682 l 635 682 l 653 317 q 654 219 654 268 q 656 121 654 171 l 661 121 q 698 219 681 171 q 736 317 715 268 l 888 682 l 1026 682 l 726 0 l 549 0 l 536 328 q 535 426 536 376 q 535 529 535 476 l 529 529 q 491 426 510 476 q 453 328 472 376 l 313 0 l 139 0 l 99 682 z "},"x":{"ha":639,"x_min":-58,"x_max":692,"o":"m 239 364 l 115 682 l 267 682 l 317 549 q 335 490 326 518 q 353 433 343 463 l 358 433 q 398 490 378 461 q 438 549 418 519 l 532 682 l 692 682 l 418 331 l 550 0 l 397 0 l 346 139 q 324 201 335 169 q 301 261 313 232 l 296 261 q 255 202 276 232 q 210 140 233 172 l 103 0 l -58 0 l 239 364 z "},"y":{"ha":658,"x_min":-67,"x_max":710,"o":"m -19 -147 q 31 -161 4 -161 q 115 -127 75 -161 q 183 -35 156 -93 l 204 7 l 86 682 l 235 682 l 278 338 q 288 237 283 292 q 294 133 292 182 l 300 133 q 348 235 324 182 q 396 338 372 289 l 565 682 l 710 682 l 326 -36 q 262 -137 294 -92 q 193 -214 229 -182 q 115 -263 157 -246 q 21 -281 72 -281 q -22 -274 4 -281 q -67 -256 -47 -267 l -19 -147 l -19 -147 z "},"z":{"ha":593,"x_min":-14,"x_max":619,"o":"m 3 85 l 408 564 l 131 564 l 154 682 l 619 682 l 603 596 l 196 118 l 517 118 l 493 0 l -14 0 l 3 85 z "},"À":{"ha":735,"x_min":-81,"x_max":681,"o":"m 499 369 l 489 507 q 480 646 485 578 q 472 789 475 714 l 467 789 q 402 646 433 714 q 335 507 371 578 l 267 369 l 499 369 m 507 256 l 211 256 l 85 0 l -81 0 l 406 908 l 583 908 l 681 0 l 525 0 l 507 256 m 326 1136 l 479 1136 l 567 978 l 451 978 l 326 1136 z "},"Á":{"ha":735,"x_min":-81,"x_max":711,"o":"m 499 369 l 489 507 q 480 646 485 578 q 472 789 475 714 l 467 789 q 402 646 433 714 q 335 507 371 578 l 267 369 l 499 369 m 507 256 l 211 256 l 85 0 l -81 0 l 406 908 l 583 908 l 681 0 l 525 0 l 507 256 m 546 1136 l 711 1136 l 526 978 l 401 978 l 546 1136 z "},"Â":{"ha":735,"x_min":-81,"x_max":686,"o":"m 499 369 l 489 507 q 480 646 485 578 q 472 789 475 714 l 467 789 q 402 646 433 714 q 335 507 371 578 l 267 369 l 499 369 m 507 256 l 211 256 l 85 0 l -81 0 l 406 908 l 583 908 l 681 0 l 525 0 l 507 256 m 446 1136 l 590 1136 l 686 978 l 575 978 l 511 1069 l 507 1069 l 410 978 l 288 978 l 446 1136 z "},"Ã":{"ha":735,"x_min":-81,"x_max":726,"o":"m 499 369 l 489 507 q 480 646 485 578 q 472 789 475 714 l 467 789 q 402 646 433 714 q 335 507 371 578 l 267 369 l 499 369 m 507 256 l 211 256 l 85 0 l -81 0 l 406 908 l 583 908 l 681 0 l 525 0 l 507 256 m 279 982 q 341 1101 299 1057 q 432 1146 383 1146 q 479 1135 460 1146 q 515 1110 499 1124 q 547 1086 531 1097 q 583 1075 563 1075 q 646 1143 621 1075 l 726 1143 q 665 1024 707 1068 q 575 979 624 979 q 526 990 546 979 q 491 1015 507 1001 q 460 1039 475 1028 q 424 1050 444 1050 q 360 982 385 1050 l 279 982 z "},"Ä":{"ha":735,"x_min":-81,"x_max":706,"o":"m 499 369 l 489 507 q 480 646 485 578 q 472 789 475 714 l 467 789 q 402 646 433 714 q 335 507 371 578 l 267 369 l 499 369 m 507 256 l 211 256 l 85 0 l -81 0 l 406 908 l 583 908 l 681 0 l 525 0 l 507 256 m 372 983 q 324 1001 343 983 q 304 1051 304 1019 q 329 1114 304 1086 q 390 1142 354 1142 q 438 1124 418 1142 q 458 1074 458 1106 q 433 1012 458 1040 q 372 983 408 983 m 619 983 q 571 1001 590 983 q 551 1051 551 1019 q 576 1114 551 1086 q 638 1142 601 1142 q 685 1124 665 1142 q 706 1074 706 1106 q 681 1012 706 1040 q 619 983 656 983 z "},"Ā":{"ha":735,"x_min":-81,"x_max":688,"o":"m 499 369 l 489 507 q 480 646 485 578 q 472 789 475 714 l 467 789 q 402 646 433 714 q 335 507 371 578 l 267 369 l 499 369 m 507 256 l 211 256 l 85 0 l -81 0 l 406 908 l 583 908 l 681 0 l 525 0 l 507 256 m 338 1106 l 688 1106 l 668 1006 l 318 1006 l 338 1106 z "},"Ă":{"ha":735,"x_min":-81,"x_max":689,"o":"m 499 369 l 489 507 q 480 646 485 578 q 472 789 475 714 l 467 789 q 402 646 433 714 q 335 507 371 578 l 267 369 l 499 369 m 507 256 l 211 256 l 85 0 l -81 0 l 406 908 l 583 908 l 681 0 l 525 0 l 507 256 m 488 978 q 421 990 449 978 q 376 1024 393 1003 q 351 1075 358 1046 q 347 1136 344 1104 l 429 1136 q 444 1080 426 1103 q 501 1057 463 1057 q 567 1081 542 1057 q 604 1136 592 1104 l 689 1136 q 661 1074 678 1103 q 620 1024 644 1046 q 563 990 596 1003 q 488 978 531 978 z "},"Å":{"ha":735,"x_min":-81,"x_max":681,"o":"m 499 369 l 489 507 q 480 646 485 578 q 472 789 475 714 l 467 789 q 402 646 433 714 q 335 507 371 578 l 267 369 l 499 369 m 507 256 l 211 256 l 85 0 l -81 0 l 406 908 l 583 908 l 681 0 l 525 0 l 507 256 m 501 968 q 410 995 449 968 q 372 1082 372 1022 q 384 1138 372 1111 q 416 1185 396 1165 q 463 1216 436 1204 q 519 1228 489 1228 q 610 1199 572 1228 q 649 1113 649 1171 q 637 1056 649 1082 q 605 1010 625 1029 q 558 979 585 990 q 501 968 532 968 m 517 1165 q 469 1142 489 1165 q 449 1089 449 1119 q 463 1047 449 1063 q 504 1031 476 1031 q 552 1053 532 1031 q 572 1107 572 1075 q 558 1149 572 1132 q 517 1165 543 1165 z "},"Ǎ":{"ha":735,"x_min":-81,"x_max":718,"o":"m 499 369 l 489 507 q 480 646 485 578 q 472 789 475 714 l 467 789 q 402 646 433 714 q 335 507 371 578 l 267 369 l 499 369 m 507 256 l 211 256 l 85 0 l -81 0 l 406 908 l 583 908 l 681 0 l 525 0 l 507 256 m 560 978 l 417 978 l 319 1136 l 431 1136 l 494 1044 l 499 1044 l 597 1136 l 718 1136 l 560 978 z "},"Ạ":{"ha":735,"x_min":-81,"x_max":681,"o":"m 499 369 l 489 507 q 480 646 485 578 q 472 789 475 714 l 467 789 q 402 646 433 714 q 335 507 371 578 l 267 369 l 499 369 m 507 256 l 211 256 l 85 0 l -81 0 l 406 908 l 583 908 l 681 0 l 525 0 l 507 256 m 271 -297 q 213 -277 239 -297 q 186 -219 186 -257 q 215 -151 186 -179 q 286 -122 244 -122 q 344 -142 318 -122 q 371 -200 371 -162 q 342 -269 371 -242 q 271 -297 313 -297 z "},"Ả":{"ha":735,"x_min":-81,"x_max":681,"o":"m 499 369 l 489 507 q 480 646 485 578 q 472 789 475 714 l 467 789 q 402 646 433 714 q 335 507 371 578 l 267 369 l 499 369 m 507 256 l 211 256 l 85 0 l -81 0 l 406 908 l 583 908 l 681 0 l 525 0 l 507 256 m 446 1217 q 585 1184 544 1213 q 626 1115 626 1156 q 612 1055 626 1081 q 571 1011 597 1029 q 510 981 544 993 q 436 964 475 969 l 429 1026 q 490 1049 468 1036 q 513 1089 513 1063 q 492 1122 513 1110 q 415 1138 472 1135 l 446 1217 z "},"Ấ":{"ha":735,"x_min":-81,"x_max":886,"o":"m 499 369 l 489 507 q 480 646 485 578 q 472 789 475 714 l 467 789 q 402 646 433 714 q 335 507 371 578 l 267 369 l 499 369 m 507 256 l 211 256 l 85 0 l -81 0 l 406 908 l 583 908 l 681 0 l 525 0 l 507 256 m 769 1226 l 886 1226 l 742 1067 l 654 1067 l 769 1226 m 458 1128 l 586 1128 l 682 978 l 574 978 l 513 1060 l 507 1060 l 414 978 l 304 978 l 458 1128 z "},"Ầ":{"ha":735,"x_min":-81,"x_max":792,"o":"m 499 369 l 489 507 q 480 646 485 578 q 472 789 475 714 l 467 789 q 402 646 433 714 q 335 507 371 578 l 267 369 l 499 369 m 507 256 l 211 256 l 85 0 l -81 0 l 406 908 l 583 908 l 681 0 l 525 0 l 507 256 m 792 1067 l 704 1067 l 618 1226 l 735 1226 l 792 1067 m 458 1128 l 586 1128 l 682 978 l 574 978 l 513 1060 l 507 1060 l 414 978 l 304 978 l 458 1128 z "},"Ẩ":{"ha":735,"x_min":-81,"x_max":836,"o":"m 499 369 l 489 507 q 480 646 485 578 q 472 789 475 714 l 467 789 q 402 646 433 714 q 335 507 371 578 l 267 369 l 499 369 m 507 256 l 211 256 l 85 0 l -81 0 l 406 908 l 583 908 l 681 0 l 525 0 l 507 256 m 458 1128 l 586 1128 l 682 978 l 574 978 l 513 1060 l 507 1060 l 414 978 l 304 978 l 458 1128 m 679 1263 q 801 1235 767 1260 q 836 1175 836 1211 q 792 1083 836 1113 q 676 1043 747 1054 l 669 1096 q 720 1118 703 1104 q 738 1156 738 1132 q 719 1184 738 1174 q 653 1197 701 1194 l 679 1263 z "},"Ẫ":{"ha":735,"x_min":-81,"x_max":747,"o":"m 499 369 l 489 507 q 480 646 485 578 q 472 789 475 714 l 467 789 q 402 646 433 714 q 335 507 371 578 l 267 369 l 499 369 m 507 256 l 211 256 l 85 0 l -81 0 l 406 908 l 583 908 l 681 0 l 525 0 l 507 256 m 458 1128 l 586 1128 l 682 978 l 574 978 l 513 1060 l 507 1060 l 414 978 l 304 978 l 458 1128 m 342 1176 q 399 1282 361 1244 q 481 1319 436 1319 q 521 1310 503 1319 q 555 1288 539 1300 q 585 1265 571 1275 q 615 1256 599 1256 q 678 1318 651 1256 l 747 1318 q 690 1213 728 1250 q 608 1175 651 1175 q 567 1185 585 1175 q 535 1206 550 1194 q 506 1228 519 1218 q 475 1238 492 1238 q 413 1176 435 1238 l 342 1176 z "},"Ậ":{"ha":735,"x_min":-81,"x_max":686,"o":"m 499 369 l 489 507 q 480 646 485 578 q 472 789 475 714 l 467 789 q 402 646 433 714 q 335 507 371 578 l 267 369 l 499 369 m 507 256 l 211 256 l 85 0 l -81 0 l 406 908 l 583 908 l 681 0 l 525 0 l 507 256 m 446 1136 l 590 1136 l 686 978 l 575 978 l 511 1069 l 507 1069 l 410 978 l 288 978 l 446 1136 m 271 -297 q 213 -277 239 -297 q 186 -219 186 -257 q 215 -151 186 -179 q 286 -122 244 -122 q 344 -142 318 -122 q 371 -200 371 -162 q 342 -269 371 -242 q 271 -297 313 -297 z "},"Ắ":{"ha":735,"x_min":-81,"x_max":699,"o":"m 499 369 l 489 507 q 480 646 485 578 q 472 789 475 714 l 467 789 q 402 646 433 714 q 335 507 371 578 l 267 369 l 499 369 m 507 256 l 211 256 l 85 0 l -81 0 l 406 908 l 583 908 l 681 0 l 525 0 l 507 256 m 582 1268 l 699 1268 l 536 1115 l 457 1115 l 582 1268 m 489 978 q 376 1023 411 978 q 349 1133 342 1068 l 424 1133 q 442 1072 421 1093 q 503 1050 464 1050 q 573 1073 543 1050 q 614 1133 603 1096 l 690 1133 q 622 1023 671 1068 q 489 978 574 978 z "},"Ằ":{"ha":735,"x_min":-81,"x_max":690,"o":"m 499 369 l 489 507 q 480 646 485 578 q 472 789 475 714 l 467 789 q 402 646 433 714 q 335 507 371 578 l 267 369 l 499 369 m 507 256 l 211 256 l 85 0 l -81 0 l 406 908 l 583 908 l 681 0 l 525 0 l 507 256 m 574 1115 l 494 1115 l 415 1268 l 529 1268 l 574 1115 m 489 978 q 376 1023 411 978 q 349 1133 342 1068 l 424 1133 q 442 1072 421 1093 q 503 1050 464 1050 q 573 1073 543 1050 q 614 1133 603 1096 l 690 1133 q 622 1023 671 1068 q 489 978 574 978 z "},"Ẳ":{"ha":735,"x_min":-81,"x_max":690,"o":"m 499 369 l 489 507 q 480 646 485 578 q 472 789 475 714 l 467 789 q 402 646 433 714 q 335 507 371 578 l 267 369 l 499 369 m 507 256 l 211 256 l 85 0 l -81 0 l 406 908 l 583 908 l 681 0 l 525 0 l 507 256 m 489 978 q 376 1023 411 978 q 349 1133 342 1068 l 424 1133 q 442 1072 421 1093 q 503 1050 464 1050 q 573 1073 543 1050 q 614 1133 603 1096 l 690 1133 q 622 1023 671 1068 q 489 978 574 978 m 476 1331 q 600 1304 565 1328 q 635 1244 635 1281 q 590 1152 635 1182 q 474 1111 546 1122 l 468 1164 q 518 1186 501 1172 q 535 1224 535 1200 q 517 1252 535 1242 q 451 1265 499 1263 l 476 1331 z "},"Ẵ":{"ha":735,"x_min":-81,"x_max":747,"o":"m 499 369 l 489 507 q 480 646 485 578 q 472 789 475 714 l 467 789 q 402 646 433 714 q 335 507 371 578 l 267 369 l 499 369 m 507 256 l 211 256 l 85 0 l -81 0 l 406 908 l 583 908 l 681 0 l 525 0 l 507 256 m 489 978 q 376 1023 411 978 q 349 1133 342 1068 l 424 1133 q 442 1072 421 1093 q 503 1050 464 1050 q 573 1073 543 1050 q 614 1133 603 1096 l 690 1133 q 622 1023 671 1068 q 489 978 574 978 m 342 1176 q 399 1282 361 1244 q 481 1319 436 1319 q 521 1310 503 1319 q 555 1288 539 1300 q 585 1265 571 1275 q 615 1256 599 1256 q 678 1318 651 1256 l 747 1318 q 690 1213 728 1250 q 608 1175 651 1175 q 567 1185 585 1175 q 535 1206 550 1194 q 506 1228 519 1218 q 475 1238 492 1238 q 413 1176 435 1238 l 342 1176 z "},"Ặ":{"ha":735,"x_min":-81,"x_max":689,"o":"m 499 369 l 489 507 q 480 646 485 578 q 472 789 475 714 l 467 789 q 402 646 433 714 q 335 507 371 578 l 267 369 l 499 369 m 507 256 l 211 256 l 85 0 l -81 0 l 406 908 l 583 908 l 681 0 l 525 0 l 507 256 m 488 978 q 421 990 449 978 q 376 1024 393 1003 q 351 1075 358 1046 q 347 1136 344 1104 l 429 1136 q 444 1080 426 1103 q 501 1057 463 1057 q 567 1081 542 1057 q 604 1136 592 1104 l 689 1136 q 661 1074 678 1103 q 620 1024 644 1046 q 563 990 596 1003 q 488 978 531 978 m 271 -297 q 213 -277 239 -297 q 186 -219 186 -257 q 215 -151 186 -179 q 286 -122 244 -122 q 344 -142 318 -122 q 371 -200 371 -162 q 342 -269 371 -242 q 271 -297 313 -297 z "},"Ą":{"ha":735,"x_min":-81,"x_max":681,"o":"m 499 369 l 489 507 q 480 646 485 578 q 472 789 475 714 l 467 789 q 402 646 433 714 q 335 507 371 578 l 267 369 l 499 369 m 681 0 q 573 -76 606 -35 q 540 -153 540 -117 q 555 -189 540 -176 q 589 -201 569 -201 q 633 -187 610 -201 l 664 -264 q 602 -290 636 -281 q 539 -300 568 -300 q 453 -274 486 -300 q 419 -200 419 -249 q 433 -138 419 -168 q 465 -83 446 -108 q 508 -36 485 -57 q 553 0 532 -15 l 525 0 l 507 256 l 211 256 l 85 0 l -81 0 l 406 908 l 583 908 l 681 0 z "},"Æ":{"ha":1140,"x_min":-47,"x_max":1169,"o":"m 642 797 l 638 797 q 545 657 590 725 q 454 518 500 589 l 353 360 l 554 360 l 642 797 m 788 782 l 739 538 l 1040 538 l 1015 411 l 715 411 l 657 126 l 1026 126 l 1001 0 l 483 0 l 532 242 l 276 242 l 122 0 l -47 0 l 564 908 l 1169 908 l 1144 782 l 788 782 z "},"Ç":{"ha":776,"x_min":79,"x_max":788,"o":"m 79 357 q 115 572 79 469 q 213 753 150 675 q 364 878 276 832 q 556 925 451 925 q 693 887 635 925 q 788 786 751 849 l 685 707 q 625 772 658 749 q 547 796 592 796 q 420 758 478 796 q 321 660 363 721 q 256 524 279 600 q 232 368 232 447 q 244 264 232 311 q 281 183 256 217 q 347 131 307 150 q 442 113 386 113 q 533 133 490 113 q 615 188 575 154 l 681 92 q 567 17 635 51 q 413 -17 500 -17 q 273 10 335 -17 q 168 85 211 36 q 102 202 125 133 q 79 357 79 271 m 354 4 l 446 4 l 399 -68 q 443 -97 425 -78 q 461 -149 461 -117 q 442 -213 461 -186 q 390 -258 422 -240 q 314 -287 357 -276 q 225 -300 271 -297 l 219 -237 q 310 -212 274 -231 q 347 -161 347 -194 q 333 -128 347 -142 q 279 -104 318 -115 l 354 4 z "},"Ć":{"ha":776,"x_min":79,"x_max":804,"o":"m 79 357 q 115 572 79 469 q 213 753 150 675 q 364 878 276 832 q 556 925 451 925 q 693 887 635 925 q 788 786 751 849 l 685 707 q 625 772 658 749 q 547 796 592 796 q 420 758 478 796 q 321 660 363 721 q 256 524 279 600 q 232 368 232 447 q 244 264 232 311 q 281 183 256 217 q 347 131 307 150 q 442 113 386 113 q 533 133 490 113 q 615 188 575 154 l 681 92 q 567 17 635 51 q 413 -17 500 -17 q 273 10 335 -17 q 168 85 211 36 q 102 202 125 133 q 79 357 79 271 m 639 1136 l 804 1136 l 619 978 l 494 978 l 639 1136 z "},"Ĉ":{"ha":776,"x_min":79,"x_max":788,"o":"m 79 357 q 115 572 79 469 q 213 753 150 675 q 364 878 276 832 q 556 925 451 925 q 693 887 635 925 q 788 786 751 849 l 685 707 q 625 772 658 749 q 547 796 592 796 q 420 758 478 796 q 321 660 363 721 q 256 524 279 600 q 232 368 232 447 q 244 264 232 311 q 281 183 256 217 q 347 131 307 150 q 442 113 386 113 q 533 133 490 113 q 615 188 575 154 l 681 92 q 567 17 635 51 q 413 -17 500 -17 q 273 10 335 -17 q 168 85 211 36 q 102 202 125 133 q 79 357 79 271 m 539 1136 l 683 1136 l 779 978 l 668 978 l 604 1069 l 600 1069 l 503 978 l 381 978 l 539 1136 z "},"Č":{"ha":776,"x_min":79,"x_max":811,"o":"m 79 357 q 115 572 79 469 q 213 753 150 675 q 364 878 276 832 q 556 925 451 925 q 693 887 635 925 q 788 786 751 849 l 685 707 q 625 772 658 749 q 547 796 592 796 q 420 758 478 796 q 321 660 363 721 q 256 524 279 600 q 232 368 232 447 q 244 264 232 311 q 281 183 256 217 q 347 131 307 150 q 442 113 386 113 q 533 133 490 113 q 615 188 575 154 l 681 92 q 567 17 635 51 q 413 -17 500 -17 q 273 10 335 -17 q 168 85 211 36 q 102 202 125 133 q 79 357 79 271 m 653 978 l 510 978 l 413 1136 l 524 1136 l 588 1044 l 592 1044 l 690 1136 l 811 1136 l 653 978 z "},"Ċ":{"ha":776,"x_min":79,"x_max":788,"o":"m 79 357 q 115 572 79 469 q 213 753 150 675 q 364 878 276 832 q 556 925 451 925 q 693 887 635 925 q 788 786 751 849 l 685 707 q 625 772 658 749 q 547 796 592 796 q 420 758 478 796 q 321 660 363 721 q 256 524 279 600 q 232 368 232 447 q 244 264 232 311 q 281 183 256 217 q 347 131 307 150 q 442 113 386 113 q 533 133 490 113 q 615 188 575 154 l 681 92 q 567 17 635 51 q 413 -17 500 -17 q 273 10 335 -17 q 168 85 211 36 q 102 202 125 133 q 79 357 79 271 m 592 985 q 532 1004 558 985 q 506 1063 506 1024 q 535 1131 506 1103 q 606 1160 565 1160 q 665 1139 639 1160 q 692 1081 692 1118 q 663 1012 692 1039 q 592 985 633 985 z "},"Ď":{"ha":839,"x_min":44,"x_max":803,"o":"m 225 908 l 410 908 q 701 817 600 908 q 803 553 803 726 q 767 321 803 424 q 667 147 732 218 q 512 38 603 76 q 308 0 421 0 l 44 0 l 225 908 m 306 121 q 445 149 382 121 q 554 232 508 178 q 625 365 600 286 q 650 543 650 443 q 586 726 650 665 q 406 788 522 788 l 350 788 l 218 121 l 306 121 m 600 978 l 457 978 l 360 1136 l 471 1136 l 535 1044 l 539 1044 l 638 1136 l 758 1136 l 600 978 z "},"Ḍ":{"ha":839,"x_min":44,"x_max":803,"o":"m 225 908 l 410 908 q 701 817 600 908 q 803 553 803 726 q 767 321 803 424 q 667 147 732 218 q 512 38 603 76 q 308 0 421 0 l 44 0 l 225 908 m 306 121 q 445 149 382 121 q 554 232 508 178 q 625 365 600 286 q 650 543 650 443 q 586 726 650 665 q 406 788 522 788 l 350 788 l 218 121 l 306 121 m 333 -297 q 275 -277 301 -297 q 249 -219 249 -257 q 278 -151 249 -179 q 349 -122 307 -122 q 407 -142 381 -122 q 433 -200 433 -162 q 404 -269 433 -242 q 333 -297 375 -297 z "},"Ḏ":{"ha":839,"x_min":44,"x_max":803,"o":"m 225 908 l 410 908 q 701 817 600 908 q 803 553 803 726 q 767 321 803 424 q 667 147 732 218 q 512 38 603 76 q 308 0 421 0 l 44 0 l 225 908 m 306 121 q 445 149 382 121 q 554 232 508 178 q 625 365 600 286 q 650 543 650 443 q 586 726 650 665 q 406 788 522 788 l 350 788 l 218 121 l 306 121 m 181 -139 l 526 -139 l 508 -237 l 161 -237 l 181 -139 z "},"Đ":{"ha":864,"x_min":58,"x_max":828,"o":"m 331 121 q 470 149 407 121 q 579 232 533 178 q 650 365 625 286 q 675 543 675 443 q 611 726 675 665 q 431 788 547 788 l 375 788 l 321 515 l 511 515 l 494 438 l 306 438 l 243 121 l 331 121 m 435 908 q 726 817 625 908 q 828 553 828 726 q 792 321 828 424 q 692 147 757 218 q 537 38 628 76 q 333 0 446 0 l 69 0 l 157 438 l 58 438 l 74 510 l 172 515 l 250 908 l 435 908 z "},"È":{"ha":715,"x_min":44,"x_max":746,"o":"m 225 908 l 746 908 l 721 782 l 349 782 l 300 538 l 615 538 l 590 411 l 276 411 l 218 126 l 601 126 l 576 0 l 44 0 l 225 908 m 336 1136 l 489 1136 l 576 978 l 461 978 l 336 1136 z "},"É":{"ha":715,"x_min":44,"x_max":746,"o":"m 225 908 l 746 908 l 721 782 l 349 782 l 300 538 l 615 538 l 590 411 l 276 411 l 218 126 l 601 126 l 576 0 l 44 0 l 225 908 m 556 1136 l 721 1136 l 536 978 l 411 978 l 556 1136 z "},"Ê":{"ha":715,"x_min":44,"x_max":746,"o":"m 225 908 l 746 908 l 721 782 l 349 782 l 300 538 l 615 538 l 590 411 l 276 411 l 218 126 l 601 126 l 576 0 l 44 0 l 225 908 m 456 1136 l 600 1136 l 696 978 l 585 978 l 521 1069 l 517 1069 l 419 978 l 297 978 l 456 1136 z "},"Ě":{"ha":715,"x_min":44,"x_max":746,"o":"m 225 908 l 746 908 l 721 782 l 349 782 l 300 538 l 615 538 l 590 411 l 276 411 l 218 126 l 601 126 l 576 0 l 44 0 l 225 908 m 569 978 l 426 978 l 329 1136 l 440 1136 l 504 1044 l 508 1044 l 607 1136 l 728 1136 l 569 978 z "},"Ë":{"ha":715,"x_min":44,"x_max":746,"o":"m 225 908 l 746 908 l 721 782 l 349 782 l 300 538 l 615 538 l 590 411 l 276 411 l 218 126 l 601 126 l 576 0 l 44 0 l 225 908 m 382 983 q 333 1001 353 983 q 314 1051 314 1019 q 339 1114 314 1086 q 400 1142 364 1142 q 448 1124 428 1142 q 468 1074 468 1106 q 443 1012 468 1040 q 382 983 418 983 m 629 983 q 581 1001 600 983 q 561 1051 561 1019 q 586 1114 561 1086 q 647 1142 611 1142 q 695 1124 675 1142 q 715 1074 715 1106 q 690 1012 715 1040 q 629 983 665 983 z "},"Ē":{"ha":715,"x_min":44,"x_max":746,"o":"m 225 908 l 746 908 l 721 782 l 349 782 l 300 538 l 615 538 l 590 411 l 276 411 l 218 126 l 601 126 l 576 0 l 44 0 l 225 908 m 347 1106 l 697 1106 l 678 1006 l 328 1006 l 347 1106 z "},"Ĕ":{"ha":715,"x_min":44,"x_max":746,"o":"m 225 908 l 746 908 l 721 782 l 349 782 l 300 538 l 615 538 l 590 411 l 276 411 l 218 126 l 601 126 l 576 0 l 44 0 l 225 908 m 497 978 q 431 990 458 978 q 385 1024 403 1003 q 361 1075 368 1046 q 357 1136 354 1104 l 439 1136 q 454 1080 436 1103 q 511 1057 472 1057 q 576 1081 551 1057 q 614 1136 601 1104 l 699 1136 q 671 1074 688 1103 q 630 1024 654 1046 q 573 990 606 1003 q 497 978 540 978 z "},"Ė":{"ha":715,"x_min":44,"x_max":746,"o":"m 225 908 l 746 908 l 721 782 l 349 782 l 300 538 l 615 538 l 590 411 l 276 411 l 218 126 l 601 126 l 576 0 l 44 0 l 225 908 m 508 985 q 449 1004 475 985 q 422 1063 422 1024 q 452 1131 422 1103 q 522 1160 482 1160 q 582 1139 556 1160 q 608 1081 608 1118 q 579 1012 608 1039 q 508 985 550 985 z "},"Ẹ":{"ha":715,"x_min":44,"x_max":746,"o":"m 225 908 l 746 908 l 721 782 l 349 782 l 300 538 l 615 538 l 590 411 l 276 411 l 218 126 l 601 126 l 576 0 l 44 0 l 225 908 m 290 -297 q 232 -277 258 -297 q 206 -219 206 -257 q 235 -151 206 -179 q 306 -122 264 -122 q 364 -142 338 -122 q 390 -200 390 -162 q 361 -269 390 -242 q 290 -297 332 -297 z "},"Ẻ":{"ha":715,"x_min":44,"x_max":746,"o":"m 225 908 l 746 908 l 721 782 l 349 782 l 300 538 l 615 538 l 590 411 l 276 411 l 218 126 l 601 126 l 576 0 l 44 0 l 225 908 m 456 1217 q 595 1184 554 1213 q 636 1115 636 1156 q 622 1055 636 1081 q 581 1011 607 1029 q 519 981 554 993 q 446 964 485 969 l 439 1026 q 500 1049 478 1036 q 522 1089 522 1063 q 502 1122 522 1110 q 425 1138 482 1135 l 456 1217 z "},"Ẽ":{"ha":715,"x_min":44,"x_max":746,"o":"m 225 908 l 746 908 l 721 782 l 349 782 l 300 538 l 615 538 l 590 411 l 276 411 l 218 126 l 601 126 l 576 0 l 44 0 l 225 908 m 289 982 q 351 1101 308 1057 q 442 1146 393 1146 q 489 1135 469 1146 q 524 1110 508 1124 q 556 1086 540 1097 q 593 1075 572 1075 q 656 1143 631 1075 l 736 1143 q 675 1024 717 1068 q 585 979 633 979 q 536 990 556 979 q 501 1015 517 1001 q 469 1039 485 1028 q 433 1050 454 1050 q 369 982 394 1050 l 289 982 z "},"Ế":{"ha":715,"x_min":44,"x_max":896,"o":"m 225 908 l 746 908 l 721 782 l 349 782 l 300 538 l 615 538 l 590 411 l 276 411 l 218 126 l 601 126 l 576 0 l 44 0 l 225 908 m 779 1226 l 896 1226 l 751 1067 l 664 1067 l 779 1226 m 468 1128 l 596 1128 l 692 978 l 583 978 l 522 1060 l 517 1060 l 424 978 l 314 978 l 468 1128 z "},"Ề":{"ha":715,"x_min":44,"x_max":801,"o":"m 225 908 l 746 908 l 721 782 l 349 782 l 300 538 l 615 538 l 590 411 l 276 411 l 218 126 l 601 126 l 576 0 l 44 0 l 225 908 m 801 1067 l 714 1067 l 628 1226 l 744 1226 l 801 1067 m 468 1128 l 596 1128 l 692 978 l 583 978 l 522 1060 l 517 1060 l 424 978 l 314 978 l 468 1128 z "},"Ể":{"ha":715,"x_min":44,"x_max":846,"o":"m 225 908 l 746 908 l 721 782 l 349 782 l 300 538 l 615 538 l 590 411 l 276 411 l 218 126 l 601 126 l 576 0 l 44 0 l 225 908 m 468 1128 l 596 1128 l 692 978 l 583 978 l 522 1060 l 517 1060 l 424 978 l 314 978 l 468 1128 m 689 1263 q 811 1235 776 1260 q 846 1175 846 1211 q 801 1083 846 1113 q 686 1043 757 1054 l 679 1096 q 730 1118 713 1104 q 747 1156 747 1132 q 729 1184 747 1174 q 663 1197 711 1194 l 689 1263 z "},"Ễ":{"ha":715,"x_min":44,"x_max":757,"o":"m 225 908 l 746 908 l 721 782 l 349 782 l 300 538 l 615 538 l 590 411 l 276 411 l 218 126 l 601 126 l 576 0 l 44 0 l 225 908 m 468 1128 l 596 1128 l 692 978 l 583 978 l 522 1060 l 517 1060 l 424 978 l 314 978 l 468 1128 m 351 1176 q 408 1282 371 1244 q 490 1319 446 1319 q 531 1310 513 1319 q 565 1288 549 1300 q 594 1265 581 1275 q 625 1256 608 1256 q 688 1318 661 1256 l 757 1318 q 699 1213 738 1250 q 618 1175 661 1175 q 577 1185 594 1175 q 544 1206 560 1194 q 515 1228 529 1218 q 485 1238 501 1238 q 422 1176 444 1238 l 351 1176 z "},"Ệ":{"ha":715,"x_min":44,"x_max":746,"o":"m 225 908 l 746 908 l 721 782 l 349 782 l 300 538 l 615 538 l 590 411 l 276 411 l 218 126 l 601 126 l 576 0 l 44 0 l 225 908 m 456 1136 l 600 1136 l 696 978 l 585 978 l 521 1069 l 517 1069 l 419 978 l 297 978 l 456 1136 m 290 -297 q 232 -277 258 -297 q 206 -219 206 -257 q 235 -151 206 -179 q 306 -122 264 -122 q 364 -142 338 -122 q 390 -200 390 -162 q 361 -269 390 -242 q 290 -297 332 -297 z "},"Ę":{"ha":715,"x_min":44,"x_max":746,"o":"m 225 908 l 746 908 l 721 782 l 349 782 l 300 538 l 615 538 l 590 411 l 276 411 l 218 126 l 601 126 l 576 0 q 517 -22 544 -4 q 471 -62 490 -39 q 440 -109 451 -85 q 429 -153 429 -133 q 444 -189 429 -176 q 478 -201 458 -201 q 522 -187 499 -201 l 553 -264 q 491 -290 525 -281 q 428 -300 457 -300 q 342 -274 375 -300 q 308 -200 308 -249 q 322 -136 308 -167 q 356 -79 336 -106 q 399 -33 376 -53 q 440 0 422 -12 l 44 0 l 225 908 z "},"Ĝ":{"ha":833,"x_min":79,"x_max":810,"o":"m 79 357 q 115 573 79 469 q 215 754 150 676 q 369 878 279 832 q 569 925 460 925 q 714 887 654 925 q 810 786 774 849 l 707 707 q 646 772 681 749 q 561 796 611 796 q 426 758 488 796 q 322 660 365 721 q 256 524 279 600 q 232 368 232 447 q 244 265 232 311 q 282 183 256 218 q 350 130 308 149 q 451 111 392 111 q 522 123 490 111 q 578 154 554 135 l 622 368 l 454 368 l 478 490 l 779 490 l 697 76 q 578 10 647 36 q 426 -17 510 -17 q 169 83 260 -17 q 79 357 79 183 m 535 1136 l 679 1136 l 775 978 l 664 978 l 600 1069 l 596 1069 l 499 978 l 376 978 l 535 1136 z "},"Ğ":{"ha":833,"x_min":79,"x_max":810,"o":"m 79 357 q 115 573 79 469 q 215 754 150 676 q 369 878 279 832 q 569 925 460 925 q 714 887 654 925 q 810 786 774 849 l 707 707 q 646 772 681 749 q 561 796 611 796 q 426 758 488 796 q 322 660 365 721 q 256 524 279 600 q 232 368 232 447 q 244 265 232 311 q 282 183 256 218 q 350 130 308 149 q 451 111 392 111 q 522 123 490 111 q 578 154 554 135 l 622 368 l 454 368 l 478 490 l 779 490 l 697 76 q 578 10 647 36 q 426 -17 510 -17 q 169 83 260 -17 q 79 357 79 183 m 576 978 q 510 990 538 978 q 465 1024 482 1003 q 440 1075 447 1046 q 436 1136 433 1104 l 518 1136 q 533 1080 515 1103 q 590 1057 551 1057 q 656 1081 631 1057 q 693 1136 681 1104 l 778 1136 q 750 1074 767 1103 q 709 1024 733 1046 q 652 990 685 1003 q 576 978 619 978 z "},"Ġ":{"ha":833,"x_min":79,"x_max":810,"o":"m 79 357 q 115 573 79 469 q 215 754 150 676 q 369 878 279 832 q 569 925 460 925 q 714 887 654 925 q 810 786 774 849 l 707 707 q 646 772 681 749 q 561 796 611 796 q 426 758 488 796 q 322 660 365 721 q 256 524 279 600 q 232 368 232 447 q 244 265 232 311 q 282 183 256 218 q 350 130 308 149 q 451 111 392 111 q 522 123 490 111 q 578 154 554 135 l 622 368 l 454 368 l 478 490 l 779 490 l 697 76 q 578 10 647 36 q 426 -17 510 -17 q 169 83 260 -17 q 79 357 79 183 m 588 985 q 528 1004 554 985 q 501 1063 501 1024 q 531 1131 501 1103 q 601 1160 561 1160 q 661 1139 635 1160 q 688 1081 688 1118 q 658 1012 688 1039 q 588 985 629 985 z "},"Ģ":{"ha":833,"x_min":79,"x_max":810,"o":"m 79 357 q 115 573 79 469 q 215 754 150 676 q 369 878 279 832 q 569 925 460 925 q 714 887 654 925 q 810 786 774 849 l 707 707 q 646 772 681 749 q 561 796 611 796 q 426 758 488 796 q 322 660 365 721 q 256 524 279 600 q 232 368 232 447 q 244 265 232 311 q 282 183 256 218 q 350 130 308 149 q 451 111 392 111 q 522 123 490 111 q 578 154 554 135 l 622 368 l 454 368 l 478 490 l 779 490 l 697 76 q 578 10 647 36 q 426 -17 510 -17 q 169 83 260 -17 q 79 357 79 183 m 379 -58 q 467 -92 435 -69 q 499 -156 499 -114 q 480 -220 499 -194 q 429 -262 461 -246 q 356 -286 397 -278 q 268 -297 314 -294 l 263 -235 q 358 -212 325 -228 q 390 -164 390 -196 q 376 -133 390 -144 q 339 -115 361 -122 l 379 -58 z "},"Ǧ":{"ha":833,"x_min":79,"x_max":810,"o":"m 79 357 q 115 573 79 469 q 215 754 150 676 q 369 878 279 832 q 569 925 460 925 q 714 887 654 925 q 810 786 774 849 l 707 707 q 646 772 681 749 q 561 796 611 796 q 426 758 488 796 q 322 660 365 721 q 256 524 279 600 q 232 368 232 447 q 244 265 232 311 q 282 183 256 218 q 350 130 308 149 q 451 111 392 111 q 522 123 490 111 q 578 154 554 135 l 622 368 l 454 368 l 478 490 l 779 490 l 697 76 q 578 10 647 36 q 426 -17 510 -17 q 169 83 260 -17 q 79 357 79 183 m 649 978 l 506 978 l 408 1136 l 519 1136 l 583 1044 l 588 1044 l 686 1136 l 807 1136 l 649 978 z "},"Ḡ":{"ha":833,"x_min":79,"x_max":810,"o":"m 79 357 q 115 573 79 469 q 215 754 150 676 q 369 878 279 832 q 569 925 460 925 q 714 887 654 925 q 810 786 774 849 l 707 707 q 646 772 681 749 q 561 796 611 796 q 426 758 488 796 q 322 660 365 721 q 256 524 279 600 q 232 368 232 447 q 244 265 232 311 q 282 183 256 218 q 350 130 308 149 q 451 111 392 111 q 522 123 490 111 q 578 154 554 135 l 622 368 l 454 368 l 478 490 l 779 490 l 697 76 q 578 10 647 36 q 426 -17 510 -17 q 169 83 260 -17 q 79 357 79 183 m 426 1106 l 776 1106 l 757 1006 l 407 1006 l 426 1106 z "},"Ĥ":{"ha":886,"x_min":44,"x_max":883,"o":"m 225 908 l 375 908 l 300 540 l 660 540 l 733 908 l 883 908 l 701 0 l 551 0 l 635 410 l 275 410 l 194 0 l 44 0 l 225 908 m 504 1136 l 649 1136 l 744 978 l 633 978 l 569 1069 l 565 1069 l 468 978 l 346 978 l 504 1136 z "},"Ḥ":{"ha":886,"x_min":44,"x_max":883,"o":"m 225 908 l 375 908 l 300 540 l 660 540 l 733 908 l 883 908 l 701 0 l 551 0 l 635 410 l 275 410 l 194 0 l 44 0 l 225 908 m 343 -297 q 285 -277 311 -297 q 258 -219 258 -257 q 288 -151 258 -179 q 358 -122 317 -122 q 417 -142 390 -122 q 443 -200 443 -162 q 414 -269 443 -242 q 343 -297 385 -297 z "},"Ḫ":{"ha":886,"x_min":44,"x_max":883,"o":"m 225 908 l 375 908 l 300 540 l 660 540 l 733 908 l 883 908 l 701 0 l 551 0 l 635 410 l 275 410 l 194 0 l 44 0 l 225 908 m 333 -287 q 261 -272 290 -287 q 215 -231 232 -257 q 194 -173 199 -206 q 196 -106 189 -140 l 278 -106 q 290 -176 274 -149 q 347 -204 306 -204 q 418 -176 390 -204 q 460 -106 446 -147 l 546 -106 q 519 -173 536 -140 q 475 -231 501 -206 q 413 -272 449 -257 q 333 -287 378 -287 z "},"Ħ":{"ha":903,"x_min":51,"x_max":985,"o":"m 696 682 l 338 682 l 308 540 l 668 540 l 696 682 m 969 682 l 846 682 l 710 0 l 560 0 l 642 410 l 283 410 l 201 0 l 51 0 l 188 682 l 101 682 l 117 754 l 203 758 l 233 908 l 383 908 l 353 760 l 713 760 l 742 908 l 892 908 l 863 760 l 985 760 l 969 682 z "},"Ì":{"ha":379,"x_min":44,"x_max":378,"o":"m 225 908 l 375 908 l 194 0 l 44 0 l 225 908 m 138 1136 l 290 1136 l 378 978 l 263 978 l 138 1136 z "},"Í":{"ha":379,"x_min":44,"x_max":522,"o":"m 225 908 l 375 908 l 194 0 l 44 0 l 225 908 m 357 1136 l 522 1136 l 338 978 l 213 978 l 357 1136 z "},"Î":{"ha":379,"x_min":44,"x_max":497,"o":"m 225 908 l 375 908 l 194 0 l 44 0 l 225 908 m 257 1136 l 401 1136 l 497 978 l 386 978 l 322 1069 l 318 1069 l 221 978 l 99 978 l 257 1136 z "},"Ĩ":{"ha":379,"x_min":44,"x_max":538,"o":"m 225 908 l 375 908 l 194 0 l 44 0 l 225 908 m 90 982 q 152 1101 110 1057 q 243 1146 194 1146 q 290 1135 271 1146 q 326 1110 310 1124 q 358 1086 342 1097 q 394 1075 374 1075 q 457 1143 432 1075 l 538 1143 q 476 1024 518 1068 q 386 979 435 979 q 338 990 357 979 q 302 1015 318 1001 q 271 1039 286 1028 q 235 1050 256 1050 q 171 982 196 1050 l 90 982 z "},"Ï":{"ha":379,"x_min":44,"x_max":517,"o":"m 225 908 l 375 908 l 194 0 l 44 0 l 225 908 m 183 983 q 135 1001 154 983 q 115 1051 115 1019 q 140 1114 115 1086 q 201 1142 165 1142 q 249 1124 229 1142 q 269 1074 269 1106 q 244 1012 269 1040 q 183 983 219 983 m 431 983 q 382 1001 401 983 q 363 1051 363 1019 q 388 1114 363 1086 q 449 1142 413 1142 q 497 1124 476 1142 q 517 1074 517 1106 q 492 1012 517 1040 q 431 983 467 983 z "},"Ī":{"ha":379,"x_min":44,"x_max":499,"o":"m 225 908 l 375 908 l 194 0 l 44 0 l 225 908 m 149 1106 l 499 1106 l 479 1006 l 129 1006 l 149 1106 z "},"İ":{"ha":379,"x_min":44,"x_max":410,"o":"m 225 908 l 375 908 l 194 0 l 44 0 l 225 908 m 310 985 q 250 1004 276 985 q 224 1063 224 1024 q 253 1131 224 1103 q 324 1160 283 1160 q 383 1139 357 1160 q 410 1081 410 1118 q 381 1012 410 1039 q 310 985 351 985 z "},"Ǐ":{"ha":379,"x_min":44,"x_max":529,"o":"m 225 908 l 375 908 l 194 0 l 44 0 l 225 908 m 371 978 l 228 978 l 131 1136 l 242 1136 l 306 1044 l 310 1044 l 408 1136 l 529 1136 l 371 978 z "},"Ỉ":{"ha":379,"x_min":44,"x_max":438,"o":"m 225 908 l 375 908 l 194 0 l 44 0 l 225 908 m 257 1217 q 397 1184 356 1213 q 438 1115 438 1156 q 423 1055 438 1081 q 382 1011 408 1029 q 321 981 356 993 q 247 964 286 969 l 240 1026 q 301 1049 279 1036 q 324 1089 324 1063 q 303 1122 324 1110 q 226 1138 283 1135 l 257 1217 z "},"Ị":{"ha":379,"x_min":-7,"x_max":375,"o":"m 225 908 l 375 908 l 194 0 l 44 0 l 225 908 m 78 -301 q 19 -281 46 -301 q -7 -224 -7 -261 q 22 -155 -7 -183 q 93 -126 51 -126 q 151 -147 125 -126 q 178 -204 178 -167 q 149 -274 178 -246 q 78 -301 119 -301 z "},"Į":{"ha":379,"x_min":-51,"x_max":375,"o":"m 68 -153 q 83 -189 68 -176 q 118 -201 97 -201 q 161 -187 138 -201 l 192 -261 q 130 -290 167 -279 q 65 -300 93 -300 q -19 -274 14 -300 q -51 -200 -51 -249 q -37 -136 -51 -167 q -4 -79 -24 -106 q 38 -33 15 -53 q 76 0 60 -12 l 44 0 l 225 908 l 375 908 l 194 0 q 101 -73 135 -29 q 68 -153 68 -117 z "},"Ĵ":{"ha":658,"x_min":-7,"x_max":783,"o":"m 535 269 q 499 156 524 208 q 438 66 475 104 q 350 6 401 28 q 233 -17 299 -17 q 90 20 153 -17 q -7 122 28 57 l 88 210 q 144 140 107 167 q 233 113 181 113 q 334 159 296 113 q 390 293 372 206 l 513 908 l 663 908 l 535 269 l 535 269 m 543 1136 l 688 1136 l 783 978 l 672 978 l 608 1069 l 604 1069 l 507 978 l 385 978 l 543 1136 z "},"Ķ":{"ha":808,"x_min":44,"x_max":861,"o":"m 225 908 l 375 908 l 293 497 l 299 497 l 696 908 l 861 908 l 526 547 l 731 0 l 575 0 l 415 453 l 251 286 l 194 0 l 44 0 l 225 908 m 346 -58 q 433 -92 401 -69 q 465 -156 465 -114 q 447 -220 465 -194 q 396 -262 428 -246 q 322 -286 364 -278 q 235 -297 281 -294 l 229 -235 q 324 -212 292 -228 q 357 -164 357 -196 q 342 -133 357 -144 q 306 -115 328 -122 l 346 -58 z "},"Ĺ":{"ha":668,"x_min":44,"x_max":582,"o":"m 225 908 l 375 908 l 219 126 l 582 126 l 557 0 l 44 0 l 225 908 m 372 1136 l 538 1136 l 353 978 l 228 978 l 372 1136 z "},"Ľ":{"ha":668,"x_min":44,"x_max":682,"o":"m 225 908 l 375 908 l 219 126 l 582 126 l 557 0 l 44 0 l 225 908 m 528 710 l 583 1011 l 682 1011 l 664 924 l 596 710 l 528 710 z "},"Ļ":{"ha":668,"x_min":44,"x_max":582,"o":"m 225 908 l 375 908 l 219 126 l 582 126 l 557 0 l 44 0 l 225 908 m 272 -58 q 360 -92 328 -69 q 392 -156 392 -114 q 373 -220 392 -194 q 322 -262 354 -246 q 249 -286 290 -278 q 161 -297 207 -294 l 156 -235 q 251 -212 218 -228 q 283 -164 283 -196 q 269 -133 283 -144 q 232 -115 254 -122 l 272 -58 z "},"Ŀ":{"ha":668,"x_min":44,"x_max":646,"o":"m 225 908 l 375 908 l 219 126 l 582 126 l 557 0 l 44 0 l 225 908 m 532 353 q 472 377 494 353 q 450 439 450 401 q 458 483 450 461 q 483 521 467 504 q 519 548 499 538 q 565 558 540 558 q 624 533 603 558 q 646 471 646 508 q 638 427 646 449 q 615 389 629 406 q 578 363 600 372 q 532 353 557 353 z "},"Ḷ":{"ha":668,"x_min":44,"x_max":582,"o":"m 225 908 l 375 908 l 219 126 l 582 126 l 557 0 l 44 0 l 225 908 m 274 -297 q 215 -277 242 -297 q 189 -219 189 -257 q 218 -151 189 -179 q 289 -122 247 -122 q 347 -142 321 -122 q 374 -200 374 -162 q 344 -269 374 -242 q 274 -297 315 -297 z "},"Ḹ":{"ha":668,"x_min":44,"x_max":582,"o":"m 225 908 l 375 908 l 219 126 l 582 126 l 557 0 l 44 0 l 225 908 m 164 1106 l 514 1106 l 494 1006 l 144 1006 l 164 1106 m 274 -297 q 215 -277 242 -297 q 189 -219 189 -257 q 218 -151 189 -179 q 289 -122 247 -122 q 347 -142 321 -122 q 374 -200 374 -162 q 344 -269 374 -242 q 274 -297 315 -297 z "},"Ḻ":{"ha":668,"x_min":44,"x_max":582,"o":"m 225 908 l 375 908 l 219 126 l 582 126 l 557 0 l 44 0 l 225 908 m 121 -139 l 467 -139 l 449 -237 l 101 -237 l 121 -139 z "},"Ł":{"ha":668,"x_min":-8,"x_max":582,"o":"m 582 126 l 557 0 l 44 0 l 106 304 l -8 249 l 17 376 l 131 432 l 225 908 l 375 908 l 296 508 l 564 642 l 539 514 l 269 381 l 219 126 l 582 126 z "},"Ṃ":{"ha":1004,"x_min":44,"x_max":1001,"o":"m 225 908 l 392 908 l 464 454 l 490 279 l 496 279 l 586 454 l 836 908 l 1001 908 l 819 0 l 678 0 l 768 436 q 784 505 775 468 q 803 579 793 542 q 822 653 813 617 q 842 721 832 689 l 838 721 l 726 515 l 486 89 l 417 89 l 342 515 l 313 721 l 307 721 q 291 578 300 657 q 269 436 282 500 l 182 0 l 44 0 l 225 908 m 396 -308 q 338 -288 364 -308 q 311 -231 311 -268 q 340 -162 311 -190 q 411 -133 369 -133 q 469 -153 443 -133 q 496 -211 496 -174 q 467 -281 496 -253 q 396 -308 438 -308 z "},"Ń":{"ha":876,"x_min":44,"x_max":875,"o":"m 225 908 l 372 908 l 550 382 l 603 186 l 608 186 q 625 339 617 257 q 649 496 633 421 l 731 908 l 875 908 l 693 0 l 547 0 l 371 525 l 318 724 l 313 724 q 294 571 304 650 q 269 417 285 492 l 188 0 l 44 0 l 225 908 m 618 1136 l 783 1136 l 599 978 l 474 978 l 618 1136 z "},"Ň":{"ha":876,"x_min":44,"x_max":875,"o":"m 225 908 l 372 908 l 550 382 l 603 186 l 608 186 q 625 339 617 257 q 649 496 633 421 l 731 908 l 875 908 l 693 0 l 547 0 l 371 525 l 318 724 l 313 724 q 294 571 304 650 q 269 417 285 492 l 188 0 l 44 0 l 225 908 m 632 978 l 489 978 l 392 1136 l 503 1136 l 567 1044 l 571 1044 l 669 1136 l 790 1136 l 632 978 z "},"Ñ":{"ha":876,"x_min":44,"x_max":875,"o":"m 225 908 l 372 908 l 550 382 l 603 186 l 608 186 q 625 339 617 257 q 649 496 633 421 l 731 908 l 875 908 l 693 0 l 547 0 l 371 525 l 318 724 l 313 724 q 294 571 304 650 q 269 417 285 492 l 188 0 l 44 0 l 225 908 m 351 982 q 413 1101 371 1057 q 504 1146 456 1146 q 551 1135 532 1146 q 587 1110 571 1124 q 619 1086 603 1097 q 656 1075 635 1075 q 718 1143 693 1075 l 799 1143 q 738 1024 779 1068 q 647 979 696 979 q 599 990 618 979 q 563 1015 579 1001 q 532 1039 547 1028 q 496 1050 517 1050 q 432 982 457 1050 l 351 982 z "},"Ņ":{"ha":876,"x_min":44,"x_max":875,"o":"m 225 908 l 372 908 l 550 382 l 603 186 l 608 186 q 625 339 617 257 q 649 496 633 421 l 731 908 l 875 908 l 693 0 l 547 0 l 371 525 l 318 724 l 313 724 q 294 571 304 650 q 269 417 285 492 l 188 0 l 44 0 l 225 908 m 350 -69 q 438 -103 406 -81 q 469 -167 469 -125 q 451 -231 469 -206 q 400 -273 432 -257 q 326 -297 368 -289 q 239 -308 285 -306 l 233 -246 q 328 -223 296 -239 q 361 -175 361 -207 q 347 -144 361 -156 q 310 -126 332 -133 l 350 -69 z "},"Ṅ":{"ha":876,"x_min":44,"x_max":875,"o":"m 225 908 l 372 908 l 550 382 l 603 186 l 608 186 q 625 339 617 257 q 649 496 633 421 l 731 908 l 875 908 l 693 0 l 547 0 l 371 525 l 318 724 l 313 724 q 294 571 304 650 q 269 417 285 492 l 188 0 l 44 0 l 225 908 m 571 985 q 511 1004 538 985 q 485 1063 485 1024 q 515 1131 485 1103 q 585 1160 544 1160 q 644 1139 618 1160 q 671 1081 671 1118 q 642 1012 671 1039 q 571 985 613 985 z "},"Ṇ":{"ha":876,"x_min":44,"x_max":875,"o":"m 225 908 l 372 908 l 550 382 l 603 186 l 608 186 q 625 339 617 257 q 649 496 633 421 l 731 908 l 875 908 l 693 0 l 547 0 l 371 525 l 318 724 l 313 724 q 294 571 304 650 q 269 417 285 492 l 188 0 l 44 0 l 225 908 m 351 -308 q 293 -288 319 -308 q 267 -231 267 -268 q 296 -162 267 -190 q 367 -133 325 -133 q 425 -153 399 -133 q 451 -211 451 -174 q 422 -281 451 -253 q 351 -308 393 -308 z "},"Ṉ":{"ha":876,"x_min":44,"x_max":875,"o":"m 225 908 l 372 908 l 550 382 l 603 186 l 608 186 q 625 339 617 257 q 649 496 633 421 l 731 908 l 875 908 l 693 0 l 547 0 l 371 525 l 318 724 l 313 724 q 294 571 304 650 q 269 417 285 492 l 188 0 l 44 0 l 225 908 m 199 -150 l 544 -150 l 526 -249 l 179 -249 l 199 -150 z "},"Ò":{"ha":899,"x_min":81,"x_max":861,"o":"m 408 -17 q 271 10 332 -17 q 167 86 210 36 q 103 207 125 136 q 81 365 81 278 q 116 579 81 478 q 213 758 151 681 q 356 880 274 835 q 533 925 439 925 q 671 899 610 925 q 774 822 732 872 q 839 701 817 772 q 861 543 861 631 q 826 329 861 431 q 731 151 792 228 q 587 28 669 74 q 408 -17 504 -17 m 525 796 q 411 760 464 796 q 319 665 358 724 q 258 531 281 607 q 235 376 235 456 q 280 183 235 254 q 417 113 325 113 q 530 149 476 113 q 623 243 583 185 q 685 377 663 301 q 708 532 708 453 q 663 725 708 654 q 525 796 617 796 m 406 1136 l 558 1136 l 646 978 l 531 978 l 406 1136 z "},"Ó":{"ha":899,"x_min":81,"x_max":861,"o":"m 408 -17 q 271 10 332 -17 q 167 86 210 36 q 103 207 125 136 q 81 365 81 278 q 116 579 81 478 q 213 758 151 681 q 356 880 274 835 q 533 925 439 925 q 671 899 610 925 q 774 822 732 872 q 839 701 817 772 q 861 543 861 631 q 826 329 861 431 q 731 151 792 228 q 587 28 669 74 q 408 -17 504 -17 m 525 796 q 411 760 464 796 q 319 665 358 724 q 258 531 281 607 q 235 376 235 456 q 280 183 235 254 q 417 113 325 113 q 530 149 476 113 q 623 243 583 185 q 685 377 663 301 q 708 532 708 453 q 663 725 708 654 q 525 796 617 796 m 625 1136 l 790 1136 l 606 978 l 481 978 l 625 1136 z "},"Ô":{"ha":899,"x_min":81,"x_max":861,"o":"m 408 -17 q 271 10 332 -17 q 167 86 210 36 q 103 207 125 136 q 81 365 81 278 q 116 579 81 478 q 213 758 151 681 q 356 880 274 835 q 533 925 439 925 q 671 899 610 925 q 774 822 732 872 q 839 701 817 772 q 861 543 861 631 q 826 329 861 431 q 731 151 792 228 q 587 28 669 74 q 408 -17 504 -17 m 525 796 q 411 760 464 796 q 319 665 358 724 q 258 531 281 607 q 235 376 235 456 q 280 183 235 254 q 417 113 325 113 q 530 149 476 113 q 623 243 583 185 q 685 377 663 301 q 708 532 708 453 q 663 725 708 654 q 525 796 617 796 m 525 1136 l 669 1136 l 765 978 l 654 978 l 590 1069 l 586 1069 l 489 978 l 367 978 l 525 1136 z "},"Õ":{"ha":899,"x_min":81,"x_max":861,"o":"m 408 -17 q 271 10 332 -17 q 167 86 210 36 q 103 207 125 136 q 81 365 81 278 q 116 579 81 478 q 213 758 151 681 q 356 880 274 835 q 533 925 439 925 q 671 899 610 925 q 774 822 732 872 q 839 701 817 772 q 861 543 861 631 q 826 329 861 431 q 731 151 792 228 q 587 28 669 74 q 408 -17 504 -17 m 525 796 q 411 760 464 796 q 319 665 358 724 q 258 531 281 607 q 235 376 235 456 q 280 183 235 254 q 417 113 325 113 q 530 149 476 113 q 623 243 583 185 q 685 377 663 301 q 708 532 708 453 q 663 725 708 654 q 525 796 617 796 m 358 982 q 420 1101 378 1057 q 511 1146 463 1146 q 558 1135 539 1146 q 594 1110 578 1124 q 626 1086 610 1097 q 663 1075 642 1075 q 725 1143 700 1075 l 806 1143 q 744 1024 786 1068 q 654 979 703 979 q 606 990 625 979 q 570 1015 586 1001 q 539 1039 554 1028 q 503 1050 524 1050 q 439 982 464 1050 l 358 982 z "},"Ö":{"ha":899,"x_min":81,"x_max":861,"o":"m 408 -17 q 271 10 332 -17 q 167 86 210 36 q 103 207 125 136 q 81 365 81 278 q 116 579 81 478 q 213 758 151 681 q 356 880 274 835 q 533 925 439 925 q 671 899 610 925 q 774 822 732 872 q 839 701 817 772 q 861 543 861 631 q 826 329 861 431 q 731 151 792 228 q 587 28 669 74 q 408 -17 504 -17 m 525 796 q 411 760 464 796 q 319 665 358 724 q 258 531 281 607 q 235 376 235 456 q 280 183 235 254 q 417 113 325 113 q 530 149 476 113 q 623 243 583 185 q 685 377 663 301 q 708 532 708 453 q 663 725 708 654 q 525 796 617 796 m 451 983 q 403 1001 422 983 q 383 1051 383 1019 q 408 1114 383 1086 q 469 1142 433 1142 q 517 1124 497 1142 q 538 1074 538 1106 q 513 1012 538 1040 q 451 983 488 983 m 699 983 q 650 1001 669 983 q 631 1051 631 1019 q 656 1114 631 1086 q 717 1142 681 1142 q 765 1124 744 1142 q 785 1074 785 1106 q 760 1012 785 1040 q 699 983 735 983 z "},"Ō":{"ha":899,"x_min":81,"x_max":861,"o":"m 408 -17 q 271 10 332 -17 q 167 86 210 36 q 103 207 125 136 q 81 365 81 278 q 116 579 81 478 q 213 758 151 681 q 356 880 274 835 q 533 925 439 925 q 671 899 610 925 q 774 822 732 872 q 839 701 817 772 q 861 543 861 631 q 826 329 861 431 q 731 151 792 228 q 587 28 669 74 q 408 -17 504 -17 m 525 796 q 411 760 464 796 q 319 665 358 724 q 258 531 281 607 q 235 376 235 456 q 280 183 235 254 q 417 113 325 113 q 530 149 476 113 q 623 243 583 185 q 685 377 663 301 q 708 532 708 453 q 663 725 708 654 q 525 796 617 796 m 417 1106 l 767 1106 l 747 1006 l 397 1006 l 417 1106 z "},"Ő":{"ha":899,"x_min":81,"x_max":876,"o":"m 408 -17 q 271 10 332 -17 q 167 86 210 36 q 103 207 125 136 q 81 365 81 278 q 116 579 81 478 q 213 758 151 681 q 356 880 274 835 q 533 925 439 925 q 671 899 610 925 q 774 822 732 872 q 839 701 817 772 q 861 543 861 631 q 826 329 861 431 q 731 151 792 228 q 587 28 669 74 q 408 -17 504 -17 m 525 796 q 411 760 464 796 q 319 665 358 724 q 258 531 281 607 q 235 376 235 456 q 280 183 235 254 q 417 113 325 113 q 530 149 476 113 q 623 243 583 185 q 685 377 663 301 q 708 532 708 453 q 663 725 708 654 q 525 796 617 796 m 525 1138 l 656 1138 l 507 978 l 404 978 l 525 1138 m 746 1138 l 876 1138 l 729 978 l 626 978 l 746 1138 z "},"Ǒ":{"ha":899,"x_min":81,"x_max":861,"o":"m 408 -17 q 271 10 332 -17 q 167 86 210 36 q 103 207 125 136 q 81 365 81 278 q 116 579 81 478 q 213 758 151 681 q 356 880 274 835 q 533 925 439 925 q 671 899 610 925 q 774 822 732 872 q 839 701 817 772 q 861 543 861 631 q 826 329 861 431 q 731 151 792 228 q 587 28 669 74 q 408 -17 504 -17 m 525 796 q 411 760 464 796 q 319 665 358 724 q 258 531 281 607 q 235 376 235 456 q 280 183 235 254 q 417 113 325 113 q 530 149 476 113 q 623 243 583 185 q 685 377 663 301 q 708 532 708 453 q 663 725 708 654 q 525 796 617 796 m 639 978 l 496 978 l 399 1136 l 510 1136 l 574 1044 l 578 1044 l 676 1136 l 797 1136 l 639 978 z "},"Ọ":{"ha":899,"x_min":81,"x_max":861,"o":"m 408 -17 q 271 10 332 -17 q 167 86 210 36 q 103 207 125 136 q 81 365 81 278 q 116 579 81 478 q 213 758 151 681 q 356 880 274 835 q 533 925 439 925 q 671 899 610 925 q 774 822 732 872 q 839 701 817 772 q 861 543 861 631 q 826 329 861 431 q 731 151 792 228 q 587 28 669 74 q 408 -17 504 -17 m 525 796 q 411 760 464 796 q 319 665 358 724 q 258 531 281 607 q 235 376 235 456 q 280 183 235 254 q 417 113 325 113 q 530 149 476 113 q 623 243 583 185 q 685 377 663 301 q 708 532 708 453 q 663 725 708 654 q 525 796 617 796 m 350 -297 q 292 -277 318 -297 q 265 -219 265 -257 q 294 -151 265 -179 q 365 -122 324 -122 q 424 -142 397 -122 q 450 -200 450 -162 q 421 -269 450 -242 q 350 -297 392 -297 z "},"Ỏ":{"ha":899,"x_min":81,"x_max":861,"o":"m 408 -17 q 271 10 332 -17 q 167 86 210 36 q 103 207 125 136 q 81 365 81 278 q 116 579 81 478 q 213 758 151 681 q 356 880 274 835 q 533 925 439 925 q 671 899 610 925 q 774 822 732 872 q 839 701 817 772 q 861 543 861 631 q 826 329 861 431 q 731 151 792 228 q 587 28 669 74 q 408 -17 504 -17 m 525 796 q 411 760 464 796 q 319 665 358 724 q 258 531 281 607 q 235 376 235 456 q 280 183 235 254 q 417 113 325 113 q 530 149 476 113 q 623 243 583 185 q 685 377 663 301 q 708 532 708 453 q 663 725 708 654 q 525 796 617 796 m 525 1217 q 665 1184 624 1213 q 706 1115 706 1156 q 691 1055 706 1081 q 650 1011 676 1029 q 589 981 624 993 q 515 964 554 969 l 508 1026 q 569 1049 547 1036 q 592 1089 592 1063 q 572 1122 592 1110 q 494 1138 551 1135 l 525 1217 z "},"Ố":{"ha":899,"x_min":81,"x_max":967,"o":"m 408 -17 q 271 10 332 -17 q 167 86 210 36 q 103 207 125 136 q 81 365 81 278 q 116 579 81 478 q 213 758 151 681 q 356 880 274 835 q 533 925 439 925 q 671 899 610 925 q 774 822 732 872 q 839 701 817 772 q 861 543 861 631 q 826 329 861 431 q 731 151 792 228 q 587 28 669 74 q 408 -17 504 -17 m 525 796 q 411 760 464 796 q 319 665 358 724 q 258 531 281 607 q 235 376 235 456 q 280 183 235 254 q 417 113 325 113 q 530 149 476 113 q 623 243 583 185 q 685 377 663 301 q 708 532 708 453 q 663 725 708 654 q 525 796 617 796 m 850 1226 l 967 1226 l 822 1067 l 735 1067 l 850 1226 m 539 1128 l 667 1128 l 763 978 l 654 978 l 593 1060 l 588 1060 l 494 978 l 385 978 l 539 1128 z "},"Ồ":{"ha":899,"x_min":81,"x_max":872,"o":"m 408 -17 q 271 10 332 -17 q 167 86 210 36 q 103 207 125 136 q 81 365 81 278 q 116 579 81 478 q 213 758 151 681 q 356 880 274 835 q 533 925 439 925 q 671 899 610 925 q 774 822 732 872 q 839 701 817 772 q 861 543 861 631 q 826 329 861 431 q 731 151 792 228 q 587 28 669 74 q 408 -17 504 -17 m 525 796 q 411 760 464 796 q 319 665 358 724 q 258 531 281 607 q 235 376 235 456 q 280 183 235 254 q 417 113 325 113 q 530 149 476 113 q 623 243 583 185 q 685 377 663 301 q 708 532 708 453 q 663 725 708 654 q 525 796 617 796 m 872 1067 l 785 1067 l 699 1226 l 815 1226 l 872 1067 m 539 1128 l 667 1128 l 763 978 l 654 978 l 593 1060 l 588 1060 l 494 978 l 385 978 l 539 1128 z "},"Ổ":{"ha":899,"x_min":81,"x_max":917,"o":"m 408 -17 q 271 10 332 -17 q 167 86 210 36 q 103 207 125 136 q 81 365 81 278 q 116 579 81 478 q 213 758 151 681 q 356 880 274 835 q 533 925 439 925 q 671 899 610 925 q 774 822 732 872 q 839 701 817 772 q 861 543 861 631 q 826 329 861 431 q 731 151 792 228 q 587 28 669 74 q 408 -17 504 -17 m 525 796 q 411 760 464 796 q 319 665 358 724 q 258 531 281 607 q 235 376 235 456 q 280 183 235 254 q 417 113 325 113 q 530 149 476 113 q 623 243 583 185 q 685 377 663 301 q 708 532 708 453 q 663 725 708 654 q 525 796 617 796 m 539 1128 l 667 1128 l 763 978 l 654 978 l 593 1060 l 588 1060 l 494 978 l 385 978 l 539 1128 m 760 1263 q 882 1235 847 1260 q 917 1175 917 1211 q 872 1083 917 1113 q 757 1043 828 1054 l 750 1096 q 801 1118 783 1104 q 818 1156 818 1132 q 800 1184 818 1174 q 733 1197 782 1194 l 760 1263 z "},"Ỗ":{"ha":899,"x_min":81,"x_max":861,"o":"m 408 -17 q 271 10 332 -17 q 167 86 210 36 q 103 207 125 136 q 81 365 81 278 q 116 579 81 478 q 213 758 151 681 q 356 880 274 835 q 533 925 439 925 q 671 899 610 925 q 774 822 732 872 q 839 701 817 772 q 861 543 861 631 q 826 329 861 431 q 731 151 792 228 q 587 28 669 74 q 408 -17 504 -17 m 525 796 q 411 760 464 796 q 319 665 358 724 q 258 531 281 607 q 235 376 235 456 q 280 183 235 254 q 417 113 325 113 q 530 149 476 113 q 623 243 583 185 q 685 377 663 301 q 708 532 708 453 q 663 725 708 654 q 525 796 617 796 m 539 1128 l 667 1128 l 763 978 l 654 978 l 593 1060 l 588 1060 l 494 978 l 385 978 l 539 1128 m 422 1176 q 479 1282 442 1244 q 561 1319 517 1319 q 601 1310 583 1319 q 635 1288 619 1300 q 665 1265 651 1275 q 696 1256 679 1256 q 758 1318 732 1256 l 828 1318 q 770 1213 808 1250 q 689 1175 732 1175 q 648 1185 665 1175 q 615 1206 631 1194 q 586 1228 600 1218 q 556 1238 572 1238 q 493 1176 515 1238 l 422 1176 z "},"Ộ":{"ha":899,"x_min":81,"x_max":861,"o":"m 408 -17 q 271 10 332 -17 q 167 86 210 36 q 103 207 125 136 q 81 365 81 278 q 116 579 81 478 q 213 758 151 681 q 356 880 274 835 q 533 925 439 925 q 671 899 610 925 q 774 822 732 872 q 839 701 817 772 q 861 543 861 631 q 826 329 861 431 q 731 151 792 228 q 587 28 669 74 q 408 -17 504 -17 m 525 796 q 411 760 464 796 q 319 665 358 724 q 258 531 281 607 q 235 376 235 456 q 280 183 235 254 q 417 113 325 113 q 530 149 476 113 q 623 243 583 185 q 685 377 663 301 q 708 532 708 453 q 663 725 708 654 q 525 796 617 796 m 525 1136 l 669 1136 l 765 978 l 654 978 l 590 1069 l 586 1069 l 489 978 l 367 978 l 525 1136 m 350 -297 q 292 -277 318 -297 q 265 -219 265 -257 q 294 -151 265 -179 q 365 -122 324 -122 q 424 -142 397 -122 q 450 -200 450 -162 q 421 -269 450 -242 q 350 -297 392 -297 z "},"Ø":{"ha":899,"x_min":-8,"x_max":961,"o":"m 281 182 q 417 113 328 113 q 530 149 476 113 q 623 243 583 185 q 685 377 663 301 q 708 532 708 453 q 700 624 708 582 l 281 182 m 665 721 q 607 776 642 757 q 525 796 572 796 q 411 760 464 796 q 319 665 358 724 q 258 531 281 607 q 235 376 235 456 q 243 278 235 324 l 665 721 m 819 750 q 861 543 861 664 q 826 329 861 431 q 731 151 792 228 q 587 28 669 74 q 408 -17 504 -17 q 178 75 265 -17 l 61 -49 l -8 14 l 125 153 q 81 365 81 242 q 116 579 81 478 q 213 758 151 681 q 356 880 274 835 q 533 925 439 925 q 667 900 608 925 q 768 829 726 875 l 894 961 l 961 899 l 819 750 z "},"Œ":{"ha":1146,"x_min":81,"x_max":1175,"o":"m 81 356 q 116 588 81 485 q 217 761 151 690 q 373 870 282 832 q 576 908 464 908 l 1175 908 l 1150 782 l 800 782 l 753 538 l 1046 538 l 1021 411 l 728 411 l 669 126 l 1032 126 l 1007 0 l 475 0 q 183 91 285 0 q 81 356 81 182 m 579 788 q 440 759 503 788 q 331 676 376 731 q 260 544 285 622 q 235 365 235 465 q 299 182 235 243 q 479 121 363 121 l 521 121 l 653 788 l 579 788 z "},"Ơ":{"ha":899,"x_min":81,"x_max":944,"o":"m 417 113 q 530 149 476 113 q 623 243 583 185 q 685 377 663 301 q 708 532 708 453 q 663 725 708 654 q 525 796 617 796 q 411 760 464 796 q 319 665 358 724 q 258 531 281 607 q 235 376 235 456 q 280 183 235 254 q 417 113 325 113 m 928 1069 q 944 994 944 1029 q 899 886 944 932 q 772 825 853 840 q 838 704 815 775 q 861 543 861 633 q 826 329 861 431 q 731 151 792 228 q 587 28 669 74 q 408 -17 504 -17 q 271 10 332 -17 q 167 86 210 36 q 103 207 125 136 q 81 365 81 278 q 116 579 81 478 q 213 758 151 681 q 356 880 274 835 q 533 925 439 925 q 700 883 631 925 q 790 917 757 889 q 824 985 824 944 q 815 1033 824 1006 l 928 1069 z "},"Ớ":{"ha":899,"x_min":81,"x_max":944,"o":"m 417 113 q 530 149 476 113 q 623 243 583 185 q 685 377 663 301 q 708 532 708 453 q 663 725 708 654 q 525 796 617 796 q 411 760 464 796 q 319 665 358 724 q 258 531 281 607 q 235 376 235 456 q 280 183 235 254 q 417 113 325 113 m 928 1069 q 944 994 944 1029 q 899 886 944 932 q 772 825 853 840 q 838 704 815 775 q 861 543 861 633 q 826 329 861 431 q 731 151 792 228 q 587 28 669 74 q 408 -17 504 -17 q 271 10 332 -17 q 167 86 210 36 q 103 207 125 136 q 81 365 81 278 q 116 579 81 478 q 213 758 151 681 q 356 880 274 835 q 533 925 439 925 q 700 883 631 925 q 790 917 757 889 q 824 985 824 944 q 815 1033 824 1006 l 928 1069 m 606 1136 l 771 1136 l 586 978 l 461 978 l 606 1136 z "},"Ờ":{"ha":899,"x_min":81,"x_max":944,"o":"m 417 113 q 530 149 476 113 q 623 243 583 185 q 685 377 663 301 q 708 532 708 453 q 663 725 708 654 q 525 796 617 796 q 411 760 464 796 q 319 665 358 724 q 258 531 281 607 q 235 376 235 456 q 280 183 235 254 q 417 113 325 113 m 928 1069 q 944 994 944 1029 q 899 886 944 932 q 772 825 853 840 q 838 704 815 775 q 861 543 861 633 q 826 329 861 431 q 731 151 792 228 q 587 28 669 74 q 408 -17 504 -17 q 271 10 332 -17 q 167 86 210 36 q 103 207 125 136 q 81 365 81 278 q 116 579 81 478 q 213 758 151 681 q 356 880 274 835 q 533 925 439 925 q 700 883 631 925 q 790 917 757 889 q 824 985 824 944 q 815 1033 824 1006 l 928 1069 m 386 1136 l 539 1136 l 626 978 l 511 978 l 386 1136 z "},"Ở":{"ha":899,"x_min":81,"x_max":944,"o":"m 417 113 q 530 149 476 113 q 623 243 583 185 q 685 377 663 301 q 708 532 708 453 q 663 725 708 654 q 525 796 617 796 q 411 760 464 796 q 319 665 358 724 q 258 531 281 607 q 235 376 235 456 q 280 183 235 254 q 417 113 325 113 m 928 1069 q 944 994 944 1029 q 899 886 944 932 q 772 825 853 840 q 838 704 815 775 q 861 543 861 633 q 826 329 861 431 q 731 151 792 228 q 587 28 669 74 q 408 -17 504 -17 q 271 10 332 -17 q 167 86 210 36 q 103 207 125 136 q 81 365 81 278 q 116 579 81 478 q 213 758 151 681 q 356 880 274 835 q 533 925 439 925 q 700 883 631 925 q 790 917 757 889 q 824 985 824 944 q 815 1033 824 1006 l 928 1069 m 506 1217 q 645 1184 604 1213 q 686 1115 686 1156 q 672 1055 686 1081 q 631 1011 657 1029 q 569 981 604 993 q 496 964 535 969 l 489 1026 q 550 1049 528 1036 q 572 1089 572 1063 q 552 1122 572 1110 q 475 1138 532 1135 l 506 1217 z "},"Ỡ":{"ha":899,"x_min":81,"x_max":944,"o":"m 417 113 q 530 149 476 113 q 623 243 583 185 q 685 377 663 301 q 708 532 708 453 q 663 725 708 654 q 525 796 617 796 q 411 760 464 796 q 319 665 358 724 q 258 531 281 607 q 235 376 235 456 q 280 183 235 254 q 417 113 325 113 m 928 1069 q 944 994 944 1029 q 899 886 944 932 q 772 825 853 840 q 838 704 815 775 q 861 543 861 633 q 826 329 861 431 q 731 151 792 228 q 587 28 669 74 q 408 -17 504 -17 q 271 10 332 -17 q 167 86 210 36 q 103 207 125 136 q 81 365 81 278 q 116 579 81 478 q 213 758 151 681 q 356 880 274 835 q 533 925 439 925 q 700 883 631 925 q 790 917 757 889 q 824 985 824 944 q 815 1033 824 1006 l 928 1069 m 339 982 q 401 1101 358 1057 q 492 1146 443 1146 q 539 1135 519 1146 q 574 1110 558 1124 q 606 1086 590 1097 q 643 1075 622 1075 q 706 1143 681 1075 l 786 1143 q 725 1024 767 1068 q 635 979 683 979 q 586 990 606 979 q 551 1015 567 1001 q 519 1039 535 1028 q 483 1050 504 1050 q 419 982 444 1050 l 339 982 z "},"Ợ":{"ha":899,"x_min":81,"x_max":944,"o":"m 417 113 q 530 149 476 113 q 623 243 583 185 q 685 377 663 301 q 708 532 708 453 q 663 725 708 654 q 525 796 617 796 q 411 760 464 796 q 319 665 358 724 q 258 531 281 607 q 235 376 235 456 q 280 183 235 254 q 417 113 325 113 m 928 1069 q 944 994 944 1029 q 899 886 944 932 q 772 825 853 840 q 838 704 815 775 q 861 543 861 633 q 826 329 861 431 q 731 151 792 228 q 587 28 669 74 q 408 -17 504 -17 q 271 10 332 -17 q 167 86 210 36 q 103 207 125 136 q 81 365 81 278 q 116 579 81 478 q 213 758 151 681 q 356 880 274 835 q 533 925 439 925 q 700 883 631 925 q 790 917 757 889 q 824 985 824 944 q 815 1033 824 1006 l 928 1069 m 347 -297 q 289 -277 315 -297 q 263 -219 263 -257 q 292 -151 263 -179 q 363 -122 321 -122 q 421 -142 394 -122 q 447 -200 447 -162 q 418 -269 447 -242 q 347 -297 389 -297 z "},"Ǫ":{"ha":899,"x_min":81,"x_max":861,"o":"m 525 796 q 411 760 464 796 q 319 665 358 724 q 258 531 281 607 q 235 376 235 456 q 280 183 235 254 q 417 113 325 113 q 530 149 476 113 q 623 243 583 185 q 685 377 663 301 q 708 532 708 453 q 663 725 708 654 q 525 796 617 796 m 861 543 q 838 367 861 451 q 771 210 815 282 q 660 84 726 139 q 510 -4 594 29 q 400 -76 433 -35 q 367 -153 367 -117 q 381 -189 367 -176 q 415 -201 396 -201 q 458 -187 436 -201 l 489 -264 q 428 -290 463 -281 q 364 -300 393 -300 q 278 -274 311 -300 q 246 -200 246 -249 q 258 -141 246 -169 q 287 -88 269 -112 q 325 -45 304 -64 q 364 -14 346 -26 q 155 102 229 3 q 81 365 81 201 q 116 579 81 478 q 213 758 151 681 q 356 880 274 835 q 533 925 439 925 q 671 899 610 925 q 774 822 732 872 q 839 701 817 772 q 861 543 861 631 z "},"Ŕ":{"ha":800,"x_min":44,"x_max":790,"o":"m 406 478 q 582 528 522 478 q 642 665 642 579 q 597 760 642 732 q 464 789 551 789 l 350 789 l 290 478 l 406 478 m 493 908 q 613 897 558 908 q 706 858 667 885 q 768 788 746 831 q 790 686 790 746 q 772 572 790 622 q 719 482 753 521 q 641 417 686 443 q 542 376 596 390 l 692 0 l 532 0 l 400 358 l 265 358 l 194 0 l 44 0 l 225 908 l 493 908 m 574 1136 l 739 1136 l 554 978 l 429 978 l 574 1136 z "},"Ř":{"ha":800,"x_min":44,"x_max":790,"o":"m 406 478 q 582 528 522 478 q 642 665 642 579 q 597 760 642 732 q 464 789 551 789 l 350 789 l 290 478 l 406 478 m 493 908 q 613 897 558 908 q 706 858 667 885 q 768 788 746 831 q 790 686 790 746 q 772 572 790 622 q 719 482 753 521 q 641 417 686 443 q 542 376 596 390 l 692 0 l 532 0 l 400 358 l 265 358 l 194 0 l 44 0 l 225 908 l 493 908 m 588 978 l 444 978 l 347 1136 l 458 1136 l 522 1044 l 526 1044 l 625 1136 l 746 1136 l 588 978 z "},"Ŗ":{"ha":800,"x_min":44,"x_max":790,"o":"m 406 478 q 582 528 522 478 q 642 665 642 579 q 597 760 642 732 q 464 789 551 789 l 350 789 l 290 478 l 406 478 m 493 908 q 613 897 558 908 q 706 858 667 885 q 768 788 746 831 q 790 686 790 746 q 772 572 790 622 q 719 482 753 521 q 641 417 686 443 q 542 376 596 390 l 692 0 l 532 0 l 400 358 l 265 358 l 194 0 l 44 0 l 225 908 l 493 908 m 328 -69 q 415 -103 383 -81 q 447 -167 447 -125 q 428 -231 447 -206 q 378 -273 410 -257 q 304 -297 346 -289 q 217 -308 263 -306 l 211 -246 q 306 -223 274 -239 q 339 -175 339 -207 q 324 -144 339 -156 q 288 -126 310 -133 l 328 -69 z "},"Ṛ":{"ha":800,"x_min":44,"x_max":790,"o":"m 406 478 q 582 528 522 478 q 642 665 642 579 q 597 760 642 732 q 464 789 551 789 l 350 789 l 290 478 l 406 478 m 493 908 q 613 897 558 908 q 706 858 667 885 q 768 788 746 831 q 790 686 790 746 q 772 572 790 622 q 719 482 753 521 q 641 417 686 443 q 542 376 596 390 l 692 0 l 532 0 l 400 358 l 265 358 l 194 0 l 44 0 l 225 908 l 493 908 m 329 -308 q 271 -288 297 -308 q 244 -231 244 -268 q 274 -162 244 -190 q 344 -133 303 -133 q 403 -153 376 -133 q 429 -211 429 -174 q 400 -281 429 -253 q 329 -308 371 -308 z "},"Ṝ":{"ha":800,"x_min":44,"x_max":790,"o":"m 406 478 q 582 528 522 478 q 642 665 642 579 q 597 760 642 732 q 464 789 551 789 l 350 789 l 290 478 l 406 478 m 493 908 q 613 897 558 908 q 706 858 667 885 q 768 788 746 831 q 790 686 790 746 q 772 572 790 622 q 719 482 753 521 q 641 417 686 443 q 542 376 596 390 l 692 0 l 532 0 l 400 358 l 265 358 l 194 0 l 44 0 l 225 908 l 493 908 m 365 1106 l 715 1106 l 696 1006 l 346 1006 l 365 1106 m 329 -308 q 271 -288 297 -308 q 244 -231 244 -268 q 274 -162 244 -190 q 344 -133 303 -133 q 403 -153 376 -133 q 429 -211 429 -174 q 400 -281 429 -253 q 329 -308 371 -308 z "},"Ṟ":{"ha":800,"x_min":44,"x_max":790,"o":"m 406 478 q 582 528 522 478 q 642 665 642 579 q 597 760 642 732 q 464 789 551 789 l 350 789 l 290 478 l 406 478 m 493 908 q 613 897 558 908 q 706 858 667 885 q 768 788 746 831 q 790 686 790 746 q 772 572 790 622 q 719 482 753 521 q 641 417 686 443 q 542 376 596 390 l 692 0 l 532 0 l 400 358 l 265 358 l 194 0 l 44 0 l 225 908 l 493 908 m 176 -150 l 522 -150 l 504 -249 l 157 -249 l 176 -150 z "},"Ś":{"ha":719,"x_min":11,"x_max":725,"o":"m 119 232 q 215 144 160 176 q 338 111 271 111 q 454 148 408 111 q 500 249 500 185 q 470 320 500 292 q 390 379 440 349 l 294 438 q 196 526 235 474 q 157 658 157 578 q 180 761 157 713 q 244 847 203 810 q 340 904 285 883 q 458 925 394 925 q 608 888 540 925 q 725 792 676 851 l 629 704 q 551 769 594 743 q 450 796 507 796 q 347 758 383 796 q 311 674 311 721 q 342 602 311 629 q 426 543 374 575 l 524 485 q 623 397 590 446 q 656 269 656 349 q 632 156 656 208 q 565 65 608 104 q 460 5 521 26 q 325 -17 399 -17 q 153 22 233 -17 q 11 149 74 61 l 119 232 m 547 1142 l 713 1142 l 528 983 l 403 983 l 547 1142 z "},"Ŝ":{"ha":719,"x_min":11,"x_max":725,"o":"m 119 232 q 215 144 160 176 q 338 111 271 111 q 454 148 408 111 q 500 249 500 185 q 470 320 500 292 q 390 379 440 349 l 294 438 q 196 526 235 474 q 157 658 157 578 q 180 761 157 713 q 244 847 203 810 q 340 904 285 883 q 458 925 394 925 q 608 888 540 925 q 725 792 676 851 l 629 704 q 551 769 594 743 q 450 796 507 796 q 347 758 383 796 q 311 674 311 721 q 342 602 311 629 q 426 543 374 575 l 524 485 q 623 397 590 446 q 656 269 656 349 q 632 156 656 208 q 565 65 608 104 q 460 5 521 26 q 325 -17 399 -17 q 153 22 233 -17 q 11 149 74 61 l 119 232 m 447 1142 l 592 1142 l 688 983 l 576 983 l 513 1075 l 508 1075 l 411 983 l 289 983 l 447 1142 z "},"Š":{"ha":719,"x_min":11,"x_max":725,"o":"m 119 232 q 215 144 160 176 q 338 111 271 111 q 454 148 408 111 q 500 249 500 185 q 470 320 500 292 q 390 379 440 349 l 294 438 q 196 526 235 474 q 157 658 157 578 q 180 761 157 713 q 244 847 203 810 q 340 904 285 883 q 458 925 394 925 q 608 888 540 925 q 725 792 676 851 l 629 704 q 551 769 594 743 q 450 796 507 796 q 347 758 383 796 q 311 674 311 721 q 342 602 311 629 q 426 543 374 575 l 524 485 q 623 397 590 446 q 656 269 656 349 q 632 156 656 208 q 565 65 608 104 q 460 5 521 26 q 325 -17 399 -17 q 153 22 233 -17 q 11 149 74 61 l 119 232 m 561 983 l 418 983 l 321 1142 l 432 1142 l 496 1050 l 500 1050 l 599 1142 l 719 1142 l 561 983 z "},"Ş":{"ha":719,"x_min":11,"x_max":725,"o":"m 119 232 q 215 144 160 176 q 338 111 271 111 q 454 148 408 111 q 500 249 500 185 q 470 320 500 292 q 390 379 440 349 l 294 438 q 196 526 235 474 q 157 658 157 578 q 180 761 157 713 q 244 847 203 810 q 340 904 285 883 q 458 925 394 925 q 608 888 540 925 q 725 792 676 851 l 629 704 q 551 769 594 743 q 450 796 507 796 q 347 758 383 796 q 311 674 311 721 q 342 602 311 629 q 426 543 374 575 l 524 485 q 623 397 590 446 q 656 269 656 349 q 632 156 656 208 q 565 65 608 104 q 460 5 521 26 q 325 -17 399 -17 q 153 22 233 -17 q 11 149 74 61 l 119 232 m 289 4 l 381 4 l 333 -68 q 378 -97 360 -78 q 396 -149 396 -117 q 376 -213 396 -186 q 324 -258 357 -240 q 249 -287 292 -276 q 160 -300 206 -297 l 154 -237 q 245 -212 208 -231 q 282 -161 282 -194 q 267 -128 282 -142 q 214 -104 253 -115 l 289 4 z "},"Ș":{"ha":719,"x_min":11,"x_max":725,"o":"m 119 232 q 215 144 160 176 q 338 111 271 111 q 454 148 408 111 q 500 249 500 185 q 470 320 500 292 q 390 379 440 349 l 294 438 q 196 526 235 474 q 157 658 157 578 q 180 761 157 713 q 244 847 203 810 q 340 904 285 883 q 458 925 394 925 q 608 888 540 925 q 725 792 676 851 l 629 704 q 551 769 594 743 q 450 796 507 796 q 347 758 383 796 q 311 674 311 721 q 342 602 311 629 q 426 543 374 575 l 524 485 q 623 397 590 446 q 656 269 656 349 q 632 156 656 208 q 565 65 608 104 q 460 5 521 26 q 325 -17 399 -17 q 153 22 233 -17 q 11 149 74 61 l 119 232 m 275 -69 q 363 -103 331 -81 q 394 -167 394 -125 q 376 -231 394 -206 q 325 -273 357 -257 q 251 -297 293 -289 q 164 -308 210 -306 l 158 -246 q 253 -223 221 -239 q 286 -175 286 -207 q 272 -144 286 -156 q 235 -126 257 -133 l 275 -69 z "},"Ṡ":{"ha":719,"x_min":11,"x_max":725,"o":"m 119 232 q 215 144 160 176 q 338 111 271 111 q 454 148 408 111 q 500 249 500 185 q 470 320 500 292 q 390 379 440 349 l 294 438 q 196 526 235 474 q 157 658 157 578 q 180 761 157 713 q 244 847 203 810 q 340 904 285 883 q 458 925 394 925 q 608 888 540 925 q 725 792 676 851 l 629 704 q 551 769 594 743 q 450 796 507 796 q 347 758 383 796 q 311 674 311 721 q 342 602 311 629 q 426 543 374 575 l 524 485 q 623 397 590 446 q 656 269 656 349 q 632 156 656 208 q 565 65 608 104 q 460 5 521 26 q 325 -17 399 -17 q 153 22 233 -17 q 11 149 74 61 l 119 232 m 500 990 q 440 1010 467 990 q 414 1068 414 1029 q 444 1137 414 1108 q 514 1165 474 1165 q 574 1144 547 1165 q 600 1086 600 1124 q 571 1017 600 1044 q 500 990 542 990 z "},"Ṣ":{"ha":719,"x_min":11,"x_max":725,"o":"m 119 232 q 215 144 160 176 q 338 111 271 111 q 454 148 408 111 q 500 249 500 185 q 470 320 500 292 q 390 379 440 349 l 294 438 q 196 526 235 474 q 157 658 157 578 q 180 761 157 713 q 244 847 203 810 q 340 904 285 883 q 458 925 394 925 q 608 888 540 925 q 725 792 676 851 l 629 704 q 551 769 594 743 q 450 796 507 796 q 347 758 383 796 q 311 674 311 721 q 342 602 311 629 q 426 543 374 575 l 524 485 q 623 397 590 446 q 656 269 656 349 q 632 156 656 208 q 565 65 608 104 q 460 5 521 26 q 325 -17 399 -17 q 153 22 233 -17 q 11 149 74 61 l 119 232 m 276 -308 q 218 -288 244 -308 q 192 -231 192 -268 q 221 -162 192 -190 q 292 -133 250 -133 q 350 -153 324 -133 q 376 -211 376 -174 q 347 -281 376 -253 q 276 -308 318 -308 z "},"ẞ":{"ha":906,"x_min":44,"x_max":850,"o":"m 164 601 q 208 733 178 672 q 284 838 238 793 q 395 908 331 882 q 543 933 460 933 q 655 919 603 933 q 747 873 707 904 q 815 793 788 842 q 850 676 842 744 l 643 494 q 792 398 738 458 q 846 258 846 338 q 825 150 846 200 q 767 63 804 100 q 678 5 731 26 q 564 -17 626 -17 q 425 12 489 -17 q 315 97 361 40 l 403 189 q 465 128 429 153 q 554 104 501 104 q 607 115 582 104 q 651 146 632 126 q 681 192 669 165 q 692 249 692 218 q 645 342 692 296 q 488 419 599 389 l 496 510 l 703 696 q 640 783 683 754 q 533 813 596 813 q 390 750 450 813 q 306 567 329 688 l 194 0 l 44 0 l 164 601 z "},"Ť":{"ha":724,"x_min":122,"x_max":800,"o":"m 374 781 l 122 781 l 147 908 l 800 908 l 775 781 l 524 781 l 368 0 l 218 0 l 374 781 m 544 978 l 401 978 l 304 1136 l 415 1136 l 479 1044 l 483 1044 l 582 1136 l 703 1136 l 544 978 z "},"Ţ":{"ha":724,"x_min":114,"x_max":800,"o":"m 374 781 l 122 781 l 147 908 l 800 908 l 775 781 l 524 781 l 368 0 l 218 0 l 374 781 m 249 4 l 340 4 l 293 -68 q 338 -97 319 -78 q 356 -149 356 -117 q 336 -213 356 -186 q 284 -258 317 -240 q 208 -287 251 -276 q 119 -300 165 -297 l 114 -237 q 205 -212 168 -231 q 242 -161 242 -194 q 227 -128 242 -142 q 174 -104 213 -115 l 249 4 z "},"Ț":{"ha":724,"x_min":122,"x_max":800,"o":"m 374 781 l 122 781 l 147 908 l 800 908 l 775 781 l 524 781 l 368 0 l 218 0 l 374 781 m 246 -58 q 333 -92 301 -69 q 365 -156 365 -114 q 347 -220 365 -194 q 296 -262 328 -246 q 222 -286 264 -278 q 135 -297 181 -294 l 129 -235 q 224 -212 192 -228 q 257 -164 257 -196 q 242 -133 257 -144 q 206 -115 228 -122 l 246 -58 z "},"Ṭ":{"ha":724,"x_min":122,"x_max":800,"o":"m 374 781 l 122 781 l 147 908 l 800 908 l 775 781 l 524 781 l 368 0 l 218 0 l 374 781 m 247 -297 q 189 -277 215 -297 q 163 -219 163 -257 q 192 -151 163 -179 q 263 -122 221 -122 q 321 -142 294 -122 q 347 -200 347 -162 q 318 -269 347 -242 q 247 -297 289 -297 z "},"Ṯ":{"ha":724,"x_min":75,"x_max":800,"o":"m 374 781 l 122 781 l 147 908 l 800 908 l 775 781 l 524 781 l 368 0 l 218 0 l 374 781 m 94 -139 l 440 -139 l 422 -237 l 75 -237 l 94 -139 z "},"Ù":{"ha":875,"x_min":107,"x_max":878,"o":"m 221 908 l 371 908 l 269 400 q 257 293 257 342 q 294 159 257 206 q 418 113 332 113 q 542 171 490 113 q 622 367 594 229 l 731 908 l 878 908 l 768 367 q 638 74 728 164 q 413 -17 547 -17 q 184 58 261 -17 q 107 285 107 133 q 112 351 107 315 q 124 422 117 388 l 221 908 m 394 1136 l 547 1136 l 635 978 l 519 978 l 394 1136 z "},"Ú":{"ha":875,"x_min":107,"x_max":878,"o":"m 221 908 l 371 908 l 269 400 q 257 293 257 342 q 294 159 257 206 q 418 113 332 113 q 542 171 490 113 q 622 367 594 229 l 731 908 l 878 908 l 768 367 q 638 74 728 164 q 413 -17 547 -17 q 184 58 261 -17 q 107 285 107 133 q 112 351 107 315 q 124 422 117 388 l 221 908 m 614 1136 l 779 1136 l 594 978 l 469 978 l 614 1136 z "},"Û":{"ha":875,"x_min":107,"x_max":878,"o":"m 221 908 l 371 908 l 269 400 q 257 293 257 342 q 294 159 257 206 q 418 113 332 113 q 542 171 490 113 q 622 367 594 229 l 731 908 l 878 908 l 768 367 q 638 74 728 164 q 413 -17 547 -17 q 184 58 261 -17 q 107 285 107 133 q 112 351 107 315 q 124 422 117 388 l 221 908 m 514 1136 l 658 1136 l 754 978 l 643 978 l 579 1069 l 575 1069 l 478 978 l 356 978 l 514 1136 z "},"Ũ":{"ha":875,"x_min":107,"x_max":878,"o":"m 221 908 l 371 908 l 269 400 q 257 293 257 342 q 294 159 257 206 q 418 113 332 113 q 542 171 490 113 q 622 367 594 229 l 731 908 l 878 908 l 768 367 q 638 74 728 164 q 413 -17 547 -17 q 184 58 261 -17 q 107 285 107 133 q 112 351 107 315 q 124 422 117 388 l 221 908 m 347 982 q 409 1101 367 1057 q 500 1146 451 1146 q 547 1135 528 1146 q 583 1110 567 1124 q 615 1086 599 1097 q 651 1075 631 1075 q 714 1143 689 1075 l 794 1143 q 733 1024 775 1068 q 643 979 692 979 q 594 990 614 979 q 559 1015 575 1001 q 528 1039 543 1028 q 492 1050 513 1050 q 428 982 453 1050 l 347 982 z "},"Ü":{"ha":875,"x_min":107,"x_max":878,"o":"m 221 908 l 371 908 l 269 400 q 257 293 257 342 q 294 159 257 206 q 418 113 332 113 q 542 171 490 113 q 622 367 594 229 l 731 908 l 878 908 l 768 367 q 638 74 728 164 q 413 -17 547 -17 q 184 58 261 -17 q 107 285 107 133 q 112 351 107 315 q 124 422 117 388 l 221 908 m 440 983 q 392 1001 411 983 q 372 1051 372 1019 q 397 1114 372 1086 q 458 1142 422 1142 q 506 1124 486 1142 q 526 1074 526 1106 q 501 1012 526 1040 q 440 983 476 983 m 688 983 q 639 1001 658 983 q 619 1051 619 1019 q 644 1114 619 1086 q 706 1142 669 1142 q 753 1124 733 1142 q 774 1074 774 1106 q 749 1012 774 1040 q 688 983 724 983 z "},"Ū":{"ha":875,"x_min":107,"x_max":878,"o":"m 221 908 l 371 908 l 269 400 q 257 293 257 342 q 294 159 257 206 q 418 113 332 113 q 542 171 490 113 q 622 367 594 229 l 731 908 l 878 908 l 768 367 q 638 74 728 164 q 413 -17 547 -17 q 184 58 261 -17 q 107 285 107 133 q 112 351 107 315 q 124 422 117 388 l 221 908 m 406 1106 l 756 1106 l 736 1006 l 386 1006 l 406 1106 z "},"Ŭ":{"ha":875,"x_min":107,"x_max":878,"o":"m 221 908 l 371 908 l 269 400 q 257 293 257 342 q 294 159 257 206 q 418 113 332 113 q 542 171 490 113 q 622 367 594 229 l 731 908 l 878 908 l 768 367 q 638 74 728 164 q 413 -17 547 -17 q 184 58 261 -17 q 107 285 107 133 q 112 351 107 315 q 124 422 117 388 l 221 908 m 556 978 q 489 990 517 978 q 444 1024 461 1003 q 419 1075 426 1046 q 415 1136 413 1104 l 497 1136 q 513 1080 494 1103 q 569 1057 531 1057 q 635 1081 610 1057 q 672 1136 660 1104 l 757 1136 q 729 1074 746 1103 q 688 1024 713 1046 q 631 990 664 1003 q 556 978 599 978 z "},"Ů":{"ha":875,"x_min":107,"x_max":878,"o":"m 221 908 l 371 908 l 269 400 q 257 293 257 342 q 294 159 257 206 q 418 113 332 113 q 542 171 490 113 q 622 367 594 229 l 731 908 l 878 908 l 768 367 q 638 74 728 164 q 413 -17 547 -17 q 184 58 261 -17 q 107 285 107 133 q 112 351 107 315 q 124 422 117 388 l 221 908 m 569 968 q 478 995 517 968 q 440 1082 440 1022 q 452 1138 440 1111 q 484 1185 464 1165 q 531 1216 504 1204 q 588 1228 557 1228 q 678 1199 640 1228 q 717 1113 717 1171 q 705 1056 717 1082 q 673 1010 693 1029 q 626 979 653 990 q 569 968 600 968 m 585 1165 q 537 1142 557 1165 q 517 1089 517 1119 q 531 1047 517 1063 q 572 1031 544 1031 q 620 1053 600 1031 q 640 1107 640 1075 q 626 1149 640 1132 q 585 1165 611 1165 z "},"Ű":{"ha":875,"x_min":107,"x_max":878,"o":"m 221 908 l 371 908 l 269 400 q 257 293 257 342 q 294 159 257 206 q 418 113 332 113 q 542 171 490 113 q 622 367 594 229 l 731 908 l 878 908 l 768 367 q 638 74 728 164 q 413 -17 547 -17 q 184 58 261 -17 q 107 285 107 133 q 112 351 107 315 q 124 422 117 388 l 221 908 m 514 1138 l 644 1138 l 496 978 l 393 978 l 514 1138 m 735 1138 l 865 1138 l 718 978 l 615 978 l 735 1138 z "},"Ǔ":{"ha":875,"x_min":107,"x_max":878,"o":"m 221 908 l 371 908 l 269 400 q 257 293 257 342 q 294 159 257 206 q 418 113 332 113 q 542 171 490 113 q 622 367 594 229 l 731 908 l 878 908 l 768 367 q 638 74 728 164 q 413 -17 547 -17 q 184 58 261 -17 q 107 285 107 133 q 112 351 107 315 q 124 422 117 388 l 221 908 m 628 978 l 485 978 l 388 1136 l 499 1136 l 563 1044 l 567 1044 l 665 1136 l 786 1136 l 628 978 z "},"Ǖ":{"ha":875,"x_min":107,"x_max":878,"o":"m 221 908 l 371 908 l 269 400 q 257 293 257 342 q 294 159 257 206 q 418 113 332 113 q 542 171 490 113 q 622 367 594 229 l 731 908 l 878 908 l 768 367 q 638 74 728 164 q 413 -17 547 -17 q 184 58 261 -17 q 107 285 107 133 q 112 351 107 315 q 124 422 117 388 l 221 908 m 449 983 q 405 1000 422 983 q 388 1046 388 1017 q 410 1102 388 1076 q 467 1128 432 1128 q 511 1111 494 1128 q 528 1067 528 1094 q 506 1009 528 1035 q 449 983 483 983 m 692 983 q 648 1000 665 983 q 631 1046 631 1017 q 653 1102 631 1076 q 711 1128 675 1128 q 754 1111 736 1128 q 772 1067 772 1094 q 749 1009 772 1035 q 692 983 726 983 m 446 1276 l 797 1276 l 781 1200 l 431 1200 l 446 1276 z "},"Ǘ":{"ha":875,"x_min":107,"x_max":878,"o":"m 221 908 l 371 908 l 269 400 q 257 293 257 342 q 294 159 257 206 q 418 113 332 113 q 542 171 490 113 q 622 367 594 229 l 731 908 l 878 908 l 768 367 q 638 74 728 164 q 413 -17 547 -17 q 184 58 261 -17 q 107 285 107 133 q 112 351 107 315 q 124 422 117 388 l 221 908 m 661 1331 l 822 1331 l 638 1172 l 517 1172 l 661 1331 m 446 983 q 402 1000 419 983 q 385 1046 385 1017 q 408 1102 385 1076 q 465 1128 431 1128 q 509 1111 492 1128 q 526 1067 526 1094 q 504 1009 526 1035 q 446 983 482 983 m 690 983 q 646 1000 663 983 q 629 1046 629 1017 q 651 1102 629 1076 q 708 1128 672 1128 q 752 1111 735 1128 q 769 1067 769 1094 q 747 1009 769 1035 q 690 983 725 983 z "},"Ǚ":{"ha":875,"x_min":107,"x_max":878,"o":"m 221 908 l 371 908 l 269 400 q 257 293 257 342 q 294 159 257 206 q 418 113 332 113 q 542 171 490 113 q 622 367 594 229 l 731 908 l 878 908 l 768 367 q 638 74 728 164 q 413 -17 547 -17 q 184 58 261 -17 q 107 285 107 133 q 112 351 107 315 q 124 422 117 388 l 221 908 m 446 983 q 402 1000 419 983 q 385 1046 385 1017 q 408 1102 385 1076 q 465 1128 431 1128 q 509 1111 492 1128 q 526 1067 526 1094 q 504 1009 526 1035 q 446 983 482 983 m 690 983 q 646 1000 663 983 q 629 1046 629 1017 q 651 1102 629 1076 q 708 1128 672 1128 q 752 1111 735 1128 q 769 1067 769 1094 q 747 1009 769 1035 q 690 983 725 983 m 431 1331 l 547 1331 l 608 1239 l 613 1239 l 713 1331 l 829 1331 l 671 1172 l 528 1172 l 431 1331 z "},"Ǜ":{"ha":875,"x_min":107,"x_max":878,"o":"m 221 908 l 371 908 l 269 400 q 257 293 257 342 q 294 159 257 206 q 418 113 332 113 q 542 171 490 113 q 622 367 594 229 l 731 908 l 878 908 l 768 367 q 638 74 728 164 q 413 -17 547 -17 q 184 58 261 -17 q 107 285 107 133 q 112 351 107 315 q 124 422 117 388 l 221 908 m 439 1331 l 597 1331 l 685 1172 l 564 1172 l 439 1331 m 446 983 q 402 1000 419 983 q 385 1046 385 1017 q 408 1102 385 1076 q 465 1128 431 1128 q 509 1111 492 1128 q 526 1067 526 1094 q 504 1009 526 1035 q 446 983 482 983 m 690 983 q 646 1000 663 983 q 629 1046 629 1017 q 651 1102 629 1076 q 708 1128 672 1128 q 752 1111 735 1128 q 769 1067 769 1094 q 747 1009 769 1035 q 690 983 725 983 z "},"Ụ":{"ha":875,"x_min":107,"x_max":878,"o":"m 221 908 l 371 908 l 269 400 q 257 293 257 342 q 294 159 257 206 q 418 113 332 113 q 542 171 490 113 q 622 367 594 229 l 731 908 l 878 908 l 768 367 q 638 74 728 164 q 413 -17 547 -17 q 184 58 261 -17 q 107 285 107 133 q 112 351 107 315 q 124 422 117 388 l 221 908 m 332 -297 q 274 -277 300 -297 q 247 -219 247 -257 q 276 -151 247 -179 q 347 -122 306 -122 q 406 -142 379 -122 q 432 -200 432 -162 q 403 -269 432 -242 q 332 -297 374 -297 z "},"Ủ":{"ha":875,"x_min":107,"x_max":878,"o":"m 221 908 l 371 908 l 269 400 q 257 293 257 342 q 294 159 257 206 q 418 113 332 113 q 542 171 490 113 q 622 367 594 229 l 731 908 l 878 908 l 768 367 q 638 74 728 164 q 413 -17 547 -17 q 184 58 261 -17 q 107 285 107 133 q 112 351 107 315 q 124 422 117 388 l 221 908 m 514 1217 q 653 1184 613 1213 q 694 1115 694 1156 q 680 1055 694 1081 q 639 1011 665 1029 q 578 981 613 993 q 504 964 543 969 l 497 1026 q 558 1049 536 1036 q 581 1089 581 1063 q 560 1122 581 1110 q 483 1138 540 1135 l 514 1217 z "},"Ų":{"ha":875,"x_min":107,"x_max":878,"o":"m 768 367 q 727 218 751 281 q 669 112 703 156 q 590 40 635 68 q 490 -10 546 11 q 381 -77 414 -36 q 347 -153 347 -118 q 362 -189 347 -176 q 396 -201 376 -201 q 439 -187 417 -201 l 469 -264 q 408 -290 443 -281 q 344 -300 374 -300 q 259 -274 292 -300 q 226 -200 226 -249 q 238 -145 226 -172 q 266 -93 249 -118 q 304 -47 283 -68 q 346 -11 325 -26 q 167 79 228 6 q 107 285 107 153 q 112 351 107 315 q 124 422 117 388 l 221 908 l 371 908 l 269 400 q 257 293 257 342 q 294 159 257 206 q 418 113 332 113 q 542 171 490 113 q 622 367 594 229 l 731 908 l 878 908 l 768 367 z "},"Ư":{"ha":900,"x_min":107,"x_max":1053,"o":"m 1036 1094 q 1049 1057 1046 1075 q 1053 1019 1053 1039 q 1008 911 1053 958 q 865 846 964 864 l 768 367 q 638 74 728 164 q 413 -17 547 -17 q 184 58 261 -17 q 107 285 107 133 q 112 351 107 315 q 124 422 117 388 l 221 908 l 371 908 l 269 400 q 257 293 257 342 q 294 159 257 206 q 418 113 332 113 q 542 171 490 113 q 622 367 594 229 l 731 908 l 810 908 q 899 941 864 913 q 933 1008 933 969 q 924 1057 933 1032 l 1036 1094 z "},"Ứ":{"ha":900,"x_min":107,"x_max":1053,"o":"m 1036 1094 q 1049 1057 1046 1075 q 1053 1019 1053 1039 q 1008 911 1053 958 q 865 846 964 864 l 768 367 q 638 74 728 164 q 413 -17 547 -17 q 184 58 261 -17 q 107 285 107 133 q 112 351 107 315 q 124 422 117 388 l 221 908 l 371 908 l 269 400 q 257 293 257 342 q 294 159 257 206 q 418 113 332 113 q 542 171 490 113 q 622 367 594 229 l 731 908 l 810 908 q 899 941 864 913 q 933 1008 933 969 q 924 1057 933 1032 l 1036 1094 m 610 1136 l 775 1136 l 590 978 l 465 978 l 610 1136 z "},"Ừ":{"ha":900,"x_min":107,"x_max":1053,"o":"m 1036 1094 q 1049 1057 1046 1075 q 1053 1019 1053 1039 q 1008 911 1053 958 q 865 846 964 864 l 768 367 q 638 74 728 164 q 413 -17 547 -17 q 184 58 261 -17 q 107 285 107 133 q 112 351 107 315 q 124 422 117 388 l 221 908 l 371 908 l 269 400 q 257 293 257 342 q 294 159 257 206 q 418 113 332 113 q 542 171 490 113 q 622 367 594 229 l 731 908 l 810 908 q 899 941 864 913 q 933 1008 933 969 q 924 1057 933 1032 l 1036 1094 m 390 1136 l 543 1136 l 631 978 l 515 978 l 390 1136 z "},"Ử":{"ha":900,"x_min":107,"x_max":1053,"o":"m 1036 1094 q 1049 1057 1046 1075 q 1053 1019 1053 1039 q 1008 911 1053 958 q 865 846 964 864 l 768 367 q 638 74 728 164 q 413 -17 547 -17 q 184 58 261 -17 q 107 285 107 133 q 112 351 107 315 q 124 422 117 388 l 221 908 l 371 908 l 269 400 q 257 293 257 342 q 294 159 257 206 q 418 113 332 113 q 542 171 490 113 q 622 367 594 229 l 731 908 l 810 908 q 899 941 864 913 q 933 1008 933 969 q 924 1057 933 1032 l 1036 1094 m 510 1217 q 649 1184 608 1213 q 690 1115 690 1156 q 676 1055 690 1081 q 635 1011 661 1029 q 574 981 608 993 q 500 964 539 969 l 493 1026 q 554 1049 532 1036 q 576 1089 576 1063 q 556 1122 576 1110 q 479 1138 536 1135 l 510 1217 z "},"Ữ":{"ha":900,"x_min":107,"x_max":1053,"o":"m 1036 1094 q 1049 1057 1046 1075 q 1053 1019 1053 1039 q 1008 911 1053 958 q 865 846 964 864 l 768 367 q 638 74 728 164 q 413 -17 547 -17 q 184 58 261 -17 q 107 285 107 133 q 112 351 107 315 q 124 422 117 388 l 221 908 l 371 908 l 269 400 q 257 293 257 342 q 294 159 257 206 q 418 113 332 113 q 542 171 490 113 q 622 367 594 229 l 731 908 l 810 908 q 899 941 864 913 q 933 1008 933 969 q 924 1057 933 1032 l 1036 1094 m 343 982 q 405 1101 363 1057 q 496 1146 447 1146 q 543 1135 524 1146 q 578 1110 563 1124 q 610 1086 594 1097 q 647 1075 626 1075 q 710 1143 685 1075 l 790 1143 q 729 1024 771 1068 q 639 979 688 979 q 590 990 610 979 q 555 1015 571 1001 q 524 1039 539 1028 q 488 1050 508 1050 q 424 982 449 1050 l 343 982 z "},"Ự":{"ha":900,"x_min":107,"x_max":1053,"o":"m 1036 1094 q 1049 1057 1046 1075 q 1053 1019 1053 1039 q 1008 911 1053 958 q 865 846 964 864 l 768 367 q 638 74 728 164 q 413 -17 547 -17 q 184 58 261 -17 q 107 285 107 133 q 112 351 107 315 q 124 422 117 388 l 221 908 l 371 908 l 269 400 q 257 293 257 342 q 294 159 257 206 q 418 113 332 113 q 542 171 490 113 q 622 367 594 229 l 731 908 l 810 908 q 899 941 864 913 q 933 1008 933 969 q 924 1057 933 1032 l 1036 1094 m 335 -297 q 276 -277 303 -297 q 250 -219 250 -257 q 279 -151 250 -179 q 350 -122 308 -122 q 408 -142 382 -122 q 435 -200 435 -162 q 406 -269 435 -242 q 335 -297 376 -297 z "},"Ẁ":{"ha":1076,"x_min":119,"x_max":1156,"o":"m 142 908 l 294 908 l 274 442 q 264 295 268 368 q 253 147 260 222 l 258 147 q 321 296 289 222 q 382 442 353 369 l 589 908 l 718 908 l 726 442 q 722 147 726 294 l 728 147 q 782 296 754 222 q 836 442 810 369 l 1011 908 l 1156 908 l 792 0 l 603 0 l 600 494 q 603 598 600 542 q 608 707 606 654 l 603 707 q 562 601 583 654 q 518 494 540 547 l 306 0 l 119 0 l 142 908 m 488 1136 l 640 1136 l 728 978 l 613 978 l 488 1136 z "},"Ẃ":{"ha":1076,"x_min":119,"x_max":1156,"o":"m 142 908 l 294 908 l 274 442 q 264 295 268 368 q 253 147 260 222 l 258 147 q 321 296 289 222 q 382 442 353 369 l 589 908 l 718 908 l 726 442 q 722 147 726 294 l 728 147 q 782 296 754 222 q 836 442 810 369 l 1011 908 l 1156 908 l 792 0 l 603 0 l 600 494 q 603 598 600 542 q 608 707 606 654 l 603 707 q 562 601 583 654 q 518 494 540 547 l 306 0 l 119 0 l 142 908 m 707 1136 l 872 1136 l 688 978 l 563 978 l 707 1136 z "},"Ŵ":{"ha":1076,"x_min":119,"x_max":1156,"o":"m 142 908 l 294 908 l 274 442 q 264 295 268 368 q 253 147 260 222 l 258 147 q 321 296 289 222 q 382 442 353 369 l 589 908 l 718 908 l 726 442 q 722 147 726 294 l 728 147 q 782 296 754 222 q 836 442 810 369 l 1011 908 l 1156 908 l 792 0 l 603 0 l 600 494 q 603 598 600 542 q 608 707 606 654 l 603 707 q 562 601 583 654 q 518 494 540 547 l 306 0 l 119 0 l 142 908 m 607 1136 l 751 1136 l 847 978 l 736 978 l 672 1069 l 668 1069 l 571 978 l 449 978 l 607 1136 z "},"Ẅ":{"ha":1076,"x_min":119,"x_max":1156,"o":"m 142 908 l 294 908 l 274 442 q 264 295 268 368 q 253 147 260 222 l 258 147 q 321 296 289 222 q 382 442 353 369 l 589 908 l 718 908 l 726 442 q 722 147 726 294 l 728 147 q 782 296 754 222 q 836 442 810 369 l 1011 908 l 1156 908 l 792 0 l 603 0 l 600 494 q 603 598 600 542 q 608 707 606 654 l 603 707 q 562 601 583 654 q 518 494 540 547 l 306 0 l 119 0 l 142 908 m 533 983 q 485 1001 504 983 q 465 1051 465 1019 q 490 1114 465 1086 q 551 1142 515 1142 q 599 1124 579 1142 q 619 1074 619 1106 q 594 1012 619 1040 q 533 983 569 983 m 781 983 q 732 1001 751 983 q 713 1051 713 1019 q 738 1114 713 1086 q 799 1142 763 1142 q 847 1124 826 1142 q 867 1074 867 1106 q 842 1012 867 1040 q 781 983 817 983 z "},"Ỳ":{"ha":675,"x_min":114,"x_max":792,"o":"m 260 342 l 114 908 l 268 908 l 319 669 q 339 569 331 617 q 358 469 347 522 l 364 469 q 422 571 394 522 q 482 671 450 619 l 631 908 l 792 908 l 410 342 l 342 0 l 192 0 l 260 342 m 283 1136 l 436 1136 l 524 978 l 408 978 l 283 1136 z "},"Ý":{"ha":675,"x_min":114,"x_max":792,"o":"m 260 342 l 114 908 l 268 908 l 319 669 q 339 569 331 617 q 358 469 347 522 l 364 469 q 422 571 394 522 q 482 671 450 619 l 631 908 l 792 908 l 410 342 l 342 0 l 192 0 l 260 342 m 503 1136 l 668 1136 l 483 978 l 358 978 l 503 1136 z "},"Ŷ":{"ha":675,"x_min":114,"x_max":792,"o":"m 260 342 l 114 908 l 268 908 l 319 669 q 339 569 331 617 q 358 469 347 522 l 364 469 q 422 571 394 522 q 482 671 450 619 l 631 908 l 792 908 l 410 342 l 342 0 l 192 0 l 260 342 m 403 1136 l 547 1136 l 643 978 l 532 978 l 468 1069 l 464 1069 l 367 978 l 244 978 l 403 1136 z "},"Ÿ":{"ha":675,"x_min":114,"x_max":792,"o":"m 260 342 l 114 908 l 268 908 l 319 669 q 339 569 331 617 q 358 469 347 522 l 364 469 q 422 571 394 522 q 482 671 450 619 l 631 908 l 792 908 l 410 342 l 342 0 l 192 0 l 260 342 m 329 983 q 281 1001 300 983 q 261 1051 261 1019 q 286 1114 261 1086 q 347 1142 311 1142 q 395 1124 375 1142 q 415 1074 415 1106 q 390 1012 415 1040 q 329 983 365 983 m 576 983 q 528 1001 547 983 q 508 1051 508 1019 q 533 1114 508 1086 q 594 1142 558 1142 q 642 1124 622 1142 q 663 1074 663 1106 q 638 1012 663 1040 q 576 983 613 983 z "},"Ẏ":{"ha":675,"x_min":114,"x_max":792,"o":"m 260 342 l 114 908 l 268 908 l 319 669 q 339 569 331 617 q 358 469 347 522 l 364 469 q 422 571 394 522 q 482 671 450 619 l 631 908 l 792 908 l 410 342 l 342 0 l 192 0 l 260 342 m 456 985 q 396 1004 422 985 q 369 1063 369 1024 q 399 1131 369 1103 q 469 1160 429 1160 q 529 1139 503 1160 q 556 1081 556 1118 q 526 1012 556 1039 q 456 985 497 985 z "},"Ỵ":{"ha":675,"x_min":114,"x_max":792,"o":"m 260 342 l 114 908 l 268 908 l 319 669 q 339 569 331 617 q 358 469 347 522 l 364 469 q 422 571 394 522 q 482 671 450 619 l 631 908 l 792 908 l 410 342 l 342 0 l 192 0 l 260 342 m 224 -308 q 165 -288 192 -308 q 139 -231 139 -268 q 168 -162 139 -190 q 239 -133 197 -133 q 297 -153 271 -133 q 324 -211 324 -174 q 294 -281 324 -253 q 224 -308 265 -308 z "},"Ỷ":{"ha":675,"x_min":114,"x_max":792,"o":"m 260 342 l 114 908 l 268 908 l 319 669 q 339 569 331 617 q 358 469 347 522 l 364 469 q 422 571 394 522 q 482 671 450 619 l 631 908 l 792 908 l 410 342 l 342 0 l 192 0 l 260 342 m 403 1217 q 542 1184 501 1213 q 583 1115 583 1156 q 569 1055 583 1081 q 528 1011 554 1029 q 467 981 501 993 q 393 964 432 969 l 386 1026 q 447 1049 425 1036 q 469 1089 469 1063 q 449 1122 469 1110 q 372 1138 429 1135 l 403 1217 z "},"Ỹ":{"ha":675,"x_min":114,"x_max":792,"o":"m 260 342 l 114 908 l 268 908 l 319 669 q 339 569 331 617 q 358 469 347 522 l 364 469 q 422 571 394 522 q 482 671 450 619 l 631 908 l 792 908 l 410 342 l 342 0 l 192 0 l 260 342 m 236 982 q 298 1101 256 1057 q 389 1146 340 1146 q 436 1135 417 1146 q 472 1110 456 1124 q 503 1086 488 1097 q 540 1075 519 1075 q 603 1143 578 1075 l 683 1143 q 622 1024 664 1068 q 532 979 581 979 q 483 990 503 979 q 448 1015 464 1001 q 417 1039 432 1028 q 381 1050 401 1050 q 317 982 342 1050 l 236 982 z "},"Ź":{"ha":721,"x_min":-4,"x_max":761,"o":"m 15 90 l 557 782 l 171 782 l 196 908 l 761 908 l 743 818 l 206 126 l 631 126 l 604 0 l -4 0 l 15 90 m 540 1136 l 706 1136 l 521 978 l 396 978 l 540 1136 z "},"Ž":{"ha":721,"x_min":-4,"x_max":761,"o":"m 15 90 l 557 782 l 171 782 l 196 908 l 761 908 l 743 818 l 206 126 l 631 126 l 604 0 l -4 0 l 15 90 m 554 978 l 411 978 l 314 1136 l 425 1136 l 489 1044 l 493 1044 l 592 1136 l 713 1136 l 554 978 z "},"Ż":{"ha":721,"x_min":-4,"x_max":761,"o":"m 15 90 l 557 782 l 171 782 l 196 908 l 761 908 l 743 818 l 206 126 l 631 126 l 604 0 l -4 0 l 15 90 m 493 985 q 433 1004 460 985 q 407 1063 407 1024 q 437 1131 407 1103 q 507 1160 467 1160 q 567 1139 540 1160 q 593 1081 593 1118 q 564 1012 593 1039 q 493 985 535 985 z "},"Ẓ":{"ha":721,"x_min":-4,"x_max":761,"o":"m 15 90 l 557 782 l 171 782 l 196 908 l 761 908 l 743 818 l 206 126 l 631 126 l 604 0 l -4 0 l 15 90 m 249 -308 q 190 -288 217 -308 q 164 -231 164 -268 q 193 -162 164 -190 q 264 -133 222 -133 q 322 -153 296 -133 q 349 -211 349 -174 q 319 -281 349 -253 q 249 -308 290 -308 z "},"Ð":{"ha":864,"x_min":58,"x_max":828,"o":"m 331 121 q 470 149 407 121 q 579 232 533 178 q 650 365 625 286 q 675 543 675 443 q 611 726 675 665 q 431 788 547 788 l 375 788 l 321 515 l 511 515 l 494 438 l 306 438 l 243 121 l 331 121 m 435 908 q 726 817 625 908 q 828 553 828 726 q 792 321 828 424 q 692 147 757 218 q 537 38 628 76 q 333 0 446 0 l 69 0 l 157 438 l 58 438 l 74 510 l 172 515 l 250 908 l 435 908 z "},"Þ":{"ha":804,"x_min":44,"x_max":769,"o":"m 225 917 l 375 917 l 346 764 l 486 764 q 601 751 549 764 q 690 711 653 739 q 749 640 728 683 q 769 533 769 596 q 738 379 769 443 q 651 275 706 315 q 521 215 596 235 q 360 196 446 196 l 231 196 l 192 0 l 44 0 l 225 917 m 371 315 q 557 365 493 315 q 621 511 621 415 q 577 613 621 582 q 450 644 533 644 l 321 644 l 256 315 l 371 315 z "},"Ə":{"ha":906,"x_min":89,"x_max":871,"o":"m 232 388 q 232 271 222 322 q 267 184 242 219 q 329 130 292 149 q 413 111 367 111 q 506 131 461 111 q 589 187 551 150 q 656 274 626 224 q 701 388 685 325 l 232 388 m 264 822 q 389 902 317 871 q 551 933 461 933 q 691 907 631 933 q 791 831 751 881 q 851 712 831 782 q 871 556 871 642 q 833 324 871 429 q 732 144 796 219 q 583 26 668 68 q 401 -17 497 -17 q 270 8 328 -17 q 172 79 213 33 q 110 190 132 125 q 89 332 89 254 q 96 417 89 381 q 115 499 103 454 l 719 499 q 721 519 721 510 q 721 539 721 528 q 678 734 721 663 q 533 806 636 806 q 419 781 469 806 q 329 721 369 756 l 264 822 z "},"à":{"ha":756,"x_min":49,"x_max":724,"o":"m 49 232 q 79 415 49 329 q 161 563 110 500 q 278 663 213 626 q 415 699 344 699 q 507 673 465 699 q 572 603 549 647 l 575 603 l 604 682 l 724 682 l 588 0 l 465 0 l 472 94 l 468 94 q 360 14 419 44 q 243 -17 301 -17 q 101 47 153 -17 q 49 232 49 111 m 304 106 q 395 132 349 106 q 483 221 442 158 l 539 493 q 485 557 515 538 q 424 576 456 576 q 340 551 381 576 q 269 481 300 525 q 221 377 239 436 q 203 253 203 318 q 230 142 203 178 q 304 106 257 106 m 328 996 l 469 996 l 549 794 l 444 794 l 328 996 z "},"á":{"ha":756,"x_min":49,"x_max":724,"o":"m 49 232 q 79 415 49 329 q 161 563 110 500 q 278 663 213 626 q 415 699 344 699 q 507 673 465 699 q 572 603 549 647 l 575 603 l 604 682 l 724 682 l 588 0 l 465 0 l 472 94 l 468 94 q 360 14 419 44 q 243 -17 301 -17 q 101 47 153 -17 q 49 232 49 111 m 304 106 q 395 132 349 106 q 483 221 442 158 l 539 493 q 485 557 515 538 q 424 576 456 576 q 340 551 381 576 q 269 481 300 525 q 221 377 239 436 q 203 253 203 318 q 230 142 203 178 q 304 106 257 106 m 514 996 l 667 996 l 469 794 l 353 794 l 514 996 z "},"â":{"ha":756,"x_min":49,"x_max":724,"o":"m 49 232 q 79 415 49 329 q 161 563 110 500 q 278 663 213 626 q 415 699 344 699 q 507 673 465 699 q 572 603 549 647 l 575 603 l 604 682 l 724 682 l 588 0 l 465 0 l 472 94 l 468 94 q 360 14 419 44 q 243 -17 301 -17 q 101 47 153 -17 q 49 232 49 111 m 304 106 q 395 132 349 106 q 483 221 442 158 l 539 493 q 485 557 515 538 q 424 576 456 576 q 340 551 381 576 q 269 481 300 525 q 221 377 239 436 q 203 253 203 318 q 230 142 203 178 q 304 106 257 106 m 439 996 l 554 996 l 643 794 l 544 794 l 488 914 l 482 914 l 376 794 l 269 794 l 439 996 z "},"ã":{"ha":756,"x_min":49,"x_max":724,"o":"m 49 232 q 79 415 49 329 q 161 563 110 500 q 278 663 213 626 q 415 699 344 699 q 507 673 465 699 q 572 603 549 647 l 575 603 l 604 682 l 724 682 l 588 0 l 465 0 l 472 94 l 468 94 q 360 14 419 44 q 243 -17 301 -17 q 101 47 153 -17 q 49 232 49 111 m 304 106 q 395 132 349 106 q 483 221 442 158 l 539 493 q 485 557 515 538 q 424 576 456 576 q 340 551 381 576 q 269 481 300 525 q 221 377 239 436 q 203 253 203 318 q 230 142 203 178 q 304 106 257 106 m 258 803 q 320 922 281 879 q 406 964 360 964 q 456 953 436 964 q 492 930 476 943 q 524 906 508 917 q 561 896 539 896 q 619 961 592 896 l 700 961 q 640 843 679 886 q 553 800 600 800 q 502 811 522 800 q 466 835 482 822 q 435 858 450 847 q 397 869 419 869 q 339 803 367 869 l 258 803 z "},"ä":{"ha":756,"x_min":49,"x_max":724,"o":"m 49 232 q 79 415 49 329 q 161 563 110 500 q 278 663 213 626 q 415 699 344 699 q 507 673 465 699 q 572 603 549 647 l 575 603 l 604 682 l 724 682 l 588 0 l 465 0 l 472 94 l 468 94 q 360 14 419 44 q 243 -17 301 -17 q 101 47 153 -17 q 49 232 49 111 m 304 106 q 395 132 349 106 q 483 221 442 158 l 539 493 q 485 557 515 538 q 424 576 456 576 q 340 551 381 576 q 269 481 300 525 q 221 377 239 436 q 203 253 203 318 q 230 142 203 178 q 304 106 257 106 m 342 806 q 292 824 311 806 q 272 875 272 842 q 298 938 272 911 q 360 965 324 965 q 409 947 389 965 q 429 894 429 928 q 403 831 429 857 q 342 806 378 806 m 589 806 q 539 824 558 806 q 519 875 519 842 q 545 938 519 911 q 607 965 571 965 q 657 947 638 965 q 676 894 676 928 q 651 831 676 857 q 589 806 625 806 z "},"ā":{"ha":756,"x_min":49,"x_max":724,"o":"m 49 232 q 79 415 49 329 q 161 563 110 500 q 278 663 213 626 q 415 699 344 699 q 507 673 465 699 q 572 603 549 647 l 575 603 l 604 682 l 724 682 l 588 0 l 465 0 l 472 94 l 468 94 q 360 14 419 44 q 243 -17 301 -17 q 101 47 153 -17 q 49 232 49 111 m 304 106 q 395 132 349 106 q 483 221 442 158 l 539 493 q 485 557 515 538 q 424 576 456 576 q 340 551 381 576 q 269 481 300 525 q 221 377 239 436 q 203 253 203 318 q 230 142 203 178 q 304 106 257 106 m 308 928 l 654 928 l 636 829 l 289 829 l 308 928 z "},"ă":{"ha":756,"x_min":49,"x_max":724,"o":"m 49 232 q 79 415 49 329 q 161 563 110 500 q 278 663 213 626 q 415 699 344 699 q 507 673 465 699 q 572 603 549 647 l 575 603 l 604 682 l 724 682 l 588 0 l 465 0 l 472 94 l 468 94 q 360 14 419 44 q 243 -17 301 -17 q 101 47 153 -17 q 49 232 49 111 m 304 106 q 395 132 349 106 q 483 221 442 158 l 539 493 q 485 557 515 538 q 424 576 456 576 q 340 551 381 576 q 269 481 300 525 q 221 377 239 436 q 203 253 203 318 q 230 142 203 178 q 304 106 257 106 m 457 799 q 385 814 414 799 q 339 855 356 829 q 317 913 322 881 q 319 981 313 946 l 401 981 q 413 910 397 938 q 471 882 429 882 q 542 910 514 882 q 583 981 569 939 l 669 981 q 642 913 660 946 q 599 855 625 881 q 537 814 572 829 q 457 799 501 799 z "},"å":{"ha":756,"x_min":49,"x_max":724,"o":"m 49 232 q 79 415 49 329 q 161 563 110 500 q 278 663 213 626 q 415 699 344 699 q 507 673 465 699 q 572 603 549 647 l 575 603 l 604 682 l 724 682 l 588 0 l 465 0 l 472 94 l 468 94 q 360 14 419 44 q 243 -17 301 -17 q 101 47 153 -17 q 49 232 49 111 m 304 106 q 395 132 349 106 q 483 221 442 158 l 539 493 q 485 557 515 538 q 424 576 456 576 q 340 551 381 576 q 269 481 300 525 q 221 377 239 436 q 203 253 203 318 q 230 142 203 178 q 304 106 257 106 m 467 754 q 375 785 411 754 q 339 874 339 815 q 350 932 339 904 q 381 979 361 960 q 428 1010 401 999 q 486 1022 454 1022 q 577 992 542 1022 q 613 904 613 961 q 601 845 613 872 q 570 798 590 818 q 524 766 550 778 q 467 754 497 754 m 483 960 q 436 935 456 960 q 417 878 417 911 q 430 834 417 851 q 469 817 443 817 q 517 841 497 817 q 536 899 536 865 q 523 942 536 925 q 483 960 510 960 z "},"ǎ":{"ha":756,"x_min":49,"x_max":724,"o":"m 49 232 q 79 415 49 329 q 161 563 110 500 q 278 663 213 626 q 415 699 344 699 q 507 673 465 699 q 572 603 549 647 l 575 603 l 604 682 l 724 682 l 588 0 l 465 0 l 472 94 l 468 94 q 360 14 419 44 q 243 -17 301 -17 q 101 47 153 -17 q 49 232 49 111 m 304 106 q 395 132 349 106 q 483 221 442 158 l 539 493 q 485 557 515 538 q 424 576 456 576 q 340 551 381 576 q 269 481 300 525 q 221 377 239 436 q 203 253 203 318 q 230 142 203 178 q 304 106 257 106 m 517 794 l 401 794 l 311 996 l 410 996 l 468 878 l 474 878 l 578 996 l 686 996 l 517 794 z "},"ạ":{"ha":756,"x_min":49,"x_max":724,"o":"m 49 232 q 79 415 49 329 q 161 563 110 500 q 278 663 213 626 q 415 699 344 699 q 507 673 465 699 q 572 603 549 647 l 575 603 l 604 682 l 724 682 l 588 0 l 465 0 l 472 94 l 468 94 q 360 14 419 44 q 243 -17 301 -17 q 101 47 153 -17 q 49 232 49 111 m 304 106 q 395 132 349 106 q 483 221 442 158 l 539 493 q 485 557 515 538 q 424 576 456 576 q 340 551 381 576 q 269 481 300 525 q 221 377 239 436 q 203 253 203 318 q 230 142 203 178 q 304 106 257 106 m 285 -297 q 226 -277 253 -297 q 200 -219 200 -257 q 229 -151 200 -179 q 300 -122 258 -122 q 358 -142 332 -122 q 385 -200 385 -162 q 356 -269 385 -242 q 285 -297 326 -297 z "},"ả":{"ha":756,"x_min":49,"x_max":724,"o":"m 49 232 q 79 415 49 329 q 161 563 110 500 q 278 663 213 626 q 415 699 344 699 q 507 673 465 699 q 572 603 549 647 l 575 603 l 604 682 l 724 682 l 588 0 l 465 0 l 472 94 l 468 94 q 360 14 419 44 q 243 -17 301 -17 q 101 47 153 -17 q 49 232 49 111 m 304 106 q 395 132 349 106 q 483 221 442 158 l 539 493 q 485 557 515 538 q 424 576 456 576 q 340 551 381 576 q 269 481 300 525 q 221 377 239 436 q 203 253 203 318 q 230 142 203 178 q 304 106 257 106 m 435 1022 q 577 992 536 1019 q 618 921 618 964 q 603 860 618 886 q 563 817 589 835 q 503 787 538 799 q 429 769 468 775 l 421 833 q 483 857 460 844 q 506 896 506 869 q 484 928 506 917 q 406 944 463 940 l 435 1022 z "},"ấ":{"ha":756,"x_min":49,"x_max":849,"o":"m 49 232 q 79 415 49 329 q 161 563 110 500 q 278 663 213 626 q 415 699 344 699 q 507 673 465 699 q 572 603 549 647 l 575 603 l 604 682 l 724 682 l 588 0 l 465 0 l 472 94 l 468 94 q 360 14 419 44 q 243 -17 301 -17 q 101 47 153 -17 q 49 232 49 111 m 304 106 q 395 132 349 106 q 483 221 442 158 l 539 493 q 485 557 515 538 q 424 576 456 576 q 340 551 381 576 q 269 481 300 525 q 221 377 239 436 q 203 253 203 318 q 230 142 203 178 q 304 106 257 106 m 432 965 l 546 965 l 621 794 l 532 794 l 479 890 l 474 890 l 386 794 l 286 794 l 432 965 m 732 1051 l 849 1051 l 696 890 l 608 890 l 732 1051 z "},"ầ":{"ha":756,"x_min":49,"x_max":769,"o":"m 49 232 q 79 415 49 329 q 161 563 110 500 q 278 663 213 626 q 415 699 344 699 q 507 673 465 699 q 572 603 549 647 l 575 603 l 604 682 l 724 682 l 588 0 l 465 0 l 472 94 l 468 94 q 360 14 419 44 q 243 -17 301 -17 q 101 47 153 -17 q 49 232 49 111 m 304 106 q 395 132 349 106 q 483 221 442 158 l 539 493 q 485 557 515 538 q 424 576 456 576 q 340 551 381 576 q 269 481 300 525 q 221 377 239 436 q 203 253 203 318 q 230 142 203 178 q 304 106 257 106 m 769 890 l 682 890 l 593 1051 l 707 1051 l 769 890 m 432 965 l 546 965 l 621 794 l 532 794 l 479 890 l 474 890 l 386 794 l 286 794 l 432 965 z "},"ẩ":{"ha":756,"x_min":49,"x_max":804,"o":"m 49 232 q 79 415 49 329 q 161 563 110 500 q 278 663 213 626 q 415 699 344 699 q 507 673 465 699 q 572 603 549 647 l 575 603 l 604 682 l 724 682 l 588 0 l 465 0 l 472 94 l 468 94 q 360 14 419 44 q 243 -17 301 -17 q 101 47 153 -17 q 49 232 49 111 m 304 106 q 395 132 349 106 q 483 221 442 158 l 539 493 q 485 557 515 538 q 424 576 456 576 q 340 551 381 576 q 269 481 300 525 q 221 377 239 436 q 203 253 203 318 q 230 142 203 178 q 304 106 257 106 m 643 1100 q 767 1072 731 1096 q 804 1010 804 1047 q 792 953 804 976 q 757 913 779 929 q 704 888 735 897 q 639 871 674 878 l 635 925 q 685 949 669 936 q 700 986 700 963 q 683 1017 700 1006 q 618 1033 665 1028 l 643 1100 m 432 965 l 546 965 l 621 794 l 532 794 l 479 890 l 474 890 l 386 794 l 286 794 l 432 965 z "},"ẫ":{"ha":756,"x_min":49,"x_max":724,"o":"m 49 232 q 79 415 49 329 q 161 563 110 500 q 278 663 213 626 q 415 699 344 699 q 507 673 465 699 q 572 603 549 647 l 575 603 l 604 682 l 724 682 l 588 0 l 465 0 l 472 94 l 468 94 q 360 14 419 44 q 243 -17 301 -17 q 101 47 153 -17 q 49 232 49 111 m 304 106 q 395 132 349 106 q 483 221 442 158 l 539 493 q 485 557 515 538 q 424 576 456 576 q 340 551 381 576 q 269 481 300 525 q 221 377 239 436 q 203 253 203 318 q 230 142 203 178 q 304 106 257 106 m 635 794 l 540 794 l 476 878 l 471 878 l 381 794 l 274 794 l 417 940 l 551 940 l 635 794 m 310 992 q 367 1094 331 1058 q 443 1131 403 1131 q 485 1122 468 1131 q 517 1101 503 1113 q 545 1081 532 1090 q 575 1072 558 1072 q 607 1087 590 1072 q 633 1129 624 1101 l 703 1129 q 645 1026 682 1063 q 568 990 608 990 q 526 999 543 990 q 494 1019 508 1008 q 467 1040 481 1031 q 438 1049 454 1049 q 406 1034 422 1049 q 381 992 390 1019 l 310 992 z "},"ậ":{"ha":756,"x_min":49,"x_max":724,"o":"m 49 232 q 79 415 49 329 q 161 563 110 500 q 278 663 213 626 q 415 699 344 699 q 507 673 465 699 q 572 603 549 647 l 575 603 l 604 682 l 724 682 l 588 0 l 465 0 l 472 94 l 468 94 q 360 14 419 44 q 243 -17 301 -17 q 101 47 153 -17 q 49 232 49 111 m 304 106 q 395 132 349 106 q 483 221 442 158 l 539 493 q 485 557 515 538 q 424 576 456 576 q 340 551 381 576 q 269 481 300 525 q 221 377 239 436 q 203 253 203 318 q 230 142 203 178 q 304 106 257 106 m 439 996 l 554 996 l 643 794 l 544 794 l 488 914 l 482 914 l 376 794 l 269 794 l 439 996 m 285 -297 q 226 -277 253 -297 q 200 -219 200 -257 q 229 -151 200 -179 q 300 -122 258 -122 q 358 -142 332 -122 q 385 -200 385 -162 q 356 -269 385 -242 q 285 -297 326 -297 z "},"ắ":{"ha":756,"x_min":49,"x_max":724,"o":"m 49 232 q 79 415 49 329 q 161 563 110 500 q 278 663 213 626 q 415 699 344 699 q 507 673 465 699 q 572 603 549 647 l 575 603 l 604 682 l 724 682 l 588 0 l 465 0 l 472 94 l 468 94 q 360 14 419 44 q 243 -17 301 -17 q 101 47 153 -17 q 49 232 49 111 m 304 106 q 395 132 349 106 q 483 221 442 158 l 539 493 q 485 557 515 538 q 424 576 456 576 q 340 551 381 576 q 269 481 300 525 q 221 377 239 436 q 203 253 203 318 q 230 142 203 178 q 304 106 257 106 m 538 1107 l 651 1107 l 508 947 l 428 947 l 538 1107 m 456 799 q 383 814 413 799 q 338 855 354 829 q 317 913 321 881 q 318 981 313 946 l 388 981 q 402 905 382 933 q 471 876 422 876 q 548 906 515 876 q 596 981 581 935 l 669 981 q 642 913 660 946 q 598 855 625 881 q 535 814 571 829 q 456 799 500 799 z "},"ằ":{"ha":756,"x_min":49,"x_max":724,"o":"m 49 232 q 79 415 49 329 q 161 563 110 500 q 278 663 213 626 q 415 699 344 699 q 507 673 465 699 q 572 603 549 647 l 575 603 l 604 682 l 724 682 l 588 0 l 465 0 l 472 94 l 468 94 q 360 14 419 44 q 243 -17 301 -17 q 101 47 153 -17 q 49 232 49 111 m 304 106 q 395 132 349 106 q 483 221 442 158 l 539 493 q 485 557 515 538 q 424 576 456 576 q 340 551 381 576 q 269 481 300 525 q 221 377 239 436 q 203 253 203 318 q 230 142 203 178 q 304 106 257 106 m 456 799 q 383 814 413 799 q 338 855 354 829 q 317 913 321 881 q 318 981 313 946 l 388 981 q 402 905 382 933 q 471 876 422 876 q 548 906 515 876 q 596 981 581 935 l 669 981 q 642 913 660 946 q 598 855 625 881 q 535 814 571 829 q 456 799 500 799 m 542 947 l 464 947 l 385 1107 l 494 1107 l 542 947 z "},"ẳ":{"ha":756,"x_min":49,"x_max":724,"o":"m 49 232 q 79 415 49 329 q 161 563 110 500 q 278 663 213 626 q 415 699 344 699 q 507 673 465 699 q 572 603 549 647 l 575 603 l 604 682 l 724 682 l 588 0 l 465 0 l 472 94 l 468 94 q 360 14 419 44 q 243 -17 301 -17 q 101 47 153 -17 q 49 232 49 111 m 304 106 q 395 132 349 106 q 483 221 442 158 l 539 493 q 485 557 515 538 q 424 576 456 576 q 340 551 381 576 q 269 481 300 525 q 221 377 239 436 q 203 253 203 318 q 230 142 203 178 q 304 106 257 106 m 457 1186 q 578 1159 543 1183 q 613 1099 613 1135 q 569 1003 613 1032 q 454 958 525 974 l 450 1015 q 497 1038 482 1025 q 511 1074 511 1050 q 495 1103 511 1093 q 432 1118 479 1113 l 457 1186 m 456 799 q 383 814 413 799 q 338 855 354 829 q 317 913 321 881 q 318 981 313 946 l 388 981 q 402 905 382 933 q 471 876 422 876 q 548 906 515 876 q 596 981 581 935 l 669 981 q 642 913 660 946 q 598 855 625 881 q 535 814 571 829 q 456 799 500 799 z "},"ẵ":{"ha":756,"x_min":49,"x_max":724,"o":"m 49 232 q 79 415 49 329 q 161 563 110 500 q 278 663 213 626 q 415 699 344 699 q 507 673 465 699 q 572 603 549 647 l 575 603 l 604 682 l 724 682 l 588 0 l 465 0 l 472 94 l 468 94 q 360 14 419 44 q 243 -17 301 -17 q 101 47 153 -17 q 49 232 49 111 m 304 106 q 395 132 349 106 q 483 221 442 158 l 539 493 q 485 557 515 538 q 424 576 456 576 q 340 551 381 576 q 269 481 300 525 q 221 377 239 436 q 203 253 203 318 q 230 142 203 178 q 304 106 257 106 m 454 799 q 381 812 410 799 q 336 847 353 825 q 315 897 319 869 q 314 954 310 925 l 382 954 q 403 897 383 921 q 469 874 424 874 q 546 898 514 874 q 592 954 578 922 l 663 954 q 637 897 654 925 q 594 847 619 869 q 533 812 568 825 q 454 799 497 799 m 310 992 q 367 1094 331 1058 q 443 1131 403 1131 q 485 1122 468 1131 q 517 1101 503 1113 q 545 1081 532 1090 q 575 1072 558 1072 q 607 1087 590 1072 q 633 1129 624 1101 l 703 1129 q 645 1026 682 1063 q 568 990 608 990 q 526 999 543 990 q 494 1019 508 1008 q 467 1040 481 1031 q 438 1049 454 1049 q 406 1034 422 1049 q 381 992 390 1019 l 310 992 z "},"ặ":{"ha":756,"x_min":49,"x_max":724,"o":"m 49 232 q 79 415 49 329 q 161 563 110 500 q 278 663 213 626 q 415 699 344 699 q 507 673 465 699 q 572 603 549 647 l 575 603 l 604 682 l 724 682 l 588 0 l 465 0 l 472 94 l 468 94 q 360 14 419 44 q 243 -17 301 -17 q 101 47 153 -17 q 49 232 49 111 m 304 106 q 395 132 349 106 q 483 221 442 158 l 539 493 q 485 557 515 538 q 424 576 456 576 q 340 551 381 576 q 269 481 300 525 q 221 377 239 436 q 203 253 203 318 q 230 142 203 178 q 304 106 257 106 m 457 799 q 385 814 414 799 q 339 855 356 829 q 317 913 322 881 q 319 981 313 946 l 401 981 q 413 910 397 938 q 471 882 429 882 q 542 910 514 882 q 583 981 569 939 l 669 981 q 642 913 660 946 q 599 855 625 881 q 537 814 572 829 q 457 799 501 799 m 285 -297 q 226 -277 253 -297 q 200 -219 200 -257 q 229 -151 200 -179 q 300 -122 258 -122 q 358 -142 332 -122 q 385 -200 385 -162 q 356 -269 385 -242 q 285 -297 326 -297 z "},"ą":{"ha":756,"x_min":49,"x_max":724,"o":"m 49 232 q 79 415 49 329 q 161 563 110 500 q 278 663 213 626 q 415 699 344 699 q 508 672 465 699 q 572 601 550 646 l 575 601 l 604 682 l 724 682 l 588 0 q 477 -67 517 -28 q 438 -150 438 -106 q 452 -184 438 -172 q 486 -196 467 -196 q 535 -181 511 -196 l 563 -247 q 501 -277 536 -265 q 438 -289 467 -289 q 357 -265 389 -289 q 325 -192 325 -240 q 339 -130 325 -160 q 374 -74 353 -100 q 419 -28 394 -49 q 467 6 444 -8 l 472 96 l 469 96 q 361 15 421 46 q 243 -17 301 -17 q 101 47 153 -17 q 49 232 49 111 m 304 106 q 393 132 344 106 q 483 221 442 158 l 539 494 q 485 558 515 539 q 424 576 456 576 q 340 551 381 576 q 269 481 300 525 q 221 377 239 436 q 203 253 203 318 q 230 142 203 178 q 304 106 257 106 z "},"æ":{"ha":1053,"x_min":38,"x_max":1008,"o":"m 38 151 q 70 276 38 225 q 160 359 103 326 q 297 407 218 392 q 469 425 376 422 q 474 469 474 451 q 369 581 474 581 q 281 565 328 581 q 186 525 235 550 l 150 629 q 273 679 208 660 q 403 699 338 699 q 513 672 469 699 q 574 586 557 644 q 676 669 619 639 q 792 699 733 699 q 892 679 851 699 q 959 626 933 660 q 997 546 985 592 q 1008 447 1008 500 q 997 361 1008 403 q 979 303 986 319 l 581 303 q 612 152 568 207 q 733 97 656 97 q 806 114 769 97 q 872 151 843 131 l 926 56 q 830 5 886 26 q 703 -17 774 -17 q 572 19 629 -17 q 486 106 514 54 q 357 15 422 47 q 217 -17 292 -17 q 90 28 142 -17 q 38 151 38 72 m 878 397 q 883 427 881 414 q 885 457 885 440 q 860 545 885 507 q 774 583 836 583 q 669 534 721 583 q 593 397 617 485 l 878 397 m 450 331 q 251 289 319 328 q 183 182 183 250 q 209 121 183 142 q 275 100 235 100 q 357 124 311 100 q 450 200 403 149 q 444 264 444 235 q 450 331 444 293 z "},"ç":{"ha":610,"x_min":46,"x_max":617,"o":"m 46 261 q 77 433 46 353 q 162 572 108 513 q 287 665 215 631 q 438 699 358 699 q 544 674 500 699 q 617 615 589 649 l 533 525 q 486 565 510 553 q 428 578 463 578 q 340 553 382 578 q 267 485 299 528 q 217 387 236 443 q 199 267 199 331 q 233 147 199 189 q 336 104 267 104 q 408 120 376 104 q 465 157 439 136 l 529 63 q 437 9 490 35 q 306 -17 383 -17 q 201 2 249 -17 q 119 56 154 21 q 65 143 85 92 q 46 261 46 194 m 244 4 l 336 4 l 289 -68 q 333 -97 315 -78 q 351 -149 351 -117 q 332 -213 351 -186 q 280 -258 313 -240 q 204 -287 247 -276 q 115 -300 161 -297 l 110 -237 q 201 -212 164 -231 q 238 -161 238 -194 q 223 -128 238 -142 q 169 -104 208 -115 l 244 4 z "},"ć":{"ha":610,"x_min":46,"x_max":651,"o":"m 46 261 q 77 433 46 353 q 162 572 108 513 q 287 665 215 631 q 438 699 358 699 q 544 674 500 699 q 617 615 589 649 l 533 525 q 486 565 510 553 q 428 578 463 578 q 340 553 382 578 q 267 485 299 528 q 217 387 236 443 q 199 267 199 331 q 233 147 199 189 q 336 104 267 104 q 408 120 376 104 q 465 157 439 136 l 529 63 q 437 9 490 35 q 306 -17 383 -17 q 201 2 249 -17 q 119 56 154 21 q 65 143 85 92 q 46 261 46 194 m 499 996 l 651 996 l 454 794 l 338 794 l 499 996 z "},"ĉ":{"ha":610,"x_min":46,"x_max":628,"o":"m 46 261 q 77 433 46 353 q 162 572 108 513 q 287 665 215 631 q 438 699 358 699 q 544 674 500 699 q 617 615 589 649 l 533 525 q 486 565 510 553 q 428 578 463 578 q 340 553 382 578 q 267 485 299 528 q 217 387 236 443 q 199 267 199 331 q 233 147 199 189 q 336 104 267 104 q 408 120 376 104 q 465 157 439 136 l 529 63 q 437 9 490 35 q 306 -17 383 -17 q 201 2 249 -17 q 119 56 154 21 q 65 143 85 92 q 46 261 46 194 m 424 996 l 539 996 l 628 794 l 529 794 l 472 914 l 467 914 l 361 794 l 254 794 l 424 996 z "},"č":{"ha":610,"x_min":46,"x_max":671,"o":"m 46 261 q 77 433 46 353 q 162 572 108 513 q 287 665 215 631 q 438 699 358 699 q 544 674 500 699 q 617 615 589 649 l 533 525 q 486 565 510 553 q 428 578 463 578 q 340 553 382 578 q 267 485 299 528 q 217 387 236 443 q 199 267 199 331 q 233 147 199 189 q 336 104 267 104 q 408 120 376 104 q 465 157 439 136 l 529 63 q 437 9 490 35 q 306 -17 383 -17 q 201 2 249 -17 q 119 56 154 21 q 65 143 85 92 q 46 261 46 194 m 501 794 l 386 794 l 296 996 l 394 996 l 453 878 l 458 878 l 563 996 l 671 996 l 501 794 z "},"ċ":{"ha":610,"x_min":46,"x_max":617,"o":"m 46 261 q 77 433 46 353 q 162 572 108 513 q 287 665 215 631 q 438 699 358 699 q 544 674 500 699 q 617 615 589 649 l 533 525 q 486 565 510 553 q 428 578 463 578 q 340 553 382 578 q 267 485 299 528 q 217 387 236 443 q 199 267 199 331 q 233 147 199 189 q 336 104 267 104 q 408 120 376 104 q 465 157 439 136 l 529 63 q 437 9 490 35 q 306 -17 383 -17 q 201 2 249 -17 q 119 56 154 21 q 65 143 85 92 q 46 261 46 194 m 451 803 q 392 823 418 803 q 365 881 365 843 q 395 949 365 921 q 465 978 425 978 q 525 958 499 978 q 551 900 551 938 q 522 831 551 858 q 451 803 493 803 z "},"ď":{"ha":772,"x_min":49,"x_max":956,"o":"m 589 739 l 636 981 l 785 981 l 588 0 l 465 0 l 472 94 l 468 94 q 360 14 419 44 q 243 -17 301 -17 q 101 47 153 -17 q 49 232 49 111 q 79 415 49 329 q 161 563 110 500 q 278 663 213 626 q 415 699 344 699 q 504 674 465 699 q 565 608 543 649 l 569 608 l 589 739 m 304 106 q 394 132 349 106 q 483 221 440 158 l 539 493 q 485 557 515 538 q 424 576 456 576 q 340 551 381 576 q 269 481 300 525 q 221 377 239 436 q 203 253 203 318 q 230 142 203 178 q 304 106 257 106 m 801 761 l 857 1063 l 956 1063 l 938 975 l 869 761 l 801 761 z "},"ḍ":{"ha":750,"x_min":49,"x_max":785,"o":"m 589 739 l 636 981 l 785 981 l 588 0 l 465 0 l 472 94 l 468 94 q 360 14 419 44 q 243 -17 301 -17 q 101 47 153 -17 q 49 232 49 111 q 79 415 49 329 q 161 563 110 500 q 278 663 213 626 q 415 699 344 699 q 504 674 465 699 q 565 608 543 649 l 569 608 l 589 739 m 304 106 q 394 132 349 106 q 483 221 440 158 l 539 493 q 485 557 515 538 q 424 576 456 576 q 340 551 381 576 q 269 481 300 525 q 221 377 239 436 q 203 253 203 318 q 230 142 203 178 q 304 106 257 106 m 278 -297 q 219 -277 246 -297 q 193 -219 193 -257 q 222 -151 193 -179 q 293 -122 251 -122 q 351 -142 325 -122 q 378 -200 378 -162 q 349 -269 378 -242 q 278 -297 319 -297 z "},"ḏ":{"ha":750,"x_min":49,"x_max":785,"o":"m 589 739 l 636 981 l 785 981 l 588 0 l 465 0 l 472 94 l 468 94 q 360 14 419 44 q 243 -17 301 -17 q 101 47 153 -17 q 49 232 49 111 q 79 415 49 329 q 161 563 110 500 q 278 663 213 626 q 415 699 344 699 q 504 674 465 699 q 565 608 543 649 l 569 608 l 589 739 m 304 106 q 394 132 349 106 q 483 221 440 158 l 539 493 q 485 557 515 538 q 424 576 456 576 q 340 551 381 576 q 269 481 300 525 q 221 377 239 436 q 203 253 203 318 q 230 142 203 178 q 304 106 257 106 m 125 -139 l 471 -139 l 453 -237 l 106 -237 l 125 -139 z "},"đ":{"ha":753,"x_min":49,"x_max":857,"o":"m 533 465 q 483 529 513 510 q 422 549 454 549 q 340 523 379 549 q 269 456 300 497 q 221 361 239 414 q 203 253 203 308 q 230 142 203 178 q 304 106 257 106 q 394 132 349 106 q 483 221 440 158 l 533 465 m 840 792 l 746 785 l 588 0 l 465 0 l 472 94 l 468 94 q 360 14 419 44 q 243 -17 301 -17 q 101 47 153 -17 q 49 232 49 111 q 79 399 49 319 q 160 538 110 478 q 277 635 211 599 q 414 671 343 671 q 502 646 464 671 q 560 581 540 621 l 564 581 l 583 711 l 597 785 l 390 785 l 406 863 l 613 863 l 636 981 l 785 981 l 761 863 l 857 863 l 840 792 z "},"è":{"ha":678,"x_min":46,"x_max":635,"o":"m 46 272 q 78 447 46 368 q 165 581 111 525 q 285 668 218 638 q 418 699 351 699 q 519 679 478 699 q 585 626 560 660 q 623 546 611 592 q 635 447 635 500 q 624 361 635 403 q 606 303 613 319 l 190 303 q 196 210 185 249 q 230 146 207 171 q 286 109 253 121 q 358 97 319 97 q 432 114 394 97 q 497 151 469 131 l 553 56 q 452 5 511 26 q 319 -17 393 -17 q 208 3 258 -17 q 122 59 158 22 q 66 149 86 96 q 46 272 46 203 m 504 397 q 509 426 507 411 q 511 457 511 440 q 487 545 511 507 q 400 583 463 583 q 283 534 338 583 q 203 397 228 485 l 504 397 m 310 996 l 451 996 l 531 794 l 426 794 l 310 996 z "},"é":{"ha":678,"x_min":46,"x_max":649,"o":"m 46 272 q 78 447 46 368 q 165 581 111 525 q 285 668 218 638 q 418 699 351 699 q 519 679 478 699 q 585 626 560 660 q 623 546 611 592 q 635 447 635 500 q 624 361 635 403 q 606 303 613 319 l 190 303 q 196 210 185 249 q 230 146 207 171 q 286 109 253 121 q 358 97 319 97 q 432 114 394 97 q 497 151 469 131 l 553 56 q 452 5 511 26 q 319 -17 393 -17 q 208 3 258 -17 q 122 59 158 22 q 66 149 86 96 q 46 272 46 203 m 504 397 q 509 426 507 411 q 511 457 511 440 q 487 545 511 507 q 400 583 463 583 q 283 534 338 583 q 203 397 228 485 l 504 397 m 496 996 l 649 996 l 451 794 l 335 794 l 496 996 z "},"ê":{"ha":678,"x_min":46,"x_max":635,"o":"m 46 272 q 78 447 46 368 q 165 581 111 525 q 285 668 218 638 q 418 699 351 699 q 519 679 478 699 q 585 626 560 660 q 623 546 611 592 q 635 447 635 500 q 624 361 635 403 q 606 303 613 319 l 190 303 q 196 210 185 249 q 230 146 207 171 q 286 109 253 121 q 358 97 319 97 q 432 114 394 97 q 497 151 469 131 l 553 56 q 452 5 511 26 q 319 -17 393 -17 q 208 3 258 -17 q 122 59 158 22 q 66 149 86 96 q 46 272 46 203 m 504 397 q 509 426 507 411 q 511 457 511 440 q 487 545 511 507 q 400 583 463 583 q 283 534 338 583 q 203 397 228 485 l 504 397 m 421 996 l 536 996 l 625 794 l 526 794 l 469 914 l 464 914 l 358 794 l 251 794 l 421 996 z "},"ě":{"ha":678,"x_min":46,"x_max":668,"o":"m 46 272 q 78 447 46 368 q 165 581 111 525 q 285 668 218 638 q 418 699 351 699 q 519 679 478 699 q 585 626 560 660 q 623 546 611 592 q 635 447 635 500 q 624 361 635 403 q 606 303 613 319 l 190 303 q 196 210 185 249 q 230 146 207 171 q 286 109 253 121 q 358 97 319 97 q 432 114 394 97 q 497 151 469 131 l 553 56 q 452 5 511 26 q 319 -17 393 -17 q 208 3 258 -17 q 122 59 158 22 q 66 149 86 96 q 46 272 46 203 m 504 397 q 509 426 507 411 q 511 457 511 440 q 487 545 511 507 q 400 583 463 583 q 283 534 338 583 q 203 397 228 485 l 504 397 m 499 794 l 383 794 l 293 996 l 392 996 l 450 878 l 456 878 l 560 996 l 668 996 l 499 794 z "},"ë":{"ha":678,"x_min":46,"x_max":658,"o":"m 46 272 q 78 447 46 368 q 165 581 111 525 q 285 668 218 638 q 418 699 351 699 q 519 679 478 699 q 585 626 560 660 q 623 546 611 592 q 635 447 635 500 q 624 361 635 403 q 606 303 613 319 l 190 303 q 196 210 185 249 q 230 146 207 171 q 286 109 253 121 q 358 97 319 97 q 432 114 394 97 q 497 151 469 131 l 553 56 q 452 5 511 26 q 319 -17 393 -17 q 208 3 258 -17 q 122 59 158 22 q 66 149 86 96 q 46 272 46 203 m 504 397 q 509 426 507 411 q 511 457 511 440 q 487 545 511 507 q 400 583 463 583 q 283 534 338 583 q 203 397 228 485 l 504 397 m 324 806 q 274 824 293 806 q 254 875 254 842 q 280 938 254 911 q 342 965 306 965 q 391 947 371 965 q 411 894 411 928 q 385 831 411 857 q 324 806 360 806 m 571 806 q 521 824 540 806 q 501 875 501 842 q 527 938 501 911 q 589 965 553 965 q 639 947 619 965 q 658 894 658 928 q 633 831 658 857 q 571 806 607 806 z "},"ē":{"ha":678,"x_min":46,"x_max":636,"o":"m 46 272 q 78 447 46 368 q 165 581 111 525 q 285 668 218 638 q 418 699 351 699 q 519 679 478 699 q 585 626 560 660 q 623 546 611 592 q 635 447 635 500 q 624 361 635 403 q 606 303 613 319 l 190 303 q 196 210 185 249 q 230 146 207 171 q 286 109 253 121 q 358 97 319 97 q 432 114 394 97 q 497 151 469 131 l 553 56 q 452 5 511 26 q 319 -17 393 -17 q 208 3 258 -17 q 122 59 158 22 q 66 149 86 96 q 46 272 46 203 m 504 397 q 509 426 507 411 q 511 457 511 440 q 487 545 511 507 q 400 583 463 583 q 283 534 338 583 q 203 397 228 485 l 504 397 m 290 928 l 636 928 l 618 829 l 271 829 l 290 928 z "},"ĕ":{"ha":678,"x_min":46,"x_max":651,"o":"m 46 272 q 78 447 46 368 q 165 581 111 525 q 285 668 218 638 q 418 699 351 699 q 519 679 478 699 q 585 626 560 660 q 623 546 611 592 q 635 447 635 500 q 624 361 635 403 q 606 303 613 319 l 190 303 q 196 210 185 249 q 230 146 207 171 q 286 109 253 121 q 358 97 319 97 q 432 114 394 97 q 497 151 469 131 l 553 56 q 452 5 511 26 q 319 -17 393 -17 q 208 3 258 -17 q 122 59 158 22 q 66 149 86 96 q 46 272 46 203 m 504 397 q 509 426 507 411 q 511 457 511 440 q 487 545 511 507 q 400 583 463 583 q 283 534 338 583 q 203 397 228 485 l 504 397 m 439 799 q 367 814 396 799 q 321 855 338 829 q 299 913 304 881 q 301 981 294 946 l 383 981 q 395 910 379 938 q 453 882 411 882 q 524 910 496 882 q 565 981 551 939 l 651 981 q 624 913 642 946 q 581 855 607 881 q 519 814 554 829 q 439 799 483 799 z "},"ė":{"ha":678,"x_min":46,"x_max":635,"o":"m 46 272 q 78 447 46 368 q 165 581 111 525 q 285 668 218 638 q 418 699 351 699 q 519 679 478 699 q 585 626 560 660 q 623 546 611 592 q 635 447 635 500 q 624 361 635 403 q 606 303 613 319 l 190 303 q 196 210 185 249 q 230 146 207 171 q 286 109 253 121 q 358 97 319 97 q 432 114 394 97 q 497 151 469 131 l 553 56 q 452 5 511 26 q 319 -17 393 -17 q 208 3 258 -17 q 122 59 158 22 q 66 149 86 96 q 46 272 46 203 m 504 397 q 509 426 507 411 q 511 457 511 440 q 487 545 511 507 q 400 583 463 583 q 283 534 338 583 q 203 397 228 485 l 504 397 m 449 803 q 389 823 415 803 q 363 881 363 843 q 392 949 363 921 q 463 978 422 978 q 522 958 496 978 q 549 900 549 938 q 519 831 549 858 q 449 803 490 803 z "},"ẹ":{"ha":678,"x_min":46,"x_max":635,"o":"m 46 272 q 78 447 46 368 q 165 581 111 525 q 285 668 218 638 q 418 699 351 699 q 519 679 478 699 q 585 626 560 660 q 623 546 611 592 q 635 447 635 500 q 624 361 635 403 q 606 303 613 319 l 190 303 q 196 210 185 249 q 230 146 207 171 q 286 109 253 121 q 358 97 319 97 q 432 114 394 97 q 497 151 469 131 l 553 56 q 452 5 511 26 q 319 -17 393 -17 q 208 3 258 -17 q 122 59 158 22 q 66 149 86 96 q 46 272 46 203 m 504 397 q 509 426 507 411 q 511 457 511 440 q 487 545 511 507 q 400 583 463 583 q 283 534 338 583 q 203 397 228 485 l 504 397 m 257 -297 q 199 -277 225 -297 q 172 -219 172 -257 q 201 -151 172 -179 q 272 -122 231 -122 q 331 -142 304 -122 q 357 -200 357 -162 q 328 -269 357 -242 q 257 -297 299 -297 z "},"ẻ":{"ha":678,"x_min":46,"x_max":635,"o":"m 46 272 q 78 447 46 368 q 165 581 111 525 q 285 668 218 638 q 418 699 351 699 q 519 679 478 699 q 585 626 560 660 q 623 546 611 592 q 635 447 635 500 q 624 361 635 403 q 606 303 613 319 l 190 303 q 196 210 185 249 q 230 146 207 171 q 286 109 253 121 q 358 97 319 97 q 432 114 394 97 q 497 151 469 131 l 553 56 q 452 5 511 26 q 319 -17 393 -17 q 208 3 258 -17 q 122 59 158 22 q 66 149 86 96 q 46 272 46 203 m 504 397 q 509 426 507 411 q 511 457 511 440 q 487 545 511 507 q 400 583 463 583 q 283 534 338 583 q 203 397 228 485 l 504 397 m 426 1022 q 569 992 528 1019 q 610 921 610 964 q 595 860 610 886 q 555 817 581 835 q 494 787 529 799 q 421 769 460 775 l 413 833 q 474 857 451 844 q 497 896 497 869 q 476 928 497 917 q 397 944 454 940 l 426 1022 z "},"ẽ":{"ha":678,"x_min":46,"x_max":682,"o":"m 46 272 q 78 447 46 368 q 165 581 111 525 q 285 668 218 638 q 418 699 351 699 q 519 679 478 699 q 585 626 560 660 q 623 546 611 592 q 635 447 635 500 q 624 361 635 403 q 606 303 613 319 l 190 303 q 196 210 185 249 q 230 146 207 171 q 286 109 253 121 q 358 97 319 97 q 432 114 394 97 q 497 151 469 131 l 553 56 q 452 5 511 26 q 319 -17 393 -17 q 208 3 258 -17 q 122 59 158 22 q 66 149 86 96 q 46 272 46 203 m 504 397 q 509 426 507 411 q 511 457 511 440 q 487 545 511 507 q 400 583 463 583 q 283 534 338 583 q 203 397 228 485 l 504 397 m 240 803 q 302 922 263 879 q 388 964 342 964 q 438 953 418 964 q 474 930 458 943 q 506 906 490 917 q 543 896 521 896 q 601 961 574 896 l 682 961 q 622 843 661 886 q 535 800 582 800 q 484 811 504 800 q 448 835 464 822 q 417 858 432 847 q 379 869 401 869 q 321 803 349 869 l 240 803 z "},"ế":{"ha":678,"x_min":46,"x_max":831,"o":"m 46 272 q 78 447 46 368 q 165 581 111 525 q 285 668 218 638 q 418 699 351 699 q 519 679 478 699 q 585 626 560 660 q 623 546 611 592 q 635 447 635 500 q 624 361 635 403 q 606 303 613 319 l 190 303 q 196 210 185 249 q 230 146 207 171 q 286 109 253 121 q 358 97 319 97 q 432 114 394 97 q 497 151 469 131 l 553 56 q 452 5 511 26 q 319 -17 393 -17 q 208 3 258 -17 q 122 59 158 22 q 66 149 86 96 q 46 272 46 203 m 504 397 q 509 426 507 411 q 511 457 511 440 q 487 545 511 507 q 400 583 463 583 q 283 534 338 583 q 203 397 228 485 l 504 397 m 414 965 l 528 965 l 603 794 l 514 794 l 461 890 l 456 890 l 368 794 l 268 794 l 414 965 m 714 1051 l 831 1051 l 678 890 l 590 890 l 714 1051 z "},"ề":{"ha":678,"x_min":46,"x_max":751,"o":"m 46 272 q 78 447 46 368 q 165 581 111 525 q 285 668 218 638 q 418 699 351 699 q 519 679 478 699 q 585 626 560 660 q 623 546 611 592 q 635 447 635 500 q 624 361 635 403 q 606 303 613 319 l 190 303 q 196 210 185 249 q 230 146 207 171 q 286 109 253 121 q 358 97 319 97 q 432 114 394 97 q 497 151 469 131 l 553 56 q 452 5 511 26 q 319 -17 393 -17 q 208 3 258 -17 q 122 59 158 22 q 66 149 86 96 q 46 272 46 203 m 504 397 q 509 426 507 411 q 511 457 511 440 q 487 545 511 507 q 400 583 463 583 q 283 534 338 583 q 203 397 228 485 l 504 397 m 751 890 l 664 890 l 575 1051 l 689 1051 l 751 890 m 414 965 l 528 965 l 603 794 l 514 794 l 461 890 l 456 890 l 368 794 l 268 794 l 414 965 z "},"ể":{"ha":678,"x_min":46,"x_max":786,"o":"m 46 272 q 78 447 46 368 q 165 581 111 525 q 285 668 218 638 q 418 699 351 699 q 519 679 478 699 q 585 626 560 660 q 623 546 611 592 q 635 447 635 500 q 624 361 635 403 q 606 303 613 319 l 190 303 q 196 210 185 249 q 230 146 207 171 q 286 109 253 121 q 358 97 319 97 q 432 114 394 97 q 497 151 469 131 l 553 56 q 452 5 511 26 q 319 -17 393 -17 q 208 3 258 -17 q 122 59 158 22 q 66 149 86 96 q 46 272 46 203 m 504 397 q 509 426 507 411 q 511 457 511 440 q 487 545 511 507 q 400 583 463 583 q 283 534 338 583 q 203 397 228 485 l 504 397 m 625 1100 q 749 1072 713 1096 q 786 1010 786 1047 q 774 953 786 976 q 739 913 761 929 q 686 888 717 897 q 621 871 656 878 l 617 925 q 667 949 651 936 q 682 986 682 963 q 665 1017 682 1006 q 600 1033 647 1028 l 625 1100 m 414 965 l 528 965 l 603 794 l 514 794 l 461 890 l 456 890 l 368 794 l 268 794 l 414 965 z "},"ễ":{"ha":678,"x_min":46,"x_max":685,"o":"m 46 272 q 78 447 46 368 q 165 581 111 525 q 285 668 218 638 q 418 699 351 699 q 519 679 478 699 q 585 626 560 660 q 623 546 611 592 q 635 447 635 500 q 624 361 635 403 q 606 303 613 319 l 190 303 q 196 210 185 249 q 230 146 207 171 q 286 109 253 121 q 358 97 319 97 q 432 114 394 97 q 497 151 469 131 l 553 56 q 452 5 511 26 q 319 -17 393 -17 q 208 3 258 -17 q 122 59 158 22 q 66 149 86 96 q 46 272 46 203 m 504 397 q 509 426 507 411 q 511 457 511 440 q 487 545 511 507 q 400 583 463 583 q 283 534 338 583 q 203 397 228 485 l 504 397 m 617 794 l 522 794 l 458 878 l 453 878 l 363 794 l 256 794 l 399 940 l 533 940 l 617 794 m 292 992 q 349 1094 313 1058 q 425 1131 385 1131 q 467 1122 450 1131 q 499 1101 485 1113 q 527 1081 514 1090 q 557 1072 540 1072 q 589 1087 572 1072 q 615 1129 606 1101 l 685 1129 q 627 1026 664 1063 q 550 990 590 990 q 508 999 525 990 q 476 1019 490 1008 q 449 1040 463 1031 q 419 1049 436 1049 q 388 1034 404 1049 q 363 992 372 1019 l 292 992 z "},"ệ":{"ha":678,"x_min":46,"x_max":635,"o":"m 46 272 q 78 447 46 368 q 165 581 111 525 q 285 668 218 638 q 418 699 351 699 q 519 679 478 699 q 585 626 560 660 q 623 546 611 592 q 635 447 635 500 q 624 361 635 403 q 606 303 613 319 l 190 303 q 196 210 185 249 q 230 146 207 171 q 286 109 253 121 q 358 97 319 97 q 432 114 394 97 q 497 151 469 131 l 553 56 q 452 5 511 26 q 319 -17 393 -17 q 208 3 258 -17 q 122 59 158 22 q 66 149 86 96 q 46 272 46 203 m 504 397 q 509 426 507 411 q 511 457 511 440 q 487 545 511 507 q 400 583 463 583 q 283 534 338 583 q 203 397 228 485 l 504 397 m 421 996 l 536 996 l 625 794 l 526 794 l 469 914 l 464 914 l 358 794 l 251 794 l 421 996 m 257 -297 q 199 -277 225 -297 q 172 -219 172 -257 q 201 -151 172 -179 q 272 -122 231 -122 q 331 -142 304 -122 q 357 -200 357 -162 q 328 -269 357 -242 q 257 -297 299 -297 z "},"ę":{"ha":678,"x_min":46,"x_max":635,"o":"m 242 -192 q 254 -131 242 -160 q 285 -80 267 -103 q 321 -40 303 -57 q 350 -14 339 -24 q 335 -16 343 -15 q 321 -17 328 -17 q 209 3 260 -17 q 122 59 158 22 q 66 149 86 96 q 46 272 46 203 q 78 447 46 368 q 165 581 111 525 q 285 668 218 638 q 418 699 351 699 q 519 679 478 699 q 585 626 560 660 q 623 546 611 592 q 635 447 635 500 q 624 361 635 403 q 606 303 613 319 l 190 303 q 196 210 185 249 q 230 146 207 171 q 286 109 253 121 q 358 97 319 97 q 432 114 394 97 q 497 151 469 131 l 553 56 q 453 -6 492 24 q 392 -60 415 -35 q 361 -109 369 -86 q 353 -150 353 -132 q 367 -184 353 -172 q 403 -196 382 -196 q 451 -181 425 -196 l 478 -247 q 417 -277 451 -265 q 353 -289 382 -289 q 273 -265 304 -289 q 242 -192 242 -240 m 504 397 q 509 426 507 411 q 511 457 511 440 q 487 545 511 507 q 400 583 463 583 q 283 534 338 583 q 203 397 228 485 l 504 397 z "},"ĝ":{"ha":747,"x_min":-10,"x_max":715,"o":"m 715 682 l 576 -10 q 460 -228 547 -154 q 236 -303 372 -303 q 108 -278 171 -303 q -10 -208 44 -253 l 57 -108 q 142 -162 96 -140 q 240 -183 188 -183 q 365 -138 318 -183 q 435 -11 413 -93 l 468 115 l 464 115 q 362 42 415 69 q 247 14 308 14 q 105 74 161 14 q 49 254 49 135 q 78 428 49 347 q 158 569 108 508 q 273 664 208 629 q 407 699 338 699 q 498 673 457 699 q 561 603 539 647 l 565 603 l 594 682 l 715 682 m 301 138 q 390 162 342 138 q 478 240 438 186 l 529 493 q 476 557 506 538 q 415 576 447 576 q 335 552 374 576 q 267 486 297 528 q 220 390 238 444 q 203 274 203 335 q 230 171 203 204 q 301 138 257 138 m 429 996 l 544 996 l 633 794 l 535 794 l 478 914 l 472 914 l 367 794 l 260 794 l 429 996 z "},"ğ":{"ha":747,"x_min":-10,"x_max":715,"o":"m 715 682 l 576 -10 q 460 -228 547 -154 q 236 -303 372 -303 q 108 -278 171 -303 q -10 -208 44 -253 l 57 -108 q 142 -162 96 -140 q 240 -183 188 -183 q 365 -138 318 -183 q 435 -11 413 -93 l 468 115 l 464 115 q 362 42 415 69 q 247 14 308 14 q 105 74 161 14 q 49 254 49 135 q 78 428 49 347 q 158 569 108 508 q 273 664 208 629 q 407 699 338 699 q 498 673 457 699 q 561 603 539 647 l 565 603 l 594 682 l 715 682 m 301 138 q 390 162 342 138 q 478 240 438 186 l 529 493 q 476 557 506 538 q 415 576 447 576 q 335 552 374 576 q 267 486 297 528 q 220 390 238 444 q 203 274 203 335 q 230 171 203 204 q 301 138 257 138 m 447 799 q 375 814 404 799 q 329 855 346 829 q 308 913 313 881 q 310 981 303 946 l 392 981 q 403 910 388 938 q 461 882 419 882 q 532 910 504 882 q 574 981 560 939 l 660 981 q 633 913 650 946 q 589 855 615 881 q 527 814 563 829 q 447 799 492 799 z "},"ġ":{"ha":747,"x_min":-10,"x_max":715,"o":"m 715 682 l 576 -10 q 460 -228 547 -154 q 236 -303 372 -303 q 108 -278 171 -303 q -10 -208 44 -253 l 57 -108 q 142 -162 96 -140 q 240 -183 188 -183 q 365 -138 318 -183 q 435 -11 413 -93 l 468 115 l 464 115 q 362 42 415 69 q 247 14 308 14 q 105 74 161 14 q 49 254 49 135 q 78 428 49 347 q 158 569 108 508 q 273 664 208 629 q 407 699 338 699 q 498 673 457 699 q 561 603 539 647 l 565 603 l 594 682 l 715 682 m 301 138 q 390 162 342 138 q 478 240 438 186 l 529 493 q 476 557 506 538 q 415 576 447 576 q 335 552 374 576 q 267 486 297 528 q 220 390 238 444 q 203 274 203 335 q 230 171 203 204 q 301 138 257 138 m 457 803 q 397 823 424 803 q 371 881 371 843 q 401 949 371 921 q 471 978 431 978 q 531 958 504 978 q 557 900 557 938 q 528 831 557 858 q 457 803 499 803 z "},"ģ":{"ha":747,"x_min":-10,"x_max":715,"o":"m 715 682 l 576 -10 q 460 -228 547 -154 q 236 -303 372 -303 q 108 -278 171 -303 q -10 -208 44 -253 l 57 -108 q 142 -162 96 -140 q 240 -183 188 -183 q 365 -138 318 -183 q 435 -11 413 -93 l 468 115 l 464 115 q 362 42 415 69 q 247 14 308 14 q 105 74 161 14 q 49 254 49 135 q 78 428 49 347 q 158 569 108 508 q 273 664 208 629 q 407 699 338 699 q 498 673 457 699 q 561 603 539 647 l 565 603 l 594 682 l 715 682 m 301 138 q 390 162 342 138 q 478 240 438 186 l 529 493 q 476 557 506 538 q 415 576 447 576 q 335 552 374 576 q 267 486 297 528 q 220 390 238 444 q 203 274 203 335 q 230 171 203 204 q 301 138 257 138 m 482 754 q 394 788 426 765 q 363 853 363 811 q 381 917 363 892 q 432 959 400 943 q 506 983 464 975 q 593 994 547 992 l 599 932 q 503 909 536 925 q 471 861 471 893 q 485 831 471 842 q 522 811 500 819 l 482 754 z "},"ǧ":{"ha":747,"x_min":-10,"x_max":715,"o":"m 715 682 l 576 -10 q 460 -228 547 -154 q 236 -303 372 -303 q 108 -278 171 -303 q -10 -208 44 -253 l 57 -108 q 142 -162 96 -140 q 240 -183 188 -183 q 365 -138 318 -183 q 435 -11 413 -93 l 468 115 l 464 115 q 362 42 415 69 q 247 14 308 14 q 105 74 161 14 q 49 254 49 135 q 78 428 49 347 q 158 569 108 508 q 273 664 208 629 q 407 699 338 699 q 498 673 457 699 q 561 603 539 647 l 565 603 l 594 682 l 715 682 m 301 138 q 390 162 342 138 q 478 240 438 186 l 529 493 q 476 557 506 538 q 415 576 447 576 q 335 552 374 576 q 267 486 297 528 q 220 390 238 444 q 203 274 203 335 q 230 171 203 204 q 301 138 257 138 m 507 794 l 392 794 l 301 996 l 400 996 l 458 878 l 464 878 l 568 996 l 676 996 l 507 794 z "},"ḡ":{"ha":747,"x_min":-10,"x_max":715,"o":"m 715 682 l 576 -10 q 460 -228 547 -154 q 236 -303 372 -303 q 108 -278 171 -303 q -10 -208 44 -253 l 57 -108 q 142 -162 96 -140 q 240 -183 188 -183 q 365 -138 318 -183 q 435 -11 413 -93 l 468 115 l 464 115 q 362 42 415 69 q 247 14 308 14 q 105 74 161 14 q 49 254 49 135 q 78 428 49 347 q 158 569 108 508 q 273 664 208 629 q 407 699 338 699 q 498 673 457 699 q 561 603 539 647 l 565 603 l 594 682 l 715 682 m 301 138 q 390 162 342 138 q 478 240 438 186 l 529 493 q 476 557 506 538 q 415 576 447 576 q 335 552 374 576 q 267 486 297 528 q 220 390 238 444 q 203 274 203 335 q 230 171 203 204 q 301 138 257 138 m 299 928 l 644 928 l 626 829 l 279 829 l 299 928 z "},"ĥ":{"ha":740,"x_min":31,"x_max":682,"o":"m 228 981 l 376 981 l 317 692 l 290 593 l 296 593 q 403 668 349 638 q 521 699 458 699 q 644 654 607 699 q 682 526 682 610 q 680 481 682 503 q 671 431 678 458 l 585 0 l 436 0 l 519 411 q 527 451 524 435 q 531 483 531 468 q 444 571 531 571 q 367 546 408 571 q 272 465 326 521 l 181 0 l 31 0 l 228 981 m 267 1206 l 411 1206 l 507 1047 l 396 1047 l 332 1139 l 328 1139 l 231 1047 l 108 1047 l 267 1206 z "},"ḥ":{"ha":740,"x_min":31,"x_max":682,"o":"m 228 981 l 376 981 l 317 692 l 290 593 l 296 593 q 403 668 349 638 q 521 699 458 699 q 644 654 607 699 q 682 526 682 610 q 680 481 682 503 q 671 431 678 458 l 585 0 l 436 0 l 519 411 q 527 451 524 435 q 531 483 531 468 q 444 571 531 571 q 367 546 408 571 q 272 465 326 521 l 181 0 l 31 0 l 228 981 m 272 -297 q 214 -277 240 -297 q 188 -219 188 -257 q 217 -151 188 -179 q 288 -122 246 -122 q 346 -142 319 -122 q 372 -200 372 -162 q 343 -269 372 -242 q 272 -297 314 -297 z "},"ḫ":{"ha":740,"x_min":31,"x_max":682,"o":"m 228 981 l 376 981 l 317 692 l 290 593 l 296 593 q 403 668 349 638 q 521 699 458 699 q 644 654 607 699 q 682 526 682 610 q 680 481 682 503 q 671 431 678 458 l 585 0 l 436 0 l 519 411 q 527 451 524 435 q 531 483 531 468 q 444 571 531 571 q 367 546 408 571 q 272 465 326 521 l 181 0 l 31 0 l 228 981 m 263 -287 q 190 -272 219 -287 q 144 -231 161 -257 q 123 -173 128 -206 q 125 -106 118 -140 l 207 -106 q 219 -176 203 -149 q 276 -204 235 -204 q 347 -176 319 -204 q 389 -106 375 -147 l 475 -106 q 448 -173 465 -140 q 404 -231 431 -206 q 342 -272 378 -257 q 263 -287 307 -287 z "},"ħ":{"ha":740,"x_min":31,"x_max":676,"o":"m 290 565 q 398 640 343 610 q 515 671 453 671 q 639 626 601 671 q 676 499 676 582 q 674 453 676 475 q 665 403 672 431 l 585 0 l 436 0 l 514 383 q 522 424 518 407 q 525 456 525 440 q 439 543 525 543 q 362 518 403 543 q 267 438 321 493 l 181 0 l 31 0 l 189 785 l 92 785 l 106 856 l 204 863 l 228 981 l 376 981 l 351 863 l 586 863 l 569 785 l 336 785 l 311 664 l 285 565 l 290 565 z "},"ì":{"ha":349,"x_min":31,"x_max":353,"o":"m 168 682 l 317 682 l 181 0 l 31 0 l 168 682 m 132 996 l 274 996 l 353 794 l 249 794 l 132 996 z "},"í":{"ha":349,"x_min":31,"x_max":471,"o":"m 168 682 l 317 682 l 181 0 l 31 0 l 168 682 m 318 996 l 471 996 l 274 794 l 157 794 l 318 996 z "},"î":{"ha":349,"x_min":31,"x_max":447,"o":"m 168 682 l 317 682 l 181 0 l 31 0 l 168 682 m 243 996 l 358 996 l 447 794 l 349 794 l 292 914 l 286 914 l 181 794 l 74 794 l 243 996 z "},"ĩ":{"ha":349,"x_min":31,"x_max":504,"o":"m 168 682 l 317 682 l 181 0 l 31 0 l 168 682 m 63 803 q 124 922 85 879 q 210 964 164 964 q 260 953 240 964 q 297 930 281 943 q 328 906 313 917 q 365 896 343 896 q 424 961 396 896 l 504 961 q 444 843 483 886 q 357 800 404 800 q 306 811 326 800 q 270 835 286 822 q 239 858 254 847 q 201 869 224 869 q 143 803 171 869 l 63 803 z "},"ï":{"ha":349,"x_min":31,"x_max":481,"o":"m 168 682 l 317 682 l 181 0 l 31 0 l 168 682 m 146 806 q 96 824 115 806 q 76 875 76 842 q 102 938 76 911 q 164 965 128 965 q 213 947 193 965 q 233 894 233 928 q 208 831 233 857 q 146 806 182 806 m 393 806 q 343 824 363 806 q 324 875 324 842 q 349 938 324 911 q 411 965 375 965 q 461 947 442 965 q 481 894 481 928 q 455 831 481 857 q 393 806 429 806 z "},"ī":{"ha":349,"x_min":31,"x_max":458,"o":"m 168 682 l 317 682 l 181 0 l 31 0 l 168 682 m 113 928 l 458 928 l 440 829 l 93 829 l 113 928 z "},"ǐ":{"ha":349,"x_min":31,"x_max":490,"o":"m 168 682 l 317 682 l 181 0 l 31 0 l 168 682 m 321 794 l 206 794 l 115 996 l 214 996 l 272 878 l 278 878 l 382 996 l 490 996 l 321 794 z "},"ỉ":{"ha":349,"x_min":31,"x_max":431,"o":"m 168 682 l 317 682 l 181 0 l 31 0 l 168 682 m 247 1022 q 390 992 349 1019 q 431 921 431 964 q 416 860 431 886 q 376 817 401 835 q 315 787 350 799 q 242 769 281 775 l 233 833 q 295 857 272 844 q 318 896 318 869 q 297 928 318 917 q 218 944 275 940 l 247 1022 z "},"ị":{"ha":349,"x_min":-19,"x_max":378,"o":"m 168 682 l 317 682 l 181 0 l 31 0 l 168 682 m 278 803 q 219 823 246 803 q 193 881 193 843 q 222 949 193 921 q 293 978 251 978 q 351 958 325 978 q 378 900 378 938 q 349 831 378 858 q 278 803 319 803 m 65 -297 q 7 -277 33 -297 q -19 -219 -19 -257 q 10 -151 -19 -179 q 81 -122 39 -122 q 139 -142 113 -122 q 165 -200 165 -162 q 136 -269 165 -242 q 65 -297 107 -297 z "},"į":{"ha":349,"x_min":-56,"x_max":378,"o":"m 168 682 l 317 682 l 181 0 q 86 -71 117 -32 q 56 -150 56 -110 q 70 -184 56 -172 q 106 -196 85 -196 q 153 -181 129 -196 l 181 -247 q 119 -277 154 -265 q 56 -289 85 -289 q -24 -265 7 -289 q -56 -192 -56 -240 q -42 -131 -56 -160 q -10 -76 -29 -101 q 31 -32 10 -51 q 71 0 53 -12 l 31 0 l 168 682 m 278 803 q 219 823 246 803 q 193 881 193 843 q 222 949 193 921 q 293 978 251 978 q 351 958 325 978 q 378 900 378 938 q 349 831 378 858 q 278 803 319 803 z "},"ı":{"ha":349,"x_min":31,"x_max":317,"o":"m 168 682 l 317 682 l 181 0 l 31 0 l 168 682 z "},"ĵ":{"ha":350,"x_min":-178,"x_max":444,"o":"m 171 -53 q 142 -146 160 -103 q 97 -220 124 -189 q 31 -269 69 -251 q -58 -286 -7 -286 q -121 -280 -93 -286 q -178 -258 -149 -274 l -131 -150 q -69 -167 -104 -167 q -12 -137 -32 -167 q 22 -50 8 -108 l 169 682 l 318 682 l 171 -53 m 240 996 l 356 996 l 444 794 l 346 794 l 289 914 l 283 914 l 178 794 l 71 794 l 240 996 z "},"ķ":{"ha":696,"x_min":31,"x_max":726,"o":"m 228 981 l 376 981 l 253 364 l 258 364 l 560 682 l 726 682 l 451 390 l 614 0 l 464 0 l 347 303 l 214 168 l 181 0 l 31 0 l 228 981 m 269 -58 q 357 -92 325 -69 q 389 -156 389 -114 q 370 -220 389 -194 q 319 -262 351 -246 q 246 -286 288 -278 q 158 -297 204 -294 l 153 -235 q 248 -212 215 -228 q 281 -164 281 -196 q 266 -133 281 -144 q 229 -115 251 -122 l 269 -58 z "},"ĸ":{"ha":696,"x_min":31,"x_max":726,"o":"m 167 682 l 315 682 l 253 364 l 258 364 l 560 682 l 726 682 l 451 390 l 614 0 l 464 0 l 347 303 l 214 168 l 181 0 l 31 0 l 167 682 z "},"ĺ":{"ha":364,"x_min":56,"x_max":539,"o":"m 228 981 l 376 981 l 213 160 q 210 143 210 149 q 210 133 210 138 q 233 104 210 104 q 244 105 240 104 q 258 108 249 106 l 256 -3 q 219 -13 240 -10 q 171 -17 199 -17 q 83 13 111 -17 q 56 94 56 42 q 65 167 56 126 l 228 981 m 374 1211 l 539 1211 l 354 1053 l 229 1053 l 374 1211 z "},"ľ":{"ha":364,"x_min":56,"x_max":547,"o":"m 228 981 l 376 981 l 213 160 q 210 143 210 149 q 210 133 210 138 q 233 104 210 104 q 244 105 240 104 q 258 108 249 106 l 256 -3 q 219 -13 240 -10 q 171 -17 199 -17 q 83 13 111 -17 q 56 94 56 42 q 65 167 56 126 l 228 981 m 393 761 l 449 1063 l 547 1063 l 529 975 l 461 761 l 393 761 z "},"ŀ":{"ha":524,"x_min":56,"x_max":557,"o":"m 228 981 l 376 981 l 213 160 q 210 143 210 149 q 210 133 210 138 q 233 104 210 104 q 244 105 240 104 q 258 108 249 106 l 256 -3 q 219 -13 240 -10 q 171 -17 199 -17 q 83 13 111 -17 q 56 94 56 42 q 65 167 56 126 l 228 981 m 443 360 q 383 384 406 360 q 361 446 361 408 q 369 490 361 468 q 394 528 378 511 q 431 555 410 544 q 476 565 451 565 q 535 540 514 565 q 557 478 557 515 q 549 434 557 456 q 526 396 540 413 q 490 369 511 379 q 443 360 468 360 z "},"ļ":{"ha":364,"x_min":-57,"x_max":376,"o":"m 228 981 l 376 981 l 213 160 q 210 143 210 149 q 210 133 210 138 q 233 104 210 104 q 244 105 240 104 q 258 108 249 106 l 256 -3 q 219 -13 240 -10 q 171 -17 199 -17 q 83 13 111 -17 q 56 94 56 42 q 65 167 56 126 l 228 981 m 60 -58 q 147 -92 115 -69 q 179 -156 179 -114 q 160 -220 179 -194 q 110 -262 142 -246 q 36 -286 78 -278 q -51 -297 -6 -294 l -57 -235 q 38 -212 6 -228 q 71 -164 71 -196 q 56 -133 71 -144 q 19 -115 42 -122 l 60 -58 z "},"ḷ":{"ha":364,"x_min":-24,"x_max":376,"o":"m 228 981 l 376 981 l 213 160 q 210 143 210 149 q 210 133 210 138 q 233 104 210 104 q 244 105 240 104 q 258 108 249 106 l 256 -3 q 219 -13 240 -10 q 171 -17 199 -17 q 83 13 111 -17 q 56 94 56 42 q 65 167 56 126 l 228 981 m 61 -297 q 3 -277 29 -297 q -24 -219 -24 -257 q 6 -151 -24 -179 q 76 -122 35 -122 q 135 -142 108 -122 q 161 -200 161 -162 q 132 -269 161 -242 q 61 -297 103 -297 z "},"ḹ":{"ha":364,"x_min":-24,"x_max":515,"o":"m 228 981 l 376 981 l 213 160 q 210 143 210 149 q 210 133 210 138 q 233 104 210 104 q 244 105 240 104 q 258 108 249 106 l 256 -3 q 219 -13 240 -10 q 171 -17 199 -17 q 83 13 111 -17 q 56 94 56 42 q 65 167 56 126 l 228 981 m 169 1228 l 515 1228 l 497 1129 l 150 1129 l 169 1228 m 61 -297 q 3 -277 29 -297 q -24 -219 -24 -257 q 6 -151 -24 -179 q 76 -122 35 -122 q 135 -142 108 -122 q 161 -200 161 -162 q 132 -269 161 -242 q 61 -297 103 -297 z "},"ḻ":{"ha":364,"x_min":-111,"x_max":376,"o":"m 228 981 l 376 981 l 213 160 q 210 143 210 149 q 210 133 210 138 q 233 104 210 104 q 244 105 240 104 q 258 108 249 106 l 256 -3 q 219 -13 240 -10 q 171 -17 199 -17 q 83 13 111 -17 q 56 94 56 42 q 65 167 56 126 l 228 981 m -92 -139 l 254 -139 l 236 -237 l -111 -237 l -92 -139 z "},"ł":{"ha":374,"x_min":32,"x_max":419,"o":"m 222 160 q 219 143 219 149 q 219 133 219 138 q 226 111 219 118 q 244 104 233 104 q 254 105 250 104 q 268 108 258 106 l 265 -3 q 229 -13 250 -10 q 181 -17 208 -17 q 94 13 121 -17 q 67 94 67 42 q 75 167 67 122 l 128 431 l 32 378 l 58 503 l 153 556 l 238 981 l 386 981 l 317 632 l 419 693 l 397 569 l 292 508 l 222 160 z "},"ṃ":{"ha":1129,"x_min":31,"x_max":1064,"o":"m 167 682 l 288 682 l 281 586 l 286 586 q 396 665 339 632 q 508 699 453 699 q 575 689 547 699 q 622 663 603 679 q 651 623 640 646 q 667 572 661 600 q 788 665 728 631 q 903 699 847 699 q 1026 654 988 699 q 1064 526 1064 610 q 1061 481 1064 503 q 1053 431 1058 458 l 967 0 l 817 0 l 900 411 q 908 451 906 435 q 911 483 911 468 q 828 571 911 571 q 760 546 801 571 q 665 465 718 521 l 572 0 l 424 0 l 506 411 q 514 451 511 435 q 517 483 517 468 q 435 571 517 571 q 365 546 407 571 q 272 465 324 521 l 181 0 l 31 0 l 167 682 m 463 -297 q 404 -277 431 -297 q 378 -219 378 -257 q 407 -151 378 -179 q 478 -122 436 -122 q 536 -142 510 -122 q 563 -200 563 -162 q 533 -269 563 -242 q 463 -297 504 -297 z "},"ń":{"ha":749,"x_min":31,"x_max":696,"o":"m 167 682 l 288 682 l 281 586 l 286 586 q 398 665 340 632 q 521 699 456 699 q 644 654 607 699 q 682 526 682 610 q 680 481 682 503 q 671 431 678 458 l 585 0 l 436 0 l 519 411 q 527 451 524 435 q 531 483 531 468 q 444 571 531 571 q 367 546 408 571 q 272 465 326 521 l 181 0 l 31 0 l 167 682 m 543 996 l 696 996 l 499 794 l 382 794 l 543 996 z "},"ň":{"ha":749,"x_min":31,"x_max":715,"o":"m 167 682 l 288 682 l 281 586 l 286 586 q 398 665 340 632 q 521 699 456 699 q 644 654 607 699 q 682 526 682 610 q 680 481 682 503 q 671 431 678 458 l 585 0 l 436 0 l 519 411 q 527 451 524 435 q 531 483 531 468 q 444 571 531 571 q 367 546 408 571 q 272 465 326 521 l 181 0 l 31 0 l 167 682 m 546 794 l 431 794 l 340 996 l 439 996 l 497 878 l 503 878 l 607 996 l 715 996 l 546 794 z "},"ñ":{"ha":749,"x_min":31,"x_max":729,"o":"m 167 682 l 288 682 l 281 586 l 286 586 q 398 665 340 632 q 521 699 456 699 q 644 654 607 699 q 682 526 682 610 q 680 481 682 503 q 671 431 678 458 l 585 0 l 436 0 l 519 411 q 527 451 524 435 q 531 483 531 468 q 444 571 531 571 q 367 546 408 571 q 272 465 326 521 l 181 0 l 31 0 l 167 682 m 288 803 q 349 922 310 879 q 435 964 389 964 q 485 953 465 964 q 522 930 506 943 q 553 906 538 917 q 590 896 568 896 q 649 961 621 896 l 729 961 q 669 843 708 886 q 582 800 629 800 q 531 811 551 800 q 495 835 511 822 q 464 858 479 847 q 426 869 449 869 q 368 803 396 869 l 288 803 z "},"ņ":{"ha":749,"x_min":31,"x_max":682,"o":"m 167 682 l 288 682 l 281 586 l 286 586 q 398 665 340 632 q 521 699 456 699 q 644 654 607 699 q 682 526 682 610 q 680 481 682 503 q 671 431 678 458 l 585 0 l 436 0 l 519 411 q 527 451 524 435 q 531 483 531 468 q 444 571 531 571 q 367 546 408 571 q 272 465 326 521 l 181 0 l 31 0 l 167 682 m 274 -58 q 361 -92 329 -69 q 393 -156 393 -114 q 374 -220 393 -194 q 324 -262 356 -246 q 250 -286 292 -278 q 163 -297 208 -294 l 157 -235 q 252 -212 219 -228 q 285 -164 285 -196 q 270 -133 285 -144 q 233 -115 256 -122 l 274 -58 z "},"ṅ":{"ha":749,"x_min":31,"x_max":682,"o":"m 167 682 l 288 682 l 281 586 l 286 586 q 398 665 340 632 q 521 699 456 699 q 644 654 607 699 q 682 526 682 610 q 680 481 682 503 q 671 431 678 458 l 585 0 l 436 0 l 519 411 q 527 451 524 435 q 531 483 531 468 q 444 571 531 571 q 367 546 408 571 q 272 465 326 521 l 181 0 l 31 0 l 167 682 m 496 803 q 436 823 463 803 q 410 881 410 843 q 440 949 410 921 q 510 978 469 978 q 569 958 543 978 q 596 900 596 938 q 567 831 596 858 q 496 803 538 803 z "},"ṇ":{"ha":749,"x_min":31,"x_max":682,"o":"m 167 682 l 288 682 l 281 586 l 286 586 q 398 665 340 632 q 521 699 456 699 q 644 654 607 699 q 682 526 682 610 q 680 481 682 503 q 671 431 678 458 l 585 0 l 436 0 l 519 411 q 527 451 524 435 q 531 483 531 468 q 444 571 531 571 q 367 546 408 571 q 272 465 326 521 l 181 0 l 31 0 l 167 682 m 275 -297 q 217 -277 243 -297 q 190 -219 190 -257 q 219 -151 190 -179 q 290 -122 249 -122 q 349 -142 322 -122 q 375 -200 375 -162 q 346 -269 375 -242 q 275 -297 317 -297 z "},"ṉ":{"ha":749,"x_min":31,"x_max":682,"o":"m 167 682 l 288 682 l 281 586 l 286 586 q 398 665 340 632 q 521 699 456 699 q 644 654 607 699 q 682 526 682 610 q 680 481 682 503 q 671 431 678 458 l 585 0 l 436 0 l 519 411 q 527 451 524 435 q 531 483 531 468 q 444 571 531 571 q 367 546 408 571 q 272 465 326 521 l 181 0 l 31 0 l 167 682 m 122 -139 l 468 -139 l 450 -237 l 103 -237 l 122 -139 z "},"ŉ":{"ha":1085,"x_min":151,"x_max":1024,"o":"m 151 635 q 259 713 222 665 q 297 799 296 761 l 290 799 q 230 818 254 799 q 206 874 206 838 q 232 941 206 913 q 303 969 258 969 q 367 940 343 969 q 390 856 390 910 q 374 754 390 800 q 328 672 357 708 q 260 608 299 635 q 178 567 221 582 l 151 635 m 508 682 l 629 682 l 622 586 l 628 586 q 740 665 682 632 q 863 699 797 699 q 986 654 949 699 q 1024 526 1024 610 q 1022 481 1024 503 q 1013 431 1019 458 l 926 0 l 778 0 l 861 411 q 869 451 865 435 q 872 483 872 468 q 786 571 872 571 q 709 546 750 571 q 614 465 668 521 l 522 0 l 372 0 l 508 682 z "},"ò":{"ha":728,"x_min":47,"x_max":678,"o":"m 301 -17 q 197 3 244 -17 q 117 58 150 22 q 65 146 83 94 q 47 261 47 197 q 80 440 47 358 q 165 578 113 521 q 285 667 218 635 q 422 699 353 699 q 608 624 539 699 q 678 421 678 550 q 645 243 678 324 q 560 105 613 163 q 440 15 507 47 q 301 -17 372 -17 m 407 578 q 328 553 367 578 q 261 488 290 529 q 215 389 232 446 q 197 267 197 332 q 228 147 197 189 q 318 104 258 104 q 396 128 358 104 q 463 195 433 153 q 509 294 492 238 q 526 417 526 351 q 496 536 526 494 q 407 578 465 578 m 331 996 l 472 996 l 551 794 l 447 794 l 331 996 z "},"ó":{"ha":728,"x_min":47,"x_max":678,"o":"m 301 -17 q 197 3 244 -17 q 117 58 150 22 q 65 146 83 94 q 47 261 47 197 q 80 440 47 358 q 165 578 113 521 q 285 667 218 635 q 422 699 353 699 q 608 624 539 699 q 678 421 678 550 q 645 243 678 324 q 560 105 613 163 q 440 15 507 47 q 301 -17 372 -17 m 407 578 q 328 553 367 578 q 261 488 290 529 q 215 389 232 446 q 197 267 197 332 q 228 147 197 189 q 318 104 258 104 q 396 128 358 104 q 463 195 433 153 q 509 294 492 238 q 526 417 526 351 q 496 536 526 494 q 407 578 465 578 m 517 996 l 669 996 l 472 794 l 356 794 l 517 996 z "},"ô":{"ha":728,"x_min":47,"x_max":678,"o":"m 301 -17 q 197 3 244 -17 q 117 58 150 22 q 65 146 83 94 q 47 261 47 197 q 80 440 47 358 q 165 578 113 521 q 285 667 218 635 q 422 699 353 699 q 608 624 539 699 q 678 421 678 550 q 645 243 678 324 q 560 105 613 163 q 440 15 507 47 q 301 -17 372 -17 m 407 578 q 328 553 367 578 q 261 488 290 529 q 215 389 232 446 q 197 267 197 332 q 228 147 197 189 q 318 104 258 104 q 396 128 358 104 q 463 195 433 153 q 509 294 492 238 q 526 417 526 351 q 496 536 526 494 q 407 578 465 578 m 442 996 l 557 996 l 646 794 l 547 794 l 490 914 l 485 914 l 379 794 l 272 794 l 442 996 z "},"õ":{"ha":728,"x_min":47,"x_max":703,"o":"m 301 -17 q 197 3 244 -17 q 117 58 150 22 q 65 146 83 94 q 47 261 47 197 q 80 440 47 358 q 165 578 113 521 q 285 667 218 635 q 422 699 353 699 q 608 624 539 699 q 678 421 678 550 q 645 243 678 324 q 560 105 613 163 q 440 15 507 47 q 301 -17 372 -17 m 407 578 q 328 553 367 578 q 261 488 290 529 q 215 389 232 446 q 197 267 197 332 q 228 147 197 189 q 318 104 258 104 q 396 128 358 104 q 463 195 433 153 q 509 294 492 238 q 526 417 526 351 q 496 536 526 494 q 407 578 465 578 m 261 803 q 323 922 283 879 q 408 964 363 964 q 459 953 439 964 q 495 930 479 943 q 526 906 511 917 q 564 896 542 896 q 622 961 594 896 l 703 961 q 642 843 682 886 q 556 800 603 800 q 505 811 525 800 q 469 835 485 822 q 438 858 453 847 q 400 869 422 869 q 342 803 369 869 l 261 803 z "},"ö":{"ha":728,"x_min":47,"x_max":679,"o":"m 301 -17 q 197 3 244 -17 q 117 58 150 22 q 65 146 83 94 q 47 261 47 197 q 80 440 47 358 q 165 578 113 521 q 285 667 218 635 q 422 699 353 699 q 608 624 539 699 q 678 421 678 550 q 645 243 678 324 q 560 105 613 163 q 440 15 507 47 q 301 -17 372 -17 m 407 578 q 328 553 367 578 q 261 488 290 529 q 215 389 232 446 q 197 267 197 332 q 228 147 197 189 q 318 104 258 104 q 396 128 358 104 q 463 195 433 153 q 509 294 492 238 q 526 417 526 351 q 496 536 526 494 q 407 578 465 578 m 344 806 q 294 824 314 806 q 275 875 275 842 q 301 938 275 911 q 363 965 326 965 q 412 947 392 965 q 432 894 432 928 q 406 831 432 857 q 344 806 381 806 m 592 806 q 542 824 561 806 q 522 875 522 842 q 548 938 522 911 q 610 965 574 965 q 660 947 640 965 q 679 894 679 928 q 653 831 679 857 q 592 806 628 806 z "},"ō":{"ha":728,"x_min":47,"x_max":678,"o":"m 301 -17 q 197 3 244 -17 q 117 58 150 22 q 65 146 83 94 q 47 261 47 197 q 80 440 47 358 q 165 578 113 521 q 285 667 218 635 q 422 699 353 699 q 608 624 539 699 q 678 421 678 550 q 645 243 678 324 q 560 105 613 163 q 440 15 507 47 q 301 -17 372 -17 m 407 578 q 328 553 367 578 q 261 488 290 529 q 215 389 232 446 q 197 267 197 332 q 228 147 197 189 q 318 104 258 104 q 396 128 358 104 q 463 195 433 153 q 509 294 492 238 q 526 417 526 351 q 496 536 526 494 q 407 578 465 578 m 311 928 l 657 928 l 639 829 l 292 829 l 311 928 z "},"ő":{"ha":728,"x_min":47,"x_max":783,"o":"m 301 -17 q 197 3 244 -17 q 117 58 150 22 q 65 146 83 94 q 47 261 47 197 q 80 440 47 358 q 165 578 113 521 q 285 667 218 635 q 422 699 353 699 q 608 624 539 699 q 678 421 678 550 q 645 243 678 324 q 560 105 613 163 q 440 15 507 47 q 301 -17 372 -17 m 407 578 q 328 553 367 578 q 261 488 290 529 q 215 389 232 446 q 197 267 197 332 q 228 147 197 189 q 318 104 258 104 q 396 128 358 104 q 463 195 433 153 q 509 294 492 238 q 526 417 526 351 q 496 536 526 494 q 407 578 465 578 m 444 997 l 571 997 l 403 794 l 304 794 l 444 997 m 657 997 l 783 997 l 615 794 l 517 794 l 657 997 z "},"ǒ":{"ha":728,"x_min":47,"x_max":689,"o":"m 301 -17 q 197 3 244 -17 q 117 58 150 22 q 65 146 83 94 q 47 261 47 197 q 80 440 47 358 q 165 578 113 521 q 285 667 218 635 q 422 699 353 699 q 608 624 539 699 q 678 421 678 550 q 645 243 678 324 q 560 105 613 163 q 440 15 507 47 q 301 -17 372 -17 m 407 578 q 328 553 367 578 q 261 488 290 529 q 215 389 232 446 q 197 267 197 332 q 228 147 197 189 q 318 104 258 104 q 396 128 358 104 q 463 195 433 153 q 509 294 492 238 q 526 417 526 351 q 496 536 526 494 q 407 578 465 578 m 519 794 l 404 794 l 314 996 l 413 996 l 471 878 l 476 878 l 581 996 l 689 996 l 519 794 z "},"ọ":{"ha":728,"x_min":47,"x_max":678,"o":"m 301 -17 q 197 3 244 -17 q 117 58 150 22 q 65 146 83 94 q 47 261 47 197 q 80 440 47 358 q 165 578 113 521 q 285 667 218 635 q 422 699 353 699 q 608 624 539 699 q 678 421 678 550 q 645 243 678 324 q 560 105 613 163 q 440 15 507 47 q 301 -17 372 -17 m 407 578 q 328 553 367 578 q 261 488 290 529 q 215 389 232 446 q 197 267 197 332 q 228 147 197 189 q 318 104 258 104 q 396 128 358 104 q 463 195 433 153 q 509 294 492 238 q 526 417 526 351 q 496 536 526 494 q 407 578 465 578 m 225 -297 q 167 -277 193 -297 q 140 -219 140 -257 q 169 -151 140 -179 q 240 -122 199 -122 q 299 -142 272 -122 q 325 -200 325 -162 q 296 -269 325 -242 q 225 -297 267 -297 z "},"ỏ":{"ha":728,"x_min":47,"x_max":678,"o":"m 301 -17 q 197 3 244 -17 q 117 58 150 22 q 65 146 83 94 q 47 261 47 197 q 80 440 47 358 q 165 578 113 521 q 285 667 218 635 q 422 699 353 699 q 608 624 539 699 q 678 421 678 550 q 645 243 678 324 q 560 105 613 163 q 440 15 507 47 q 301 -17 372 -17 m 407 578 q 328 553 367 578 q 261 488 290 529 q 215 389 232 446 q 197 267 197 332 q 228 147 197 189 q 318 104 258 104 q 396 128 358 104 q 463 195 433 153 q 509 294 492 238 q 526 417 526 351 q 496 536 526 494 q 407 578 465 578 m 438 1022 q 580 992 539 1019 q 621 921 621 964 q 606 860 621 886 q 566 817 592 835 q 506 787 540 799 q 432 769 471 775 l 424 833 q 485 857 463 844 q 508 896 508 869 q 487 928 508 917 q 408 944 465 940 l 438 1022 z "},"ố":{"ha":728,"x_min":47,"x_max":851,"o":"m 301 -17 q 197 3 244 -17 q 117 58 150 22 q 65 146 83 94 q 47 261 47 197 q 80 440 47 358 q 165 578 113 521 q 285 667 218 635 q 422 699 353 699 q 608 624 539 699 q 678 421 678 550 q 645 243 678 324 q 560 105 613 163 q 440 15 507 47 q 301 -17 372 -17 m 407 578 q 328 553 367 578 q 261 488 290 529 q 215 389 232 446 q 197 267 197 332 q 228 147 197 189 q 318 104 258 104 q 396 128 358 104 q 463 195 433 153 q 509 294 492 238 q 526 417 526 351 q 496 536 526 494 q 407 578 465 578 m 435 965 l 549 965 l 624 794 l 535 794 l 482 890 l 476 890 l 389 794 l 289 794 l 435 965 m 735 1051 l 851 1051 l 699 890 l 611 890 l 735 1051 z "},"ồ":{"ha":728,"x_min":47,"x_max":772,"o":"m 301 -17 q 197 3 244 -17 q 117 58 150 22 q 65 146 83 94 q 47 261 47 197 q 80 440 47 358 q 165 578 113 521 q 285 667 218 635 q 422 699 353 699 q 608 624 539 699 q 678 421 678 550 q 645 243 678 324 q 560 105 613 163 q 440 15 507 47 q 301 -17 372 -17 m 407 578 q 328 553 367 578 q 261 488 290 529 q 215 389 232 446 q 197 267 197 332 q 228 147 197 189 q 318 104 258 104 q 396 128 358 104 q 463 195 433 153 q 509 294 492 238 q 526 417 526 351 q 496 536 526 494 q 407 578 465 578 m 772 890 l 685 890 l 596 1051 l 710 1051 l 772 890 m 435 965 l 549 965 l 624 794 l 535 794 l 482 890 l 476 890 l 389 794 l 289 794 l 435 965 z "},"ổ":{"ha":728,"x_min":47,"x_max":807,"o":"m 301 -17 q 197 3 244 -17 q 117 58 150 22 q 65 146 83 94 q 47 261 47 197 q 80 440 47 358 q 165 578 113 521 q 285 667 218 635 q 422 699 353 699 q 608 624 539 699 q 678 421 678 550 q 645 243 678 324 q 560 105 613 163 q 440 15 507 47 q 301 -17 372 -17 m 407 578 q 328 553 367 578 q 261 488 290 529 q 215 389 232 446 q 197 267 197 332 q 228 147 197 189 q 318 104 258 104 q 396 128 358 104 q 463 195 433 153 q 509 294 492 238 q 526 417 526 351 q 496 536 526 494 q 407 578 465 578 m 646 1100 q 770 1072 733 1096 q 807 1010 807 1047 q 794 953 807 976 q 760 913 782 929 q 707 888 738 897 q 642 871 676 878 l 638 925 q 688 949 672 936 q 703 986 703 963 q 685 1017 703 1006 q 621 1033 668 1028 l 646 1100 m 435 965 l 549 965 l 624 794 l 535 794 l 482 890 l 476 890 l 389 794 l 289 794 l 435 965 z "},"ỗ":{"ha":728,"x_min":47,"x_max":706,"o":"m 301 -17 q 197 3 244 -17 q 117 58 150 22 q 65 146 83 94 q 47 261 47 197 q 80 440 47 358 q 165 578 113 521 q 285 667 218 635 q 422 699 353 699 q 608 624 539 699 q 678 421 678 550 q 645 243 678 324 q 560 105 613 163 q 440 15 507 47 q 301 -17 372 -17 m 407 578 q 328 553 367 578 q 261 488 290 529 q 215 389 232 446 q 197 267 197 332 q 228 147 197 189 q 318 104 258 104 q 396 128 358 104 q 463 195 433 153 q 509 294 492 238 q 526 417 526 351 q 496 536 526 494 q 407 578 465 578 m 638 794 l 543 794 l 479 878 l 474 878 l 383 794 l 276 794 l 419 940 l 554 940 l 638 794 m 313 992 q 369 1094 333 1058 q 446 1131 406 1131 q 488 1122 471 1131 q 520 1101 506 1113 q 548 1081 535 1090 q 578 1072 561 1072 q 610 1087 593 1072 q 636 1129 626 1101 l 706 1129 q 648 1026 685 1063 q 571 990 611 990 q 528 999 546 990 q 497 1019 511 1008 q 470 1040 483 1031 q 440 1049 457 1049 q 409 1034 425 1049 q 383 992 393 1019 l 313 992 z "},"ộ":{"ha":728,"x_min":47,"x_max":678,"o":"m 301 -17 q 197 3 244 -17 q 117 58 150 22 q 65 146 83 94 q 47 261 47 197 q 80 440 47 358 q 165 578 113 521 q 285 667 218 635 q 422 699 353 699 q 608 624 539 699 q 678 421 678 550 q 645 243 678 324 q 560 105 613 163 q 440 15 507 47 q 301 -17 372 -17 m 407 578 q 328 553 367 578 q 261 488 290 529 q 215 389 232 446 q 197 267 197 332 q 228 147 197 189 q 318 104 258 104 q 396 128 358 104 q 463 195 433 153 q 509 294 492 238 q 526 417 526 351 q 496 536 526 494 q 407 578 465 578 m 442 996 l 557 996 l 646 794 l 547 794 l 490 914 l 485 914 l 379 794 l 272 794 l 442 996 m 225 -297 q 167 -277 193 -297 q 140 -219 140 -257 q 169 -151 140 -179 q 240 -122 199 -122 q 299 -142 272 -122 q 325 -200 325 -162 q 296 -269 325 -242 q 225 -297 267 -297 z "},"ø":{"ha":728,"x_min":0,"x_max":731,"o":"m 221 143 q 313 101 254 101 q 403 128 363 101 q 474 200 444 156 q 520 301 504 244 q 536 414 536 357 q 532 463 536 439 l 221 143 m 506 535 q 411 581 471 581 q 322 553 363 581 q 251 481 281 525 q 204 380 221 436 q 188 267 188 324 q 192 213 188 238 l 506 535 m 642 575 q 678 421 678 511 q 645 242 678 322 q 560 103 613 161 q 440 15 507 46 q 301 -17 372 -17 q 128 47 199 -17 l 50 -33 l 0 14 l 86 101 q 47 261 47 168 q 80 440 47 358 q 165 578 113 521 q 285 667 218 635 q 422 699 353 699 q 600 632 529 699 l 679 714 l 731 667 l 642 575 z "},"œ":{"ha":1118,"x_min":47,"x_max":1075,"o":"m 293 -17 q 114 58 181 -17 q 47 261 47 133 q 79 440 47 358 q 163 578 111 521 q 281 667 215 635 q 414 699 346 699 q 544 660 494 699 q 617 546 593 621 q 727 659 663 619 q 857 699 792 699 q 958 679 917 699 q 1025 626 999 660 q 1063 546 1051 592 q 1075 447 1075 500 q 1063 361 1075 403 q 1044 303 1051 319 l 647 303 q 653 210 643 249 q 685 146 664 171 q 735 109 706 121 q 799 97 764 97 q 872 114 835 97 q 938 151 908 131 l 992 56 q 892 5 951 26 q 758 -17 832 -17 q 632 24 685 -17 q 556 144 579 65 q 438 26 507 68 q 293 -17 368 -17 m 399 578 q 325 553 361 578 q 260 488 289 529 q 215 389 232 446 q 197 267 197 332 q 228 147 197 189 q 318 104 258 104 q 393 128 357 104 q 457 195 429 153 q 501 294 485 238 q 518 417 518 351 q 488 536 518 494 q 399 578 457 578 m 944 397 q 949 426 947 411 q 950 457 950 440 q 926 545 950 507 q 839 583 901 583 q 734 534 783 583 q 661 397 685 485 l 944 397 z "},"ơ":{"ha":733,"x_min":47,"x_max":786,"o":"m 318 104 q 396 128 358 104 q 463 195 433 153 q 509 294 492 238 q 526 417 526 351 q 496 536 526 494 q 407 578 465 578 q 328 553 367 578 q 261 488 290 529 q 215 389 232 446 q 197 267 197 332 q 228 147 197 189 q 318 104 258 104 m 769 854 q 783 817 779 835 q 786 779 786 799 q 746 675 786 721 q 618 611 706 629 q 678 421 678 539 q 645 243 678 324 q 560 105 613 163 q 440 15 507 47 q 301 -17 372 -17 q 197 3 244 -17 q 117 58 150 22 q 65 146 83 94 q 47 261 47 197 q 80 440 47 358 q 165 578 113 521 q 285 667 218 635 q 422 699 353 699 q 550 668 493 699 q 634 702 601 675 q 667 769 667 729 q 657 817 667 793 l 769 854 z "},"ớ":{"ha":733,"x_min":47,"x_max":786,"o":"m 318 104 q 396 128 358 104 q 463 195 433 153 q 509 294 492 238 q 526 417 526 351 q 496 536 526 494 q 407 578 465 578 q 328 553 367 578 q 261 488 290 529 q 215 389 232 446 q 197 267 197 332 q 228 147 197 189 q 318 104 258 104 m 769 854 q 783 817 779 835 q 786 779 786 799 q 746 675 786 721 q 618 611 706 629 q 678 421 678 539 q 645 243 678 324 q 560 105 613 163 q 440 15 507 47 q 301 -17 372 -17 q 197 3 244 -17 q 117 58 150 22 q 65 146 83 94 q 47 261 47 197 q 80 440 47 358 q 165 578 113 521 q 285 667 218 635 q 422 699 353 699 q 550 668 493 699 q 634 702 601 675 q 667 769 667 729 q 657 817 667 793 l 769 854 m 497 996 l 650 996 l 453 794 l 336 794 l 497 996 z "},"ờ":{"ha":733,"x_min":47,"x_max":786,"o":"m 318 104 q 396 128 358 104 q 463 195 433 153 q 509 294 492 238 q 526 417 526 351 q 496 536 526 494 q 407 578 465 578 q 328 553 367 578 q 261 488 290 529 q 215 389 232 446 q 197 267 197 332 q 228 147 197 189 q 318 104 258 104 m 769 854 q 783 817 779 835 q 786 779 786 799 q 746 675 786 721 q 618 611 706 629 q 678 421 678 539 q 645 243 678 324 q 560 105 613 163 q 440 15 507 47 q 301 -17 372 -17 q 197 3 244 -17 q 117 58 150 22 q 65 146 83 94 q 47 261 47 197 q 80 440 47 358 q 165 578 113 521 q 285 667 218 635 q 422 699 353 699 q 550 668 493 699 q 634 702 601 675 q 667 769 667 729 q 657 817 667 793 l 769 854 m 311 996 l 453 996 l 532 794 l 428 794 l 311 996 z "},"ở":{"ha":733,"x_min":47,"x_max":786,"o":"m 318 104 q 396 128 358 104 q 463 195 433 153 q 509 294 492 238 q 526 417 526 351 q 496 536 526 494 q 407 578 465 578 q 328 553 367 578 q 261 488 290 529 q 215 389 232 446 q 197 267 197 332 q 228 147 197 189 q 318 104 258 104 m 769 854 q 783 817 779 835 q 786 779 786 799 q 746 675 786 721 q 618 611 706 629 q 678 421 678 539 q 645 243 678 324 q 560 105 613 163 q 440 15 507 47 q 301 -17 372 -17 q 197 3 244 -17 q 117 58 150 22 q 65 146 83 94 q 47 261 47 197 q 80 440 47 358 q 165 578 113 521 q 285 667 218 635 q 422 699 353 699 q 550 668 493 699 q 634 702 601 675 q 667 769 667 729 q 657 817 667 793 l 769 854 m 418 1022 q 560 992 519 1019 q 601 921 601 964 q 587 860 601 886 q 547 817 572 835 q 486 787 521 799 q 413 769 451 775 l 404 833 q 466 857 443 844 q 489 896 489 869 q 467 928 489 917 q 389 944 446 940 l 418 1022 z "},"ỡ":{"ha":733,"x_min":47,"x_max":786,"o":"m 318 104 q 396 128 358 104 q 463 195 433 153 q 509 294 492 238 q 526 417 526 351 q 496 536 526 494 q 407 578 465 578 q 328 553 367 578 q 261 488 290 529 q 215 389 232 446 q 197 267 197 332 q 228 147 197 189 q 318 104 258 104 m 769 854 q 783 817 779 835 q 786 779 786 799 q 746 675 786 721 q 618 611 706 629 q 678 421 678 539 q 645 243 678 324 q 560 105 613 163 q 440 15 507 47 q 301 -17 372 -17 q 197 3 244 -17 q 117 58 150 22 q 65 146 83 94 q 47 261 47 197 q 80 440 47 358 q 165 578 113 521 q 285 667 218 635 q 422 699 353 699 q 550 668 493 699 q 634 702 601 675 q 667 769 667 729 q 657 817 667 793 l 769 854 m 242 803 q 303 922 264 879 q 389 964 343 964 q 440 953 419 964 q 476 930 460 943 q 507 906 492 917 q 544 896 522 896 q 603 961 575 896 l 683 961 q 623 843 663 886 q 536 800 583 800 q 485 811 506 800 q 449 835 465 822 q 418 858 433 847 q 381 869 403 869 q 322 803 350 869 l 242 803 z "},"ợ":{"ha":733,"x_min":47,"x_max":786,"o":"m 318 104 q 396 128 358 104 q 463 195 433 153 q 509 294 492 238 q 526 417 526 351 q 496 536 526 494 q 407 578 465 578 q 328 553 367 578 q 261 488 290 529 q 215 389 232 446 q 197 267 197 332 q 228 147 197 189 q 318 104 258 104 m 769 854 q 783 817 779 835 q 786 779 786 799 q 746 675 786 721 q 618 611 706 629 q 678 421 678 539 q 645 243 678 324 q 560 105 613 163 q 440 15 507 47 q 301 -17 372 -17 q 197 3 244 -17 q 117 58 150 22 q 65 146 83 94 q 47 261 47 197 q 80 440 47 358 q 165 578 113 521 q 285 667 218 635 q 422 699 353 699 q 550 668 493 699 q 634 702 601 675 q 667 769 667 729 q 657 817 667 793 l 769 854 m 224 -297 q 165 -277 192 -297 q 139 -219 139 -257 q 168 -151 139 -179 q 239 -122 197 -122 q 297 -142 271 -122 q 324 -200 324 -162 q 294 -269 324 -242 q 224 -297 265 -297 z "},"ǫ":{"ha":728,"x_min":47,"x_max":678,"o":"m 146 -192 q 159 -131 146 -160 q 190 -78 172 -101 q 228 -37 208 -54 q 261 -11 247 -19 q 105 72 163 3 q 47 261 47 140 q 80 440 47 358 q 165 578 113 521 q 285 667 218 635 q 422 699 353 699 q 524 680 478 699 q 605 626 571 661 q 658 539 639 590 q 678 421 678 488 q 656 268 678 336 q 595 148 633 200 q 505 58 557 96 q 393 -6 453 19 q 290 -76 322 -35 q 257 -150 257 -118 q 272 -184 257 -172 q 307 -196 286 -196 q 356 -181 329 -196 l 382 -247 q 321 -277 356 -265 q 257 -289 286 -289 q 177 -265 208 -289 q 146 -192 146 -240 m 407 578 q 328 553 367 578 q 261 488 290 529 q 215 389 232 446 q 197 267 197 332 q 228 147 197 189 q 318 104 258 104 q 396 128 358 104 q 463 195 433 153 q 509 294 492 238 q 526 417 526 351 q 496 536 526 494 q 407 578 465 578 z "},"ŕ":{"ha":504,"x_min":31,"x_max":586,"o":"m 167 682 l 288 682 l 275 550 l 281 550 q 375 656 321 614 q 492 699 429 699 q 560 686 532 699 l 510 556 q 481 565 497 563 q 446 567 464 567 q 350 529 397 567 q 261 413 303 492 l 181 0 l 31 0 l 167 682 m 433 996 l 586 996 l 389 794 l 272 794 l 433 996 z "},"ŗ":{"ha":504,"x_min":-54,"x_max":560,"o":"m 167 682 l 288 682 l 275 550 l 281 550 q 375 656 321 614 q 492 699 429 699 q 560 686 532 699 l 510 556 q 481 565 497 563 q 446 567 464 567 q 350 529 397 567 q 261 413 303 492 l 181 0 l 31 0 l 167 682 m 63 -58 q 150 -92 118 -69 q 182 -156 182 -114 q 163 -220 182 -194 q 113 -262 144 -246 q 39 -286 81 -278 q -49 -297 -3 -294 l -54 -235 q 41 -212 8 -228 q 74 -164 74 -196 q 59 -133 74 -144 q 22 -115 44 -122 l 63 -58 z "},"ř":{"ha":504,"x_min":31,"x_max":606,"o":"m 167 682 l 288 682 l 275 550 l 281 550 q 375 656 321 614 q 492 699 429 699 q 560 686 532 699 l 510 556 q 481 565 497 563 q 446 567 464 567 q 350 529 397 567 q 261 413 303 492 l 181 0 l 31 0 l 167 682 m 436 794 l 321 794 l 231 996 l 329 996 l 388 878 l 393 878 l 497 996 l 606 996 l 436 794 z "},"ṛ":{"ha":504,"x_min":-21,"x_max":560,"o":"m 167 682 l 288 682 l 275 550 l 281 550 q 375 656 321 614 q 492 699 429 699 q 560 686 532 699 l 510 556 q 481 565 497 563 q 446 567 464 567 q 350 529 397 567 q 261 413 303 492 l 181 0 l 31 0 l 167 682 m 64 -297 q 6 -277 32 -297 q -21 -219 -21 -257 q 8 -151 -21 -179 q 79 -122 38 -122 q 138 -142 111 -122 q 164 -200 164 -162 q 135 -269 164 -242 q 64 -297 106 -297 z "},"ṝ":{"ha":504,"x_min":-21,"x_max":574,"o":"m 167 682 l 288 682 l 275 550 l 281 550 q 375 656 321 614 q 492 699 429 699 q 560 686 532 699 l 510 556 q 481 565 497 563 q 446 567 464 567 q 350 529 397 567 q 261 413 303 492 l 181 0 l 31 0 l 167 682 m 228 928 l 574 928 l 556 829 l 208 829 l 228 928 m 64 -297 q 6 -277 32 -297 q -21 -219 -21 -257 q 8 -151 -21 -179 q 79 -122 38 -122 q 138 -142 111 -122 q 164 -200 164 -162 q 135 -269 164 -242 q 64 -297 106 -297 z "},"ṟ":{"ha":504,"x_min":-108,"x_max":560,"o":"m 167 682 l 288 682 l 275 550 l 281 550 q 375 656 321 614 q 492 699 429 699 q 560 686 532 699 l 510 556 q 481 565 497 563 q 446 567 464 567 q 350 529 397 567 q 261 413 303 492 l 181 0 l 31 0 l 167 682 m -89 -139 l 257 -139 l 239 -237 l -108 -237 l -89 -139 z "},"ś":{"ha":574,"x_min":-8,"x_max":588,"o":"m 81 186 q 155 118 114 142 q 242 94 196 94 q 326 120 290 94 q 361 183 361 146 q 332 238 361 215 q 239 297 303 261 q 132 379 171 335 q 93 486 93 424 q 113 572 93 532 q 166 639 132 611 q 245 683 200 667 q 342 699 290 699 q 462 671 408 699 q 556 601 515 643 l 472 522 q 414 567 446 549 q 342 586 382 586 q 264 561 294 586 q 233 500 233 536 q 243 467 233 481 q 269 440 253 453 q 307 417 286 428 q 350 393 328 406 q 464 308 426 353 q 501 201 501 264 q 481 111 501 151 q 425 42 461 71 q 339 -1 389 14 q 231 -17 289 -17 q 165 -7 199 -17 q 99 19 131 3 q 39 60 67 36 q -8 114 11 85 l 81 186 m 435 996 l 588 996 l 390 794 l 274 794 l 435 996 z "},"ŝ":{"ha":574,"x_min":-8,"x_max":564,"o":"m 81 186 q 155 118 114 142 q 242 94 196 94 q 326 120 290 94 q 361 183 361 146 q 332 238 361 215 q 239 297 303 261 q 132 379 171 335 q 93 486 93 424 q 113 572 93 532 q 166 639 132 611 q 245 683 200 667 q 342 699 290 699 q 462 671 408 699 q 556 601 515 643 l 472 522 q 414 567 446 549 q 342 586 382 586 q 264 561 294 586 q 233 500 233 536 q 243 467 233 481 q 269 440 253 453 q 307 417 286 428 q 350 393 328 406 q 464 308 426 353 q 501 201 501 264 q 481 111 501 151 q 425 42 461 71 q 339 -1 389 14 q 231 -17 289 -17 q 165 -7 199 -17 q 99 19 131 3 q 39 60 67 36 q -8 114 11 85 l 81 186 m 360 996 l 475 996 l 564 794 l 465 794 l 408 914 l 403 914 l 297 794 l 190 794 l 360 996 z "},"š":{"ha":574,"x_min":-8,"x_max":607,"o":"m 81 186 q 155 118 114 142 q 242 94 196 94 q 326 120 290 94 q 361 183 361 146 q 332 238 361 215 q 239 297 303 261 q 132 379 171 335 q 93 486 93 424 q 113 572 93 532 q 166 639 132 611 q 245 683 200 667 q 342 699 290 699 q 462 671 408 699 q 556 601 515 643 l 472 522 q 414 567 446 549 q 342 586 382 586 q 264 561 294 586 q 233 500 233 536 q 243 467 233 481 q 269 440 253 453 q 307 417 286 428 q 350 393 328 406 q 464 308 426 353 q 501 201 501 264 q 481 111 501 151 q 425 42 461 71 q 339 -1 389 14 q 231 -17 289 -17 q 165 -7 199 -17 q 99 19 131 3 q 39 60 67 36 q -8 114 11 85 l 81 186 m 438 794 l 322 794 l 232 996 l 331 996 l 389 878 l 394 878 l 499 996 l 607 996 l 438 794 z "},"ş":{"ha":574,"x_min":-8,"x_max":556,"o":"m 81 186 q 155 118 114 142 q 242 94 196 94 q 326 120 290 94 q 361 183 361 146 q 332 238 361 215 q 239 297 303 261 q 132 379 171 335 q 93 486 93 424 q 113 572 93 532 q 166 639 132 611 q 245 683 200 667 q 342 699 290 699 q 462 671 408 699 q 556 601 515 643 l 472 522 q 414 567 446 549 q 342 586 382 586 q 264 561 294 586 q 233 500 233 536 q 243 467 233 481 q 269 440 253 453 q 307 417 286 428 q 350 393 328 406 q 464 308 426 353 q 501 201 501 264 q 481 111 501 151 q 425 42 461 71 q 339 -1 389 14 q 231 -17 289 -17 q 165 -7 199 -17 q 99 19 131 3 q 39 60 67 36 q -8 114 11 85 l 81 186 m 196 4 l 288 4 l 240 -68 q 285 -97 267 -78 q 303 -149 303 -117 q 283 -213 303 -186 q 231 -258 264 -240 q 156 -287 199 -276 q 67 -300 113 -297 l 61 -237 q 152 -212 115 -231 q 189 -161 189 -194 q 174 -128 189 -142 q 121 -104 160 -115 l 196 4 z "},"ș":{"ha":574,"x_min":-8,"x_max":556,"o":"m 81 186 q 155 118 114 142 q 242 94 196 94 q 326 120 290 94 q 361 183 361 146 q 332 238 361 215 q 239 297 303 261 q 132 379 171 335 q 93 486 93 424 q 113 572 93 532 q 166 639 132 611 q 245 683 200 667 q 342 699 290 699 q 462 671 408 699 q 556 601 515 643 l 472 522 q 414 567 446 549 q 342 586 382 586 q 264 561 294 586 q 233 500 233 536 q 243 467 233 481 q 269 440 253 453 q 307 417 286 428 q 350 393 328 406 q 464 308 426 353 q 501 201 501 264 q 481 111 501 151 q 425 42 461 71 q 339 -1 389 14 q 231 -17 289 -17 q 165 -7 199 -17 q 99 19 131 3 q 39 60 67 36 q -8 114 11 85 l 81 186 m 196 -58 q 283 -92 251 -69 q 315 -156 315 -114 q 297 -220 315 -194 q 246 -262 278 -246 q 172 -286 214 -278 q 85 -297 131 -294 l 79 -235 q 174 -212 142 -228 q 207 -164 207 -196 q 192 -133 207 -144 q 156 -115 178 -122 l 196 -58 z "},"ṡ":{"ha":574,"x_min":-8,"x_max":556,"o":"m 81 186 q 155 118 114 142 q 242 94 196 94 q 326 120 290 94 q 361 183 361 146 q 332 238 361 215 q 239 297 303 261 q 132 379 171 335 q 93 486 93 424 q 113 572 93 532 q 166 639 132 611 q 245 683 200 667 q 342 699 290 699 q 462 671 408 699 q 556 601 515 643 l 472 522 q 414 567 446 549 q 342 586 382 586 q 264 561 294 586 q 233 500 233 536 q 243 467 233 481 q 269 440 253 453 q 307 417 286 428 q 350 393 328 406 q 464 308 426 353 q 501 201 501 264 q 481 111 501 151 q 425 42 461 71 q 339 -1 389 14 q 231 -17 289 -17 q 165 -7 199 -17 q 99 19 131 3 q 39 60 67 36 q -8 114 11 85 l 81 186 m 388 803 q 328 823 354 803 q 301 881 301 843 q 331 949 301 921 q 401 978 361 978 q 461 958 435 978 q 488 900 488 938 q 458 831 488 858 q 388 803 429 803 z "},"ṣ":{"ha":574,"x_min":-8,"x_max":556,"o":"m 81 186 q 155 118 114 142 q 242 94 196 94 q 326 120 290 94 q 361 183 361 146 q 332 238 361 215 q 239 297 303 261 q 132 379 171 335 q 93 486 93 424 q 113 572 93 532 q 166 639 132 611 q 245 683 200 667 q 342 699 290 699 q 462 671 408 699 q 556 601 515 643 l 472 522 q 414 567 446 549 q 342 586 382 586 q 264 561 294 586 q 233 500 233 536 q 243 467 233 481 q 269 440 253 453 q 307 417 286 428 q 350 393 328 406 q 464 308 426 353 q 501 201 501 264 q 481 111 501 151 q 425 42 461 71 q 339 -1 389 14 q 231 -17 289 -17 q 165 -7 199 -17 q 99 19 131 3 q 39 60 67 36 q -8 114 11 85 l 81 186 m 197 -297 q 139 -277 165 -297 q 113 -219 113 -257 q 142 -151 113 -179 q 213 -122 171 -122 q 271 -142 244 -122 q 297 -200 297 -162 q 268 -269 297 -242 q 197 -297 239 -297 z "},"ß":{"ha":810,"x_min":31,"x_max":740,"o":"m 175 715 q 214 825 188 774 q 280 915 240 876 q 372 975 319 953 q 490 997 425 997 q 577 985 536 997 q 650 950 618 974 q 701 890 682 926 q 719 803 719 853 q 693 700 719 740 q 634 628 667 660 q 575 569 601 597 q 549 506 549 542 q 563 463 549 482 q 598 425 576 443 q 644 387 619 407 q 691 342 669 367 q 726 287 713 318 q 740 214 740 256 q 722 124 740 165 q 670 51 703 82 q 592 1 638 19 q 496 -17 547 -17 q 392 -1 443 -17 q 296 49 340 15 l 360 147 q 423 110 390 125 q 494 96 456 96 q 571 124 540 96 q 601 197 601 153 q 587 247 601 225 q 550 289 572 269 q 502 327 528 308 q 454 368 476 346 q 417 417 432 390 q 403 479 403 443 q 430 565 403 531 q 489 631 457 600 q 548 697 521 663 q 575 782 575 732 q 553 851 575 825 q 483 878 532 878 q 425 863 451 878 q 377 822 399 847 q 340 760 356 796 q 317 685 325 725 l 181 0 l 31 0 l 175 715 z "},"ť":{"ha":481,"x_min":74,"x_max":601,"o":"m 169 564 l 74 564 l 96 675 l 200 682 l 254 865 l 379 865 l 343 682 l 507 682 l 483 564 l 317 564 l 247 225 q 243 176 243 200 q 261 120 243 139 q 322 101 279 101 q 356 107 340 101 q 386 119 371 113 l 414 14 q 353 -7 389 3 q 269 -17 317 -17 q 133 31 174 -17 q 92 150 92 79 q 94 190 92 171 q 100 231 97 210 l 169 564 m 447 761 l 503 1063 l 601 1063 l 583 975 l 515 761 l 447 761 z "},"ţ":{"ha":481,"x_min":71,"x_max":507,"o":"m 169 564 l 74 564 l 96 675 l 200 682 l 254 865 l 379 865 l 343 682 l 507 682 l 483 564 l 317 564 l 247 225 q 243 176 243 200 q 261 120 243 139 q 322 101 279 101 q 356 107 340 101 q 386 119 371 113 l 414 14 q 353 -7 389 3 q 269 -17 317 -17 q 133 31 174 -17 q 92 150 92 79 q 94 190 92 171 q 100 231 97 210 l 169 564 m 206 4 l 297 4 l 250 -68 q 294 -97 276 -78 q 313 -149 313 -117 q 293 -213 313 -186 q 241 -258 274 -240 q 165 -287 208 -276 q 76 -300 122 -297 l 71 -237 q 162 -212 125 -231 q 199 -161 199 -194 q 184 -128 199 -142 q 131 -104 169 -115 l 206 4 z "},"ț":{"ha":481,"x_min":69,"x_max":507,"o":"m 169 564 l 74 564 l 96 675 l 200 682 l 254 865 l 379 865 l 343 682 l 507 682 l 483 564 l 317 564 l 247 225 q 243 176 243 200 q 261 120 243 139 q 322 101 279 101 q 356 107 340 101 q 386 119 371 113 l 414 14 q 353 -7 389 3 q 269 -17 317 -17 q 133 31 174 -17 q 92 150 92 79 q 94 190 92 171 q 100 231 97 210 l 169 564 m 186 -58 q 274 -92 242 -69 q 306 -156 306 -114 q 287 -220 306 -194 q 236 -262 268 -246 q 163 -286 204 -278 q 75 -297 121 -294 l 69 -235 q 165 -212 132 -228 q 197 -164 197 -196 q 183 -133 197 -144 q 146 -115 168 -122 l 186 -58 z "},"ṭ":{"ha":481,"x_min":74,"x_max":507,"o":"m 169 564 l 74 564 l 96 675 l 200 682 l 254 865 l 379 865 l 343 682 l 507 682 l 483 564 l 317 564 l 247 225 q 243 176 243 200 q 261 120 243 139 q 322 101 279 101 q 356 107 340 101 q 386 119 371 113 l 414 14 q 353 -7 389 3 q 269 -17 317 -17 q 133 31 174 -17 q 92 150 92 79 q 94 190 92 171 q 100 231 97 210 l 169 564 m 188 -297 q 129 -277 156 -297 q 103 -219 103 -257 q 132 -151 103 -179 q 203 -122 161 -122 q 261 -142 235 -122 q 288 -200 288 -162 q 258 -269 288 -242 q 188 -297 229 -297 z "},"ṯ":{"ha":481,"x_min":15,"x_max":507,"o":"m 169 564 l 74 564 l 96 675 l 200 682 l 254 865 l 379 865 l 343 682 l 507 682 l 483 564 l 317 564 l 247 225 q 243 176 243 200 q 261 120 243 139 q 322 101 279 101 q 356 107 340 101 q 386 119 371 113 l 414 14 q 353 -7 389 3 q 269 -17 317 -17 q 133 31 174 -17 q 92 150 92 79 q 94 190 92 171 q 100 231 97 210 l 169 564 m 35 -139 l 381 -139 l 363 -237 l 15 -237 l 35 -139 z "},"ẗ":{"ha":481,"x_min":74,"x_max":546,"o":"m 169 564 l 74 564 l 96 675 l 200 682 l 254 865 l 379 865 l 343 682 l 507 682 l 483 564 l 317 564 l 247 225 q 243 176 243 200 q 261 120 243 139 q 322 101 279 101 q 356 107 340 101 q 386 119 371 113 l 414 14 q 353 -7 389 3 q 269 -17 317 -17 q 133 31 174 -17 q 92 150 92 79 q 94 190 92 171 q 100 231 97 210 l 169 564 m 211 997 q 161 1015 181 997 q 142 1067 142 1033 q 167 1130 142 1103 q 229 1157 193 1157 q 278 1138 258 1157 q 299 1086 299 1119 q 273 1023 299 1049 q 211 997 247 997 m 458 997 q 408 1015 428 997 q 389 1067 389 1033 q 415 1130 389 1103 q 476 1157 440 1157 q 526 1138 507 1157 q 546 1086 546 1119 q 520 1023 546 1049 q 458 997 494 997 z "},"ù":{"ha":746,"x_min":65,"x_max":711,"o":"m 576 0 l 456 0 l 461 97 l 456 97 q 347 17 404 51 q 228 -17 290 -17 q 103 28 142 -17 q 65 156 65 74 q 68 202 65 179 q 76 251 71 225 l 163 682 l 311 682 l 229 271 q 221 231 224 247 q 218 199 218 214 q 303 111 218 111 q 471 217 371 111 l 563 682 l 711 682 l 576 0 m 322 996 l 464 996 l 543 794 l 439 794 l 322 996 z "},"ú":{"ha":746,"x_min":65,"x_max":711,"o":"m 576 0 l 456 0 l 461 97 l 456 97 q 347 17 404 51 q 228 -17 290 -17 q 103 28 142 -17 q 65 156 65 74 q 68 202 65 179 q 76 251 71 225 l 163 682 l 311 682 l 229 271 q 221 231 224 247 q 218 199 218 214 q 303 111 218 111 q 471 217 371 111 l 563 682 l 711 682 l 576 0 m 508 996 l 661 996 l 464 794 l 347 794 l 508 996 z "},"û":{"ha":746,"x_min":65,"x_max":711,"o":"m 576 0 l 456 0 l 461 97 l 456 97 q 347 17 404 51 q 228 -17 290 -17 q 103 28 142 -17 q 65 156 65 74 q 68 202 65 179 q 76 251 71 225 l 163 682 l 311 682 l 229 271 q 221 231 224 247 q 218 199 218 214 q 303 111 218 111 q 471 217 371 111 l 563 682 l 711 682 l 576 0 m 433 996 l 549 996 l 638 794 l 539 794 l 482 914 l 476 914 l 371 794 l 264 794 l 433 996 z "},"ũ":{"ha":746,"x_min":65,"x_max":711,"o":"m 576 0 l 456 0 l 461 97 l 456 97 q 347 17 404 51 q 228 -17 290 -17 q 103 28 142 -17 q 65 156 65 74 q 68 202 65 179 q 76 251 71 225 l 163 682 l 311 682 l 229 271 q 221 231 224 247 q 218 199 218 214 q 303 111 218 111 q 471 217 371 111 l 563 682 l 711 682 l 576 0 m 253 803 q 315 922 275 879 q 400 964 354 964 q 451 953 431 964 q 487 930 471 943 q 518 906 503 917 q 556 896 533 896 q 614 961 586 896 l 694 961 q 634 843 674 886 q 547 800 594 800 q 497 811 517 800 q 460 835 476 822 q 429 858 444 847 q 392 869 414 869 q 333 803 361 869 l 253 803 z "},"ü":{"ha":746,"x_min":65,"x_max":711,"o":"m 576 0 l 456 0 l 461 97 l 456 97 q 347 17 404 51 q 228 -17 290 -17 q 103 28 142 -17 q 65 156 65 74 q 68 202 65 179 q 76 251 71 225 l 163 682 l 311 682 l 229 271 q 221 231 224 247 q 218 199 218 214 q 303 111 218 111 q 471 217 371 111 l 563 682 l 711 682 l 576 0 m 336 806 q 286 824 306 806 q 267 875 267 842 q 292 938 267 911 q 354 965 318 965 q 403 947 383 965 q 424 894 424 928 q 398 831 424 857 q 336 806 372 806 m 583 806 q 533 824 553 806 q 514 875 514 842 q 540 938 514 911 q 601 965 565 965 q 651 947 632 965 q 671 894 671 928 q 645 831 671 857 q 583 806 619 806 z "},"ū":{"ha":746,"x_min":65,"x_max":711,"o":"m 576 0 l 456 0 l 461 97 l 456 97 q 347 17 404 51 q 228 -17 290 -17 q 103 28 142 -17 q 65 156 65 74 q 68 202 65 179 q 76 251 71 225 l 163 682 l 311 682 l 229 271 q 221 231 224 247 q 218 199 218 214 q 303 111 218 111 q 471 217 371 111 l 563 682 l 711 682 l 576 0 m 303 928 l 649 928 l 631 829 l 283 829 l 303 928 z "},"ŭ":{"ha":746,"x_min":65,"x_max":711,"o":"m 576 0 l 456 0 l 461 97 l 456 97 q 347 17 404 51 q 228 -17 290 -17 q 103 28 142 -17 q 65 156 65 74 q 68 202 65 179 q 76 251 71 225 l 163 682 l 311 682 l 229 271 q 221 231 224 247 q 218 199 218 214 q 303 111 218 111 q 471 217 371 111 l 563 682 l 711 682 l 576 0 m 451 799 q 379 814 408 799 q 333 855 350 829 q 312 913 317 881 q 314 981 307 946 l 396 981 q 408 910 392 938 q 465 882 424 882 q 536 910 508 882 q 578 981 564 939 l 664 981 q 637 913 654 946 q 593 855 619 881 q 531 814 567 829 q 451 799 496 799 z "},"ů":{"ha":746,"x_min":65,"x_max":711,"o":"m 576 0 l 456 0 l 461 97 l 456 97 q 347 17 404 51 q 228 -17 290 -17 q 103 28 142 -17 q 65 156 65 74 q 68 202 65 179 q 76 251 71 225 l 163 682 l 311 682 l 229 271 q 221 231 224 247 q 218 199 218 214 q 303 111 218 111 q 471 217 371 111 l 563 682 l 711 682 l 576 0 m 461 754 q 369 785 406 754 q 333 874 333 815 q 344 932 333 904 q 376 979 356 960 q 422 1010 396 999 q 481 1022 449 1022 q 572 992 536 1022 q 607 904 607 961 q 596 845 607 872 q 565 798 585 818 q 518 766 544 778 q 461 754 492 754 m 478 960 q 431 935 450 960 q 411 878 411 911 q 424 834 411 851 q 464 817 438 817 q 511 841 492 817 q 531 899 531 865 q 517 942 531 925 q 478 960 504 960 z "},"ű":{"ha":746,"x_min":65,"x_max":775,"o":"m 576 0 l 456 0 l 461 97 l 456 97 q 347 17 404 51 q 228 -17 290 -17 q 103 28 142 -17 q 65 156 65 74 q 68 202 65 179 q 76 251 71 225 l 163 682 l 311 682 l 229 271 q 221 231 224 247 q 218 199 218 214 q 303 111 218 111 q 471 217 371 111 l 563 682 l 711 682 l 576 0 m 436 997 l 563 997 l 394 794 l 296 794 l 436 997 m 649 997 l 775 997 l 607 794 l 508 794 l 649 997 z "},"ǔ":{"ha":746,"x_min":65,"x_max":711,"o":"m 576 0 l 456 0 l 461 97 l 456 97 q 347 17 404 51 q 228 -17 290 -17 q 103 28 142 -17 q 65 156 65 74 q 68 202 65 179 q 76 251 71 225 l 163 682 l 311 682 l 229 271 q 221 231 224 247 q 218 199 218 214 q 303 111 218 111 q 471 217 371 111 l 563 682 l 711 682 l 576 0 m 511 794 l 396 794 l 306 996 l 404 996 l 463 878 l 468 878 l 572 996 l 681 996 l 511 794 z "},"ǖ":{"ha":746,"x_min":65,"x_max":711,"o":"m 576 0 l 456 0 l 461 97 l 456 97 q 347 17 404 51 q 228 -17 290 -17 q 103 28 142 -17 q 65 156 65 74 q 68 202 65 179 q 76 251 71 225 l 163 682 l 311 682 l 229 271 q 221 231 224 247 q 218 199 218 214 q 303 111 218 111 q 471 217 371 111 l 563 682 l 711 682 l 576 0 m 347 1119 l 693 1119 l 676 1043 l 331 1043 l 347 1119 m 336 806 q 292 823 308 806 q 276 865 276 840 q 300 926 276 901 q 356 950 324 950 q 400 934 383 950 q 417 892 417 918 q 394 831 417 856 q 336 806 371 806 m 582 806 q 539 823 556 806 q 522 865 522 840 q 546 926 522 901 q 603 950 569 950 q 645 934 629 950 q 661 892 661 918 q 638 831 661 856 q 582 806 615 806 z "},"ǘ":{"ha":746,"x_min":65,"x_max":711,"o":"m 576 0 l 456 0 l 461 97 l 456 97 q 347 17 404 51 q 228 -17 290 -17 q 103 28 142 -17 q 65 156 65 74 q 68 202 65 179 q 76 251 71 225 l 163 682 l 311 682 l 229 271 q 221 231 224 247 q 218 199 218 214 q 303 111 218 111 q 471 217 371 111 l 563 682 l 711 682 l 576 0 m 553 1154 l 690 1154 l 521 1008 l 415 1008 l 553 1154 m 336 806 q 292 823 308 806 q 276 865 276 840 q 300 926 276 901 q 356 950 324 950 q 400 934 383 950 q 417 892 417 918 q 394 831 417 856 q 336 806 371 806 m 582 806 q 539 823 556 806 q 522 865 522 840 q 546 926 522 901 q 603 950 569 950 q 645 934 629 950 q 661 892 661 918 q 638 831 661 856 q 582 806 615 806 z "}}}
